<svg width="388" height="207" viewBox="0 0 388 207" fill="none" xmlns="http://www.w3.org/2000/svg">
<g clip-path="url(#clip0_180_494)">
<rect width="388" height="207" rx="29" fill="url(#paint0_linear_180_494)"/>
<path opacity="0.31" d="M466.953 -9.38347C461.708 -14.3718 455.051 -3.38058 451.661 -3.38058C448.313 -3.38058 448.353 -11.3704 442.382 -17.331C436.37 -23.2917 424.467 -11.3704 416.64 -11.3704C408.772 -11.3704 413.009 -18.3879 406.876 -17.2042C400.703 -16.0205 409.216 2.62235 394.166 0.593199C380.125 -1.26686 379.601 -1.39369 379.601 -1.39369C379.601 -1.39369 379.278 -1.26685 372.702 1.60779C365.762 4.60925 363.381 18.602 358.903 27.6063C354.465 36.6107 348.13 25.6194 340.101 28.6209C332.072 31.6224 334.735 38.5976 326.746 37.6253C318.797 36.6107 322.348 28.6209 314.077 28.6209C305.806 28.6209 306.128 37.6253 301.045 36.6107C295.961 35.6384 293.701 31.6224 285.713 34.6238C277.764 37.6253 276.513 48.6165 277.603 49.0393C278.652 49.4197 270.784 56.6063 262.836 56.6063C254.927 56.6063 256.461 62.6092 253.919 66.6253C251.377 70.6413 245.002 66.6253 239.152 67.6399C233.301 68.6122 230.679 74.6151 224.505 80.618C218.292 86.621 214.459 78.6311 208.528 75.6297C202.597 72.6282 197.271 78.6311 193.559 82.6472C189.847 86.6209 186.781 89.6224 175.645 84.6341C164.509 79.6457 157.085 100.614 157.085 100.614C151.235 99.6413 151.477 95.6253 142.439 98.6268C133.401 101.628 136.185 109.618 132.312 104.63C128.438 99.6413 126.663 98.6268 122.225 101.628C117.827 104.63 115.204 113.634 111.17 113.888C107.135 114.184 102.777 104.63 95.9989 104.63C89.2206 104.63 89.4223 113.634 83.0474 113.888C76.7129 114.184 75.099 119.637 75.0183 106.617C74.9376 93.6385 66.505 99.6414 60.0091 99.6414C53.5535 99.6414 51.2133 94.6107 49.9222 85.6486C48.6311 76.6442 42.6193 77.6166 34.9533 78.6311C27.247 79.6457 27.368 72.6282 26.3997 62.4825C25.4717 52.2944 20.6703 57.6209 16.3935 56.6063C12.0763 55.634 5.41901 64.6384 3.36127 47.602C1.30356 30.6078 -16.8528 36.2725 -16.8528 36.2725C-20.3227 20.2929 -37.551 25.6194 -43.5628 22.618C-49.6149 19.6588 -55.3846 16.2769 -63.0909 22.618C-70.7973 28.9591 -73.1778 33.6092 -78.7054 34.962C-84.233 36.2725 -83.3857 28.2827 -94.683 29.6355C-105.98 30.946 -103.721 42.9518 -115.865 49.6311C-128.01 56.2682 -116.471 42.9518 -125.307 38.9358C-134.102 34.962 -144.472 45.6151 -150.685 54.9576C-156.939 64.3002 -166.098 65.6107 -171.222 54.9576C-176.306 44.3046 -196.641 48.2784 -203.016 48.2784C-209.391 48.2784 -213.183 42.9518 -217.783 37.7944C-222.383 32.6792 -229.726 32.2988 -237.795 36.2725C-245.905 40.2886 -247.559 36.2725 -253.289 25.6195C-255.508 21.4766 -258.372 18.771 -261.641 17.0801C-266.159 25.4926 -270.759 34.3279 -275.318 43.6282C-313.326 120.567 -303.965 168.59 -288.593 195.857L-157.706 200C-157.706 200 324.244 179.793 474.659 170.493C474.861 162.63 473.207 155.274 468.365 149.567C448.232 125.851 427.292 136.039 472.158 68.8658C487.046 46.4606 486.602 23.3789 477.968 1.26957C476.233 2.15733 474.538 3.00281 472.965 3.59465C465.138 6.59611 472.198 -4.39513 466.953 -9.38347Z" fill="url(#paint1_linear_180_494)"/>
<path opacity="0.6" d="M451.117 91.5428C447.153 88.1489 442.122 95.6269 439.561 95.6269C437.03 95.6269 437.061 90.1909 432.548 86.1355C428.005 82.0801 419.01 90.1909 413.094 90.1909C407.148 90.1909 410.35 85.4165 405.715 86.2218C401.05 87.0271 407.484 99.7111 396.11 98.3305C385.499 97.065 385.103 96.9787 385.103 96.9787C385.103 96.9787 384.859 97.065 379.889 99.0208C374.644 101.063 372.845 110.583 369.461 116.709C366.107 122.836 361.32 115.358 355.252 117.4C349.184 119.442 351.196 124.187 345.159 123.526C339.152 122.836 341.836 117.4 335.585 117.4C329.334 117.4 329.578 123.526 325.736 122.836C321.894 122.174 320.187 119.442 314.149 121.484C308.142 123.526 307.197 131.004 308.02 131.292C308.813 131.55 302.867 136.44 296.86 136.44C290.884 136.44 292.043 140.524 290.122 143.256C288.201 145.989 283.383 143.256 278.962 143.947C274.541 144.608 272.559 148.692 267.893 152.777C263.198 156.861 260.301 151.425 255.819 149.383C251.337 147.341 247.312 151.425 244.506 154.157C241.701 156.861 239.384 158.903 230.968 155.509C222.553 152.115 216.942 166.381 216.942 166.381C212.521 165.719 212.704 162.987 205.874 165.029C199.044 167.071 201.147 172.507 198.22 169.113C195.293 165.719 193.951 165.029 190.597 167.071C187.274 169.113 185.292 175.24 182.243 175.412C179.194 175.614 175.9 169.113 170.778 169.113C165.655 169.113 165.808 175.24 160.99 175.412C156.203 175.614 154.983 179.324 154.922 170.465C154.861 161.635 148.488 165.719 143.579 165.719C138.701 165.719 136.932 162.297 135.956 156.199C134.981 150.073 130.438 150.735 124.644 151.425C118.82 152.115 118.912 147.341 118.18 140.438C117.479 133.506 113.85 137.13 110.618 136.44C107.355 135.778 102.324 141.905 100.769 130.314C99.2141 118.751 85.493 122.606 85.493 122.606C82.8707 111.734 69.8508 115.358 65.3075 113.315C60.7338 111.302 56.3735 109.001 50.5496 113.315C44.7257 117.63 42.9267 120.794 38.7494 121.714C34.572 122.606 35.2124 117.17 26.6747 118.09C18.1371 118.982 19.8446 127.15 10.6667 131.694C1.48869 136.21 10.2093 127.15 3.53165 124.418C-3.11552 121.714 -10.9519 128.962 -15.6476 135.318C-20.3737 141.675 -27.2953 142.566 -31.1678 135.318C-35.0097 128.07 -50.3774 130.774 -55.1951 130.774C-60.0128 130.774 -62.879 127.15 -66.355 123.641C-69.8311 120.161 -75.3805 119.902 -81.4788 122.606C-87.6076 125.338 -88.8578 122.606 -93.1876 115.358C-94.8646 112.539 -97.0295 110.698 -99.4993 109.548C-102.914 115.271 -106.39 121.282 -109.836 127.61C-138.559 179.957 -131.485 212.63 -119.868 231.181L-20.9531 234C-20.9531 234 343.269 220.252 456.941 213.924C457.094 208.575 455.844 203.57 452.185 199.687C436.969 183.552 421.144 190.483 455.051 144.781C466.302 129.537 465.967 113.833 459.441 98.7907C458.13 99.3947 456.85 99.9699 455.661 100.373C449.745 102.415 455.081 94.9366 451.117 91.5428Z" fill="url(#paint2_linear_180_494)"/>
<path d="M302.69 105.305C302.69 105.305 322.871 108.122 314.592 125.889C306.254 143.656 341.903 113.699 341.903 113.699L302.69 105.305Z" fill="#879B32"/>
<path d="M256.059 89.8378C264.166 89.3203 275.895 103.752 266.293 105.65C260.946 106.685 258.301 100.015 253.356 100.015C248.469 100.015 245.824 90.5853 256.059 89.8378Z" fill="#8CAD2C"/>
<path d="M240.419 206.73L192.179 164.239C192.179 164.239 226.62 123.991 227.827 116.516C229.035 109.041 238.522 87.9973 253.989 85.6399C263.304 84.2024 267.041 87.5373 267.041 87.5373C267.041 87.5373 278.31 57.581 281.875 51.0263C285.44 44.4715 298.205 29.6946 305.679 26.7047C315.741 22.6224 331.151 23.0823 339.546 29.0046C347.768 34.8694 358.75 51.2562 363.925 58.9609C368.122 65.2857 378.759 86.5599 384.681 91.2747C390.661 95.932 404.92 109.041 409.635 115.596C414.408 122.151 416.765 123.991 416.765 123.991C416.765 123.991 440.569 135.26 454.829 156.765C467.191 175.451 496.572 200.463 504.104 206.73H240.419Z" fill="#8CAD2C"/>
<path d="M304.932 206.73C304.184 196.668 300.447 137.848 314.591 125.888C330.001 112.779 337.131 106.224 337.131 106.224C337.131 106.224 322.871 67.8729 331.208 54.7634C336.556 46.3687 348.458 46.8287 348.458 46.8287C348.458 46.8287 358.52 48.2086 366.282 60.8581C368.869 65.0555 378.701 77.36 391.811 93.5744C400.666 104.556 401.931 105.304 408.485 113.239C413.66 119.563 419.582 124.796 422.112 126.348C433.267 133.19 440.569 135.26 454.828 156.764C467.191 175.451 496.572 200.463 504.104 206.73H304.932Z" fill="#A5C442"/>
<path d="M240.42 206.73L192.179 164.239C192.179 164.239 226.62 123.991 227.828 116.516C227.828 116.516 241.512 110.881 251.574 116.976C263.016 123.876 256.232 138.423 250.424 146.932C237.947 165.159 237.315 178.269 248.009 180.166C258.704 182.006 261.119 168.954 274.171 173.611C282.796 176.659 285.21 194.77 285.843 206.73H240.42Z" fill="#879B32"/>
<path d="M349.032 138.998C337.13 145.553 325.286 138.021 316.948 154.867C309.646 169.702 319.823 199.773 322.353 206.73H304.989C304.586 205.178 303.436 201.901 300.332 195.116C289.005 170.564 293.547 146.185 303.896 136.181C307.519 132.673 314.073 126.406 319.191 121.576C317.351 122.036 316.201 122.324 316.201 122.324C316.201 122.324 321.318 111.744 307.979 108.984C297.342 106.799 298.549 113.239 289.004 115.137C282.507 116.401 277.275 114.217 275.952 107.144C275.205 103.292 274.17 95.0123 270.03 89.8375C268.018 87.4226 258.128 85.6402 258.128 85.6402C258.128 85.6402 264.51 67.7584 277.735 50.5666C291.419 32.7998 300.332 28.5449 300.332 28.5449C302.459 26.705 318.731 22.1627 320.513 24.8076C320.513 24.8076 306.656 31.3048 312.809 39.297C319.938 48.6691 311.256 59.6512 292.569 64.136C278.942 67.4134 280.725 84.4327 293.777 87.9976C307.461 91.7349 316.373 81.5003 320.513 74.4281C320.513 71.7832 324.481 62.6411 325.286 60.3987C330 46.3692 343.11 47.2892 343.11 47.2892C343.11 47.2892 311.026 60.8587 347.25 95.0123C372.606 118.874 360.934 132.443 349.032 138.998Z" fill="#879B32"/>
<path d="M342.248 206.731C342.536 205.753 342.823 204.718 343.111 203.568C347.883 185.859 362.315 203.338 371.572 196.094C379.334 189.999 375.137 180.627 375.137 172.692C375.137 161.825 381.692 149.751 395.089 152.338C403.598 153.948 387.097 137.101 401.356 133.364C411.476 130.719 422.745 152.568 422.745 152.568C422.745 152.568 433.785 174.935 447.067 180.167C460.694 185.514 464.776 196.151 470.986 206.731H342.248Z" fill="#C8DD6F"/>
<path d="M29 206.73C30.8399 203.223 41.4196 183.961 60.8538 175.451C82.243 166.137 95.2949 132.443 111.969 126.808C128.586 121.231 126.804 99.6692 137.498 97.8292C148.193 95.9318 157.68 99.6692 166.592 114.676C171.709 123.243 172.572 139.918 184.416 141.815C196.318 143.655 205.863 151.13 216.558 162.399C226.447 172.749 239.384 202.418 241.224 206.73H29Z" fill="#8CAD2C"/>
<path d="M116.109 168.955C96.9052 170.162 103.115 202.188 104.092 206.731H29.0004C30.8403 203.223 41.42 183.962 60.8542 175.452C82.2434 166.137 95.2953 132.444 111.97 126.809C128.586 121.232 126.804 99.67 137.499 97.8301C125.597 107.145 143.421 112.549 143.421 130.546C143.421 137.101 158.888 166.137 116.109 168.955Z" fill="#879B32"/>
<path d="M128.126 206.73C128.931 203.166 134.681 182.984 156.53 189.539C181.484 197.013 189.764 180.166 183.841 170.794C177.919 161.422 168.375 145.553 184.416 141.815C196.318 143.655 205.806 151.13 216.5 162.4C226.447 172.749 239.384 202.418 241.224 206.73H128.126Z" fill="#A5C442"/>
<path d="M54.8746 163.607C62.6943 160.33 65.3966 190.056 62.5792 195.403C59.7043 200.808 50.6772 200.003 49.3547 193.333C47.6298 184.766 48.2623 166.367 54.8746 163.607Z" fill="#70993A"/>
<path d="M56.025 163.377C62.9822 163.32 65.282 190.343 62.5796 195.403C61.2572 197.876 58.6124 199.026 56.025 198.911V163.377Z" fill="#8AA55E"/>
<path d="M55.2774 206.73V181.316C55.2774 180.971 55.6224 180.741 56.0824 180.741C56.4849 180.741 56.8298 180.971 56.8298 181.316V206.73H55.2774Z" fill="#53633B"/>
<path d="M78.3338 150.037C89.7184 145.84 93.6282 183.616 89.4883 190.343C85.3485 197.186 72.2965 196.208 70.3416 187.756C67.8692 176.831 68.7892 153.545 78.3338 150.037Z" fill="#8AA55E"/>
<path d="M80.1728 149.692C90.1199 149.98 93.3972 183.961 89.4874 190.343C87.59 193.506 83.8526 194.943 80.1728 194.828V149.692Z" fill="#8CAD2C"/>
<path d="M79.3114 206.73V172.576C79.3114 172.116 79.7139 171.771 80.1164 171.771C80.5763 171.771 80.9788 172.116 80.9788 172.576V206.73H79.3114Z" fill="#53633B"/>
</g>
<defs>
<linearGradient id="paint0_linear_180_494" x1="194" y1="0" x2="194" y2="207" gradientUnits="userSpaceOnUse">
<stop stop-color="#66CCFF"/>
<stop offset="1" stop-color="#DCF3FF"/>
</linearGradient>
<linearGradient id="paint1_linear_180_494" x1="-342496" y1="20886" x2="-340749" y2="232580" gradientUnits="userSpaceOnUse">
<stop stop-color="#E6ECF4"/>
<stop offset="1" stop-color="#8DD3DA"/>
</linearGradient>
<linearGradient id="paint2_linear_180_494" x1="-258735" y1="14308" x2="-257665" y2="158339" gradientUnits="userSpaceOnUse">
<stop stop-color="#E6ECF4"/>
<stop offset="1" stop-color="#8DD3DA"/>
</linearGradient>
<clipPath id="clip0_180_494">
<rect width="388" height="207" rx="29" fill="white"/>
</clipPath>
</defs>
</svg>
