<svg width="388" height="207" viewBox="0 0 388 207" fill="none" xmlns="http://www.w3.org/2000/svg">
<g clip-path="url(#clip0_180_517)">
<rect width="388" height="207" rx="29" fill="url(#paint0_linear_180_517)"/>
<path opacity="0.31" d="M466.953 -9.38347C461.708 -14.3718 455.051 -3.38058 451.661 -3.38058C448.313 -3.38058 448.353 -11.3704 442.382 -17.331C436.37 -23.2917 424.467 -11.3704 416.64 -11.3704C408.772 -11.3704 413.009 -18.3879 406.876 -17.2042C400.703 -16.0205 409.216 2.62235 394.166 0.593199C380.125 -1.26686 379.601 -1.39369 379.601 -1.39369C379.601 -1.39369 379.278 -1.26685 372.702 1.60779C365.762 4.60925 363.381 18.602 358.903 27.6063C354.465 36.6107 348.13 25.6194 340.101 28.6209C332.072 31.6224 334.735 38.5976 326.746 37.6253C318.797 36.6107 322.348 28.6209 314.077 28.6209C305.806 28.6209 306.128 37.6253 301.045 36.6107C295.961 35.6384 293.701 31.6224 285.713 34.6238C277.764 37.6253 276.513 48.6165 277.603 49.0393C278.652 49.4197 270.784 56.6063 262.836 56.6063C254.927 56.6063 256.461 62.6092 253.919 66.6253C251.377 70.6413 245.002 66.6253 239.152 67.6399C233.301 68.6122 230.679 74.6151 224.505 80.618C218.292 86.621 214.459 78.6311 208.528 75.6297C202.597 72.6282 197.271 78.6311 193.559 82.6472C189.847 86.6209 186.781 89.6224 175.645 84.6341C164.509 79.6457 157.085 100.614 157.085 100.614C151.235 99.6413 151.477 95.6253 142.439 98.6268C133.401 101.628 136.185 109.618 132.312 104.63C128.438 99.6413 126.663 98.6268 122.225 101.628C117.827 104.63 115.204 113.634 111.17 113.888C107.135 114.184 102.777 104.63 95.9989 104.63C89.2206 104.63 89.4223 113.634 83.0474 113.888C76.7129 114.184 75.099 119.637 75.0183 106.617C74.9376 93.6385 66.505 99.6414 60.0091 99.6414C53.5535 99.6414 51.2133 94.6107 49.9222 85.6486C48.6311 76.6442 42.6193 77.6166 34.9533 78.6311C27.247 79.6457 27.368 72.6282 26.3997 62.4825C25.4717 52.2944 20.6703 57.6209 16.3935 56.6063C12.0763 55.634 5.41901 64.6384 3.36127 47.602C1.30356 30.6078 -16.8528 36.2725 -16.8528 36.2725C-20.3227 20.2929 -37.551 25.6194 -43.5628 22.618C-49.6149 19.6588 -55.3846 16.2769 -63.0909 22.618C-70.7973 28.9591 -73.1778 33.6092 -78.7054 34.962C-84.233 36.2725 -83.3857 28.2827 -94.683 29.6355C-105.98 30.946 -103.721 42.9518 -115.865 49.6311C-128.01 56.2682 -116.471 42.9518 -125.307 38.9358C-134.102 34.962 -144.472 45.6151 -150.685 54.9576C-156.939 64.3002 -166.098 65.6107 -171.222 54.9576C-176.306 44.3046 -196.641 48.2784 -203.016 48.2784C-209.391 48.2784 -213.183 42.9518 -217.783 37.7944C-222.383 32.6792 -229.726 32.2988 -237.795 36.2725C-245.905 40.2886 -247.559 36.2725 -253.289 25.6195C-255.508 21.4766 -258.372 18.771 -261.641 17.0801C-266.159 25.4926 -270.759 34.3279 -275.318 43.6282C-313.326 120.567 -303.965 168.59 -288.593 195.857L-157.706 200C-157.706 200 324.244 179.793 474.659 170.493C474.861 162.63 473.207 155.274 468.365 149.567C448.232 125.851 427.292 136.039 472.158 68.8658C487.046 46.4606 486.602 23.3789 477.968 1.26957C476.233 2.15733 474.538 3.00281 472.965 3.59465C465.138 6.59611 472.198 -4.39513 466.953 -9.38347Z" fill="url(#paint1_linear_180_517)"/>
<path opacity="0.6" d="M451.117 91.5428C447.153 88.1489 442.122 95.6269 439.561 95.6269C437.03 95.6269 437.061 90.1909 432.548 86.1355C428.005 82.0801 419.01 90.1909 413.094 90.1909C407.148 90.1909 410.35 85.4165 405.715 86.2218C401.05 87.0271 407.484 99.7111 396.11 98.3305C385.499 97.065 385.103 96.9787 385.103 96.9787C385.103 96.9787 384.859 97.065 379.889 99.0208C374.644 101.063 372.845 110.583 369.461 116.709C366.107 122.836 361.32 115.358 355.252 117.4C349.184 119.442 351.196 124.187 345.159 123.526C339.152 122.836 341.836 117.4 335.585 117.4C329.334 117.4 329.578 123.526 325.736 122.836C321.894 122.174 320.187 119.442 314.149 121.484C308.142 123.526 307.197 131.004 308.02 131.292C308.813 131.55 302.867 136.44 296.86 136.44C290.884 136.44 292.043 140.524 290.122 143.256C288.201 145.989 283.383 143.256 278.962 143.947C274.541 144.608 272.559 148.692 267.893 152.777C263.198 156.861 260.301 151.425 255.819 149.383C251.337 147.341 247.312 151.425 244.506 154.157C241.701 156.861 239.384 158.903 230.968 155.509C222.553 152.115 216.942 166.381 216.942 166.381C212.521 165.719 212.704 162.987 205.874 165.029C199.044 167.071 201.147 172.507 198.22 169.113C195.293 165.719 193.951 165.029 190.597 167.071C187.274 169.113 185.292 175.24 182.243 175.412C179.194 175.614 175.9 169.113 170.778 169.113C165.655 169.113 165.808 175.24 160.99 175.412C156.203 175.614 154.983 179.324 154.922 170.465C154.861 161.635 148.488 165.719 143.579 165.719C138.701 165.719 136.932 162.297 135.956 156.199C134.981 150.073 130.438 150.735 124.644 151.425C118.82 152.115 118.912 147.341 118.18 140.438C117.479 133.506 113.85 137.13 110.618 136.44C107.355 135.778 102.324 141.905 100.769 130.314C99.2141 118.751 85.493 122.606 85.493 122.606C82.8707 111.734 69.8508 115.358 65.3075 113.315C60.7338 111.302 56.3735 109.001 50.5496 113.315C44.7257 117.63 42.9267 120.794 38.7494 121.714C34.572 122.606 35.2124 117.17 26.6747 118.09C18.1371 118.982 19.8446 127.15 10.6667 131.694C1.48869 136.21 10.2093 127.15 3.53165 124.418C-3.11552 121.714 -10.9519 128.962 -15.6476 135.318C-20.3737 141.675 -27.2953 142.566 -31.1678 135.318C-35.0097 128.07 -50.3774 130.774 -55.1951 130.774C-60.0128 130.774 -62.879 127.15 -66.355 123.641C-69.8311 120.161 -75.3805 119.902 -81.4788 122.606C-87.6076 125.338 -88.8578 122.606 -93.1876 115.358C-94.8646 112.539 -97.0295 110.698 -99.4993 109.548C-102.914 115.271 -106.39 121.282 -109.836 127.61C-138.559 179.957 -131.485 212.63 -119.868 231.181L-20.9531 234C-20.9531 234 343.269 220.252 456.941 213.924C457.094 208.575 455.844 203.57 452.185 199.687C436.969 183.552 421.144 190.483 455.051 144.781C466.302 129.537 465.967 113.833 459.441 98.7907C458.13 99.3947 456.85 99.9699 455.661 100.373C449.745 102.415 455.081 94.9366 451.117 91.5428Z" fill="url(#paint2_linear_180_517)"/>
<path d="M-82 234.44V122.206C116 100.806 418 152.306 418 152.306V234.44H-82Z" fill="url(#paint3_linear_180_517)"/>
<path style="mix-blend-mode:screen" opacity="0.2" d="M81.3333 124.34C67.3333 129.073 52 129.073 38 134.373C102.367 123.673 167.933 126.973 233 128.306C134.4 118.573 13.9667 111.84 -82 122.206V130.706C-71.9667 128.006 -60.6333 127.84 -50.6667 126.706C-6.66666 121.406 38 119.64 81.3333 124.34Z" fill="url(#paint4_linear_180_517)"/>
<path style="mix-blend-mode:multiply" opacity="0.2" d="M211.567 126.273C70 116.806 -66 141.04 -82 145.906V234.44H418V152.306C418 152.306 326.7 136.74 211.567 126.273Z" fill="url(#paint5_linear_180_517)"/>
<path d="M17.0507 122C64.8927 130.762 30.838 131.82 21.4812 146.533C5.77633 171.164 168.71 203.5 206.17 203.5C232.257 203.5 324.105 203.5 324.105 203.5V171.164C76.134 167.66 32.9209 155.757 37.1199 146.632C42.4761 134.961 72.2657 128.282 19.828 122C10.9341 122 17.0507 122 17.0507 122Z" fill="url(#paint6_linear_180_517)"/>
<path style="mix-blend-mode:multiply" opacity="0.3" d="M176.215 167.164C136.606 175.529 96.4343 176.389 56.2961 168.454C43.8975 166.205 32.9537 161.643 23.0349 155.691C43.1701 178.472 173.206 203.5 206.17 203.5C232.256 203.5 324.105 203.5 324.105 203.5V171.165C262.707 170.305 214.27 168.917 176.215 167.164Z" fill="url(#paint7_linear_180_517)"/>
<path opacity="0.4" d="M23.1342 146.533C32.4909 131.82 66.5457 130.762 18.7368 122C17.6457 122 17.0506 122 17.0506 122C64.8925 130.762 30.8378 131.82 21.481 146.533C5.77618 171.164 168.71 203.5 206.17 203.5C206.699 203.5 207.25 203.5 207.823 203.5C170.363 203.5 7.42932 171.164 23.1342 146.533Z" fill="#E08500"/>
<path d="M67.8665 149.906C65.9665 149.872 65.7665 148.272 65.7665 146.372C66.6998 148.139 67.7998 145.572 68.9331 146.806C68.5665 146.006 68.2331 145.239 68.3665 144.406C68.5665 143.839 69.1665 142.939 69.7665 143.972C69.7331 143.706 69.6331 143.472 69.5998 143.206C69.6331 143.139 70.1665 140.972 71.3665 140.272C72.5998 139.572 73.2331 141.272 73.2331 141.272C73.2331 141.272 73.4998 139.539 74.4665 139.339C75.4331 139.106 75.8331 141.506 75.8331 141.506C75.8331 141.506 76.8331 140.039 77.8998 139.272C77.8998 139.272 78.8998 141.039 78.6331 142.272C78.6331 142.272 79.0331 141.439 79.8665 140.772C79.8665 140.772 80.6998 141.072 80.6665 142.772C80.6665 142.772 81.3331 140.239 82.3331 140.139C83.2998 140.006 83.6665 141.639 83.6665 141.639C83.6665 141.639 84.4331 141.106 85.4331 141.439C86.4665 141.772 85.2665 144.639 85.2665 144.639C85.2665 144.639 85.6331 144.306 86.7331 143.872C87.8331 143.472 88.1331 145.206 88.1331 145.206C88.1331 145.206 90.0665 144.039 91.5665 144.239C91.5665 144.239 92.4331 145.906 90.8665 147.306C90.8665 147.306 93.1998 147.306 94.1331 148.306C93.7331 149.672 90.1665 149.639 90.1665 149.639L65.8665 152.672C65.2665 151.306 66.5665 149.839 67.8665 149.906Z" fill="url(#paint8_linear_180_517)"/>
<g style="mix-blend-mode:multiply" opacity="0.3">
<path d="M91.0329 150.473C92.5996 149.073 91.7329 147.407 91.7329 147.407C92.1663 149.34 90.1996 149.54 89.5329 149.64C88.4996 150.14 88.2996 151.607 87.1996 151.407C86.7663 151.073 86.6996 150.34 86.2663 150.04C85.9996 150.807 85.7329 151.573 85.4329 151.973C83.9663 152.173 83.3329 150.04 82.0329 151.307C81.9663 150.94 81.1996 150.673 81.5329 150.273C80.8663 150.707 80.2329 151.54 79.4329 151.273C79.0329 150.94 79.2663 149.807 78.8663 149.507C78.0996 149.207 78.3329 151.04 77.5329 150.773C75.9996 150.207 76.0663 150.573 75.4996 149.173C75.1996 149.573 74.9329 150.34 74.5996 150.773C74.5329 150.04 74.0663 149.34 73.5996 148.673C73.7329 149.773 72.2996 149.94 72.7996 150.973C72.3329 150.307 72.1996 149.207 72.1329 148.507C71.7996 148.907 71.1329 149.34 70.7663 149.407C70.0329 148.84 68.3996 147.007 69.3996 146.673C68.9996 146.64 68.6663 147.173 68.5329 147.573C68.3996 148.407 68.7329 149.173 69.0996 149.973C67.9663 148.74 66.8663 151.307 65.9329 149.54C65.9329 151.44 66.1329 153.04 68.0329 153.073C66.7329 153.007 65.4329 154.473 66.0329 155.84L90.3329 152.807C90.3329 152.807 93.8996 152.84 94.2996 151.473C93.3663 150.473 91.0329 150.473 91.0329 150.473Z" fill="#4A900C"/>
</g>
<g style="mix-blend-mode:screen" opacity="0.5">
<path d="M73.4661 142.673C73.4327 141.673 72.7994 141.206 72.2994 141.306C71.8327 141.373 71.9994 143.506 71.9994 143.506C71.9994 143.506 70.7327 143.673 70.9661 144.473C71.1994 145.273 73.3327 143.973 73.3327 143.973C73.3327 143.973 72.9994 145.306 73.7661 145.106C74.5661 144.906 74.7327 144.173 74.7327 144.173C74.7327 144.173 74.9661 146.24 76.3994 146.24C77.8327 146.206 77.2661 144.34 77.2661 144.34C77.3661 145.306 78.1994 145.84 78.1994 145.84C78.0994 145.34 79.0994 144.873 78.9661 144.473C78.9661 144.473 79.8994 146.573 80.4327 146.206C80.9994 145.84 80.8327 145.006 80.8327 145.006C80.8327 145.006 82.0661 146.84 82.4994 146.573C82.9327 146.34 82.6994 145.34 82.6994 145.34C82.6994 145.34 83.8327 147.44 85.1661 146.64C86.5327 145.806 84.3327 144.34 84.3327 144.34C84.3327 144.34 85.4327 143.473 84.5994 142.906C83.7327 142.306 82.8327 143.506 82.8327 143.506C82.8327 143.506 83.2994 142.173 82.7994 142.173C82.2994 142.173 81.3327 143.706 81.3327 143.706C81.3327 143.706 81.2327 142.673 80.7661 142.64C80.2994 142.606 79.9661 143.506 79.9661 143.506C79.9661 143.506 78.9661 141.506 78.2327 141.506C77.4661 141.506 77.1661 143.606 77.1661 143.606C77.1661 143.606 75.9994 142.473 75.6327 142.54C75.2661 142.573 75.3327 143.606 75.3327 143.606C74.7327 143.04 74.6661 141.573 74.6661 141.573C73.7327 141.906 73.4661 142.673 73.4661 142.673Z" fill="#4A900C"/>
</g>
<path d="M169.369 280.812H372.677V69.8506H169.369V280.812Z" fill="#DE6767"/>
<path d="M437.232 88.4883V257.094H372.676V88.4883H437.232Z" fill="#D15454"/>
<path d="M104.87 88.4876L86 73.2979H175.736L176.905 88.4876H104.87Z" fill="#B53E3E"/>
<path d="M104.871 88.4883V257.094H169.369V88.4883H104.871Z" fill="#D15454"/>
<path d="M104.871 165.312V172.791H163.585V165.312H104.871Z" fill="#F0DBBE"/>
<path d="M323.953 73.3568H86V67.1641H323.953V73.3568Z" fill="#B5B7C7"/>
<path d="M134.082 113.901C129.174 113.901 125.202 117.874 125.202 122.782V149.363H142.904V122.782C142.904 117.874 138.931 113.901 134.082 113.901Z" fill="#666775"/>
<path fill-rule="evenodd" clip-rule="evenodd" d="M145.123 151.526H123.039V122.782C123.039 116.648 127.947 111.74 134.081 111.74C140.157 111.74 145.123 116.648 145.123 122.782V151.526ZM127.363 147.144H140.741V122.724C140.741 119.043 137.762 116.063 134.081 116.063C130.401 116.063 127.363 119.043 127.363 122.724V147.144Z" fill="#F0DBBE"/>
<path fill-rule="evenodd" clip-rule="evenodd" d="M142.611 148.838H125.376V122.899C125.376 118.166 129.232 114.311 134.023 114.311C138.755 114.311 142.611 118.166 142.611 122.899V148.838ZM127.947 146.267H140.04V122.899C140.04 119.569 137.353 116.823 134.023 116.823C130.634 116.823 127.947 119.569 127.947 122.899V146.267Z" fill="#AD8E77"/>
<path d="M142.904 137.329H125.202V135.868H142.904V137.329Z" fill="#F0DBBE"/>
<path d="M134.783 149.363H133.322V113.901H134.783V149.363Z" fill="#F0DBBE"/>
<path d="M134.082 197.328C129.174 197.328 125.202 201.301 125.202 206.208V232.79H142.904V206.208C142.904 201.301 138.931 197.328 134.082 197.328Z" fill="#666775"/>
<path fill-rule="evenodd" clip-rule="evenodd" d="M145.123 235.01H123.039V206.208C123.039 200.132 127.947 195.166 134.081 195.166C140.157 195.166 145.123 200.132 145.123 206.208V235.01ZM127.363 230.628H140.741V206.266C140.741 202.586 137.762 199.548 134.081 199.548C130.401 199.548 127.363 202.586 127.363 206.266V230.628Z" fill="#F0DBBE"/>
<path fill-rule="evenodd" clip-rule="evenodd" d="M142.611 232.265H125.376V206.325C125.376 201.593 129.232 197.737 134.023 197.737C138.755 197.737 142.611 201.593 142.611 206.325V232.265ZM127.947 229.753H140.04V206.325C140.04 202.995 137.353 200.308 134.023 200.308C130.634 200.308 127.947 202.995 127.947 206.325V229.753Z" fill="#AD8E77"/>
<path d="M134.783 232.79H133.322V197.328H134.783V232.79Z" fill="#F0DBBE"/>
<path d="M437.233 88.4876L456.103 73.2979H367.36L370.982 88.4876H437.233Z" fill="#B53E3E"/>
<path d="M245.433 196.218H296.728V211.407H245.433V196.218Z" fill="#BA4B4B"/>
<path d="M209.796 182.08C217.04 182.08 222.883 187.922 222.883 195.167V234.426H196.709V195.167C196.709 187.922 202.552 182.08 209.796 182.08Z" fill="#666775"/>
<path fill-rule="evenodd" clip-rule="evenodd" d="M226.096 237.639H193.497V195.167C193.497 186.17 200.8 178.809 209.797 178.809C218.793 178.809 226.096 186.17 226.096 195.167V237.639ZM199.923 231.155H219.67V195.108C219.67 189.675 215.23 185.293 209.797 185.293C204.363 185.293 199.923 189.675 199.923 195.108V231.155Z" fill="#F0DBBE"/>
<path fill-rule="evenodd" clip-rule="evenodd" d="M222.649 233.666H197.177V195.341C197.177 188.331 202.903 182.605 209.913 182.605C216.924 182.605 222.649 188.331 222.649 195.341V233.666ZM200.975 229.869H218.852V195.341C218.852 190.434 214.821 186.403 209.913 186.403C204.947 186.403 200.975 190.434 200.975 195.341V229.869Z" fill="#AD8E77"/>
<path d="M210.906 234.426H208.745V182.08H210.906V234.426Z" fill="#F0DBBE"/>
<path d="M333.3 182.08C340.486 182.08 346.387 187.922 346.387 195.167V234.426H320.214V195.167C320.214 187.922 326.056 182.08 333.3 182.08Z" fill="#666775"/>
<path fill-rule="evenodd" clip-rule="evenodd" d="M349.601 237.639H316.943V195.167C316.943 186.17 324.304 178.809 333.301 178.809C342.298 178.809 349.601 186.17 349.601 195.167V237.639ZM323.428 231.155H343.116V195.108C343.116 189.675 338.734 185.293 333.301 185.293C327.809 185.293 323.428 189.675 323.428 195.108V231.155Z" fill="#F0DBBE"/>
<path fill-rule="evenodd" clip-rule="evenodd" d="M346.095 233.666H320.682V195.341C320.682 188.331 326.349 182.605 333.359 182.605C340.37 182.605 346.095 188.331 346.095 195.341V233.666ZM324.421 229.869H342.298V195.341C342.298 190.434 338.325 186.403 333.359 186.403C328.452 186.403 324.421 190.434 324.421 195.341V229.869Z" fill="#AD8E77"/>
<path d="M334.353 234.426H332.191V182.08H334.353V234.426Z" fill="#F0DBBE"/>
<path d="M364.264 172.791H174.626V165.312H364.264V172.791Z" fill="#F0DBBE"/>
<path d="M437.233 165.312V172.791H378.518V165.312H437.233Z" fill="#F0DBBE"/>
<path d="M271.023 14L150.148 56.4727H391.898L271.023 14Z" fill="#E8D4B7"/>
<path d="M184.909 56.2391L271.023 25.9766L357.196 56.2391H184.909Z" fill="#DBB37B"/>
<path d="M270.731 159.237L216.457 191.837H325.005L270.731 159.237Z" fill="#E8C799"/>
<path d="M225.804 188.741L270.73 162.977L315.657 188.741H225.804Z" fill="#DBB37B"/>
<path d="M162.299 90.4746H177.255L178.891 257.094H160.663L162.299 90.4746Z" fill="#E8C799"/>
<path d="M365.199 90.4746H380.155L381.791 257.094H363.563L365.199 90.4746Z" fill="#E8C799"/>
<path d="M320.214 200.249H221.306L216.457 196.218H325.005L320.214 200.249Z" fill="#DBB37B"/>
<path d="M370.983 78.9072H178.891V82.5294H370.983V78.9072Z" fill="#F0DBBE"/>
<path d="M370.983 139.373H178.891V143.054H370.983V139.373Z" fill="#F0DBBE"/>
<path d="M171.998 86.9102C171.998 79.3737 165.63 73.2979 157.86 73.2979C150.09 73.2979 143.78 79.3737 143.78 86.9102C143.78 94.4466 150.09 100.581 157.86 100.581C165.63 100.581 171.998 94.4466 171.998 86.9102Z" fill="#E8C799"/>
<path d="M195.774 86.9102C195.774 79.3737 189.465 73.2979 181.695 73.2979C173.866 73.2979 167.557 79.3737 167.557 86.9102C167.557 94.4466 173.866 100.581 181.695 100.581C189.465 100.581 195.774 94.4466 195.774 86.9102Z" fill="#E8C799"/>
<path d="M158.035 72.5391H181.52C186.428 72.5391 190.459 76.5117 190.459 81.4776C190.459 86.4435 186.428 90.4746 181.52 90.4746H158.035C153.069 90.4746 149.096 86.4435 149.096 81.4776C149.096 76.5117 153.069 72.5391 158.035 72.5391Z" fill="#E8C799"/>
<path d="M374.896 86.9102C374.896 79.3737 368.587 73.2979 360.758 73.2979C352.988 73.2979 346.679 79.3737 346.679 86.9102C346.679 94.4466 352.988 100.581 360.758 100.581C368.587 100.581 374.896 94.4466 374.896 86.9102Z" fill="#E8C799"/>
<path d="M398.674 86.9102C398.674 79.3737 392.364 73.2979 384.594 73.2979C376.824 73.2979 370.515 79.3737 370.515 86.9102C370.515 94.4466 376.824 100.581 384.594 100.581C392.364 100.581 398.674 94.4466 398.674 86.9102Z" fill="#E8C799"/>
<path d="M360.934 72.5391H384.419C389.385 72.5391 393.358 76.5117 393.358 81.4776C393.358 86.4435 389.385 90.4746 384.419 90.4746H360.934C356.026 90.4746 351.995 86.4435 351.995 81.4776C351.995 76.5117 356.026 72.5391 360.934 72.5391Z" fill="#E8C799"/>
<path d="M209.796 88.4883C217.04 88.4883 222.883 94.3305 222.883 101.575V140.834H196.709V101.575C196.709 94.3305 202.552 88.4883 209.796 88.4883Z" fill="#666775"/>
<path fill-rule="evenodd" clip-rule="evenodd" d="M226.096 144.048H193.497V101.575C193.497 92.578 200.8 85.2168 209.797 85.2168C218.793 85.2168 226.096 92.578 226.096 101.575V144.048ZM199.923 137.563H219.67V101.517C219.67 96.0833 215.23 91.7016 209.797 91.7016C204.363 91.7016 199.923 96.0833 199.923 101.517V137.563Z" fill="#F0DBBE"/>
<path d="M190.05 150.883V140.834H229.309V150.883H220.254V147.494H198.521V150.883H190.05Z" fill="#F0DBBE"/>
<path fill-rule="evenodd" clip-rule="evenodd" d="M222.649 140.074H197.177V101.75C197.177 94.739 202.903 89.0137 209.913 89.0137C216.924 89.0137 222.649 94.739 222.649 101.75V140.074ZM200.975 136.335H218.852V101.75C218.852 96.8422 214.821 92.8111 209.913 92.8111C204.947 92.8111 200.975 96.8422 200.975 101.75V136.335Z" fill="#AD8E77"/>
<path d="M222.883 123.015H196.709V120.854H222.883V123.015Z" fill="#F0DBBE"/>
<path d="M210.906 140.834H208.745V88.4883H210.906V140.834Z" fill="#F0DBBE"/>
<path d="M270.906 88.4883C278.092 88.4883 283.993 94.3305 283.993 101.575V140.834H257.82V101.575C257.82 94.3305 263.662 88.4883 270.906 88.4883Z" fill="#666775"/>
<path fill-rule="evenodd" clip-rule="evenodd" d="M287.206 144.048H254.548V101.575C254.548 92.578 261.909 85.2168 270.906 85.2168C279.903 85.2168 287.206 92.578 287.206 101.575V144.048ZM261.033 137.563H280.721V101.517C280.721 96.0833 276.339 91.7016 270.906 91.7016C265.473 91.7016 261.033 96.0833 261.033 101.517V137.563Z" fill="#F0DBBE"/>
<path d="M251.1 150.883V140.834H290.36V150.883H281.304V147.494H259.63V150.883H251.1Z" fill="#F0DBBE"/>
<path fill-rule="evenodd" clip-rule="evenodd" d="M283.701 140.074H258.287V101.75C258.287 94.739 263.954 89.0137 270.965 89.0137C277.975 89.0137 283.701 94.739 283.701 101.75V140.074ZM262.026 136.335H279.961V101.75C279.961 96.8422 275.93 92.8111 270.965 92.8111C266.057 92.8111 262.026 96.8422 262.026 101.75V136.335Z" fill="#AD8E77"/>
<path d="M283.993 123.015H257.82V120.854H283.993V123.015Z" fill="#F0DBBE"/>
<path d="M271.958 140.834H269.796V88.4883H271.958V140.834Z" fill="#F0DBBE"/>
<path d="M331.664 88.4883C338.908 88.4883 344.751 94.3305 344.751 101.575V140.834H318.578V101.575C318.578 94.3305 324.42 88.4883 331.664 88.4883Z" fill="#666775"/>
<path fill-rule="evenodd" clip-rule="evenodd" d="M347.964 144.048H315.365V101.575C315.365 92.578 322.668 85.2168 331.665 85.2168C340.662 85.2168 347.964 92.578 347.964 101.575V144.048ZM321.791 137.563H341.538V101.517C341.538 96.0833 337.098 91.7016 331.665 91.7016C326.231 91.7016 321.791 96.0833 321.791 101.517V137.563Z" fill="#F0DBBE"/>
<path d="M311.918 150.883V140.834H351.177V150.883H342.122V147.494H320.389V150.883H311.918Z" fill="#F0DBBE"/>
<path fill-rule="evenodd" clip-rule="evenodd" d="M344.518 140.074H319.046V101.75C319.046 94.739 324.771 89.0137 331.782 89.0137C338.792 89.0137 344.518 94.739 344.518 101.75V140.074ZM322.843 136.335H340.72V101.75C340.72 96.8422 336.689 92.8111 331.782 92.8111C326.816 92.8111 322.843 96.8422 322.843 101.75V136.335Z" fill="#AD8E77"/>
<path d="M344.751 123.015H318.578V120.854H344.751V123.015Z" fill="#F0DBBE"/>
<path d="M332.774 140.834H330.613V88.4883H332.774V140.834Z" fill="#F0DBBE"/>
<path d="M232.757 200.132H248.881C252.503 200.132 255.424 203.111 255.424 206.675C255.424 210.297 252.503 213.218 248.881 213.218H232.757C229.134 213.218 226.213 210.297 226.213 206.675C226.213 203.111 229.134 200.132 232.757 200.132Z" fill="#E8C799"/>
<path d="M292.288 200.132H308.412C312.035 200.132 314.956 203.111 314.956 206.675C314.956 210.297 312.035 213.218 308.412 213.218H292.288C288.724 213.218 285.745 210.297 285.745 206.675C285.745 203.111 288.724 200.132 292.288 200.132Z" fill="#E8C799"/>
<path d="M325.005 191.837H216.457V196.219H325.005V191.837Z" fill="#E8C799"/>
<path d="M218.151 73.3568H456.103V67.1641H218.151V73.3568Z" fill="#B5B7C7"/>
<path d="M387.048 73.3563H155.055V66.3457H387.048V73.3563Z" fill="#DBB37B"/>
<path d="M387.049 67.1645H155.055L150.148 60.3291H391.898L387.049 67.1645Z" fill="#E8C799"/>
<path d="M391.898 56.2393H150.148V60.3288H391.898V56.2393Z" fill="#E8D4B7"/>
<path d="M176.963 82.4115C175.386 83.171 174.451 84.8068 174.276 86.501C174.101 88.1952 174.86 89.8311 175.97 91.0579C177.255 92.4016 179.008 93.1027 180.761 93.3948C182.689 93.6869 184.909 93.6869 186.603 92.8106C189.641 91.2332 190.459 87.2605 189.991 84.1641C189.699 82.4115 188.94 80.7172 187.596 79.6072C186.252 78.4388 184.558 77.9714 182.806 77.7377C180.761 77.504 178.658 77.5625 176.554 77.5625C174.101 77.5625 171.647 77.5625 169.193 77.5625C169.193 78.4583 169.193 79.3541 169.193 80.2499C169.855 80.2499 170.537 80.2499 171.238 80.2499C171.238 79.3541 171.238 78.4583 171.238 77.5625C169.057 77.5625 166.856 77.5625 164.636 77.5625C162.708 77.5625 160.78 77.504 158.853 77.6209C157.158 77.7377 155.406 77.9714 153.887 78.8477C152.309 79.7241 151.258 81.1846 150.673 82.9373C149.739 85.9168 150.265 90.0063 152.777 92.1095C154.296 93.3364 156.224 93.5701 158.093 93.5116C159.963 93.4532 161.891 93.0443 163.409 91.9343C164.987 90.7658 166.155 89.0131 166.155 87.0852C166.214 85.1573 165.162 83.2294 163.468 82.4115C162.767 82.1194 162.007 82.2362 161.598 82.8789C161.248 83.4631 161.423 84.3978 162.066 84.7483C163.001 85.1573 163.526 86.0336 163.468 87.0852C163.468 88.1368 162.767 89.0716 161.89 89.7142C160.722 90.5905 159.262 90.8242 157.859 90.8242C156.574 90.8826 155.23 90.8242 154.296 89.8895C152.718 88.2537 152.601 85.2741 153.419 83.2294C154.471 80.7172 157.217 80.3667 159.67 80.3083C163.526 80.1914 167.382 80.2499 171.238 80.2499C172.991 80.2499 172.991 77.5625 171.238 77.5625C170.537 77.5625 169.855 77.5625 169.193 77.5625C167.441 77.5625 167.441 80.2499 169.193 80.2499C172.699 80.2499 176.223 80.2499 179.768 80.2499C182.046 80.2499 185.201 80.2499 186.545 82.4699C187.83 84.3978 187.771 87.3189 186.545 89.3053C185.902 90.2984 184.967 90.7074 183.74 90.8242C182.28 90.9411 180.702 90.8827 179.359 90.1816C178.19 89.6558 177.197 88.6626 176.963 87.4358C176.788 86.3257 177.314 85.2157 178.307 84.7483C178.95 84.3978 179.125 83.4631 178.774 82.8789C178.424 82.2362 177.606 82.1194 176.963 82.4115Z" fill="#FFF2E0"/>
<path d="M379.454 82.4115C377.876 83.171 376.941 84.8068 376.766 86.501C376.591 88.1952 377.292 89.8311 378.46 91.0579C379.746 92.4016 381.44 93.1027 383.251 93.3948C385.12 93.6869 387.341 93.6869 389.093 92.8106C392.131 91.2332 392.949 87.2605 392.482 84.1641C392.19 82.4115 391.43 80.7172 390.086 79.6072C388.684 78.4388 387.048 77.9714 385.296 77.7377C383.251 77.504 381.148 77.5625 379.045 77.5625C376.591 77.5625 374.118 77.5625 371.625 77.5625C371.625 78.4583 371.625 79.3541 371.625 80.2499C372.326 80.2499 373.027 80.2499 373.728 80.2499C373.728 79.3541 373.728 78.4583 373.728 77.5625C371.508 77.5625 369.308 77.5625 367.127 77.5625C365.199 77.5625 363.271 77.504 361.284 77.6209C359.59 77.7377 357.896 77.9714 356.377 78.8477C354.8 79.7241 353.689 81.1846 353.164 82.9373C352.229 85.9168 352.755 90.0063 355.267 92.1095C356.786 93.3364 358.655 93.5701 360.583 93.5116C362.453 93.4532 364.381 93.0443 365.9 91.9343C367.477 90.7658 368.646 89.0131 368.646 87.0852C368.704 85.1573 367.652 83.2294 365.9 82.4115C365.257 82.1194 364.498 82.2362 364.089 82.8789C363.738 83.4631 363.913 84.3978 364.556 84.7483C365.491 85.1573 366.016 86.0336 365.958 87.0852C365.958 88.1368 365.257 89.0716 364.381 89.7142C363.212 90.5905 361.752 90.8242 360.35 90.8242C359.064 90.8826 357.721 90.8242 356.786 89.8895C355.208 88.2537 355.092 85.2741 355.909 83.2294C356.961 80.7172 359.707 80.3667 362.161 80.3083C366.016 80.1914 369.872 80.2499 373.728 80.2499C375.481 80.2499 375.481 77.5625 373.728 77.5625C373.027 77.5625 372.326 77.5625 371.625 77.5625C369.931 77.5625 369.931 80.2499 371.625 80.2499C375.169 80.2499 378.694 80.2499 382.199 80.2499C384.536 80.2499 387.633 80.2499 389.035 82.4699C390.262 84.3978 390.262 87.3189 389.035 89.3053C388.392 90.2984 387.399 90.7074 386.23 90.8242C384.77 90.9411 383.193 90.8827 381.79 90.1816C380.68 89.6558 379.687 88.6626 379.454 87.4358C379.22 86.3257 379.804 85.2157 380.797 84.7483C381.44 84.3978 381.615 83.4631 381.265 82.8789C380.914 82.2362 380.096 82.1194 379.454 82.4115Z" fill="#FFF2E0"/>
<path d="M303.797 204.865C302.161 205.683 302.103 207.844 303.213 209.13C304.381 210.532 306.835 210.941 308.529 210.298C310.048 209.655 310.691 207.727 310.516 206.15C310.34 204.222 309.114 202.878 307.186 202.528C306.076 202.353 304.966 202.411 303.856 202.411C302.492 202.411 301.149 202.392 299.824 202.353C299.824 202.82 299.824 203.287 299.824 203.755C300.175 203.755 300.526 203.755 300.876 203.755C300.876 203.287 300.876 202.82 300.876 202.353C298.714 202.411 296.436 202.236 294.274 202.469C292.405 202.586 290.769 203.521 290.302 205.449C290.01 207.026 290.302 209.013 291.704 209.947C293.164 210.999 295.735 210.649 297.079 209.597C298.598 208.37 298.831 205.858 296.903 204.865C296.144 204.456 295.443 205.624 296.261 206.033C296.962 206.442 297.137 207.26 296.728 207.961C296.261 208.721 295.326 209.071 294.508 209.13C293.749 209.246 292.755 209.246 292.23 208.604C291.704 208.02 291.529 207.202 291.587 206.501C291.587 205.683 291.879 204.806 292.58 204.339C293.223 203.872 294.099 203.813 294.917 203.755C296.903 203.696 298.89 203.755 300.876 203.755C301.811 203.755 301.811 202.353 300.876 202.353C300.526 202.353 300.175 202.353 299.824 202.353C298.948 202.353 298.948 203.755 299.824 203.755C301.811 203.755 303.797 203.755 305.783 203.755C306.543 203.813 307.419 203.872 308.062 204.281C308.821 204.748 309.172 205.624 309.172 206.501C309.23 207.202 309.055 207.961 308.588 208.545C308.062 209.188 307.127 209.188 306.368 209.13C305.491 209.071 304.557 208.779 304.031 207.961C303.622 207.318 303.797 206.442 304.498 206.033C305.316 205.624 304.615 204.456 303.797 204.865Z" fill="#FFF2E0"/>
<path d="M244.266 204.864C242.63 205.682 242.513 207.843 243.623 209.129C244.792 210.531 247.245 210.94 248.939 210.297C250.517 209.654 251.101 207.726 250.984 206.149C250.751 204.221 249.582 202.877 247.596 202.527C246.486 202.352 245.376 202.41 244.266 202.41C242.941 202.41 241.617 202.391 240.293 202.352C240.293 202.819 240.293 203.286 240.293 203.754C240.644 203.754 240.994 203.754 241.345 203.754C241.345 203.286 241.345 202.819 241.345 202.352C239.125 202.41 236.905 202.235 234.685 202.468C232.815 202.585 231.179 203.52 230.77 205.448C230.42 207.025 230.77 209.012 232.114 209.946C233.575 210.998 236.145 210.648 237.489 209.596C239.008 208.369 239.3 205.857 237.372 204.864C236.554 204.455 235.853 205.623 236.671 206.032C237.43 206.441 237.547 207.259 237.138 207.96C236.671 208.72 235.795 209.07 234.918 209.129C234.159 209.245 233.166 209.245 232.64 208.603C232.114 208.019 231.997 207.201 231.997 206.5C232.056 205.682 232.289 204.805 232.99 204.338C233.691 203.871 234.509 203.812 235.327 203.754C237.314 203.695 239.358 203.754 241.345 203.754C242.221 203.754 242.221 202.352 241.345 202.352C240.994 202.352 240.644 202.352 240.293 202.352C239.417 202.352 239.417 203.754 240.293 203.754C242.221 203.754 244.207 203.754 246.194 203.754C246.953 203.812 247.829 203.871 248.531 204.28C249.29 204.747 249.582 205.623 249.582 206.5C249.641 207.201 249.465 207.96 249.056 208.544C248.531 209.187 247.596 209.187 246.778 209.129C245.902 209.07 244.967 208.778 244.499 207.96C244.032 207.317 244.207 206.441 244.967 206.032C245.726 205.623 245.025 204.455 244.266 204.864Z" fill="#FFF2E0"/>
<path d="M240.235 53.0839C239.884 52.227 239.514 51.3507 239.125 50.4549C238.774 49.598 238.424 48.7217 238.073 47.8259C237.995 47.6312 237.878 47.3585 237.723 47.008C237.606 46.6185 237.469 46.1901 237.314 45.7227C237.197 45.2164 237.08 44.7101 236.963 44.2037C236.963 44.8269 236.963 45.3916 236.963 45.898C237.002 46.4432 237.002 46.9496 236.963 47.4169C236.963 47.6506 236.963 47.8843 236.963 48.118C236.963 48.3906 236.963 48.6438 236.963 48.8775C236.963 49.1112 236.963 49.3449 236.963 49.5786C236.963 49.8122 236.963 50.0654 236.963 50.338C236.963 50.6107 236.963 50.8833 236.963 51.1559C236.924 51.4286 236.905 51.6233 236.905 51.7402C237.06 51.7402 237.275 51.7402 237.547 51.7402C237.82 51.7012 237.995 51.6817 238.073 51.6817V52.9086H234.451V51.857C234.685 51.857 234.899 51.8375 235.094 51.7986C235.249 51.7207 235.366 51.5844 235.444 51.3896C235.561 51.2338 235.619 50.9417 235.619 50.5133L235.678 44.379C235.678 44.0674 235.697 43.7948 235.736 43.5611C235.736 43.2884 235.736 43.0742 235.736 42.9184C235.58 42.9184 235.366 42.9379 235.094 42.9769C234.86 42.9769 234.685 42.9769 234.568 42.9769V41.75H238.073L240.527 47.9427C240.605 48.1764 240.702 48.449 240.819 48.7606C240.936 49.1112 241.053 49.4422 241.169 49.7538C241.247 50.0264 241.325 50.2601 241.403 50.4549C241.559 50.0654 241.695 49.6954 241.812 49.3449C241.929 48.9943 242.046 48.6633 242.163 48.3517C242.591 47.2222 243 46.1122 243.39 45.0216C243.818 43.9311 244.227 42.8405 244.616 41.75H248.355V42.8016C248.122 42.8016 247.908 42.8405 247.713 42.9184C247.518 42.9574 247.382 43.0742 247.304 43.269C247.226 43.4637 247.187 43.7753 247.187 44.2037L247.421 50.338C247.46 50.6107 247.46 50.8833 247.421 51.1559C247.382 51.4286 247.362 51.6233 247.362 51.7402C247.557 51.7402 247.771 51.7402 248.005 51.7402C248.278 51.7012 248.472 51.6817 248.589 51.6817V52.9086H244.149V51.857C244.383 51.857 244.577 51.8375 244.733 51.7986C244.928 51.7207 245.064 51.5844 245.142 51.3896C245.259 51.2338 245.298 50.9417 245.259 50.5133L245.142 47.1248C245.142 46.969 245.123 46.7353 245.084 46.4238C245.084 46.1122 245.064 45.7616 245.025 45.3722C245.025 45.0216 245.025 44.6711 245.025 44.3206C244.986 44.3985 244.947 44.4764 244.908 44.5543C244.87 44.6322 244.85 44.7101 244.85 44.7879L241.695 53.0839H240.235Z" fill="#AD8E61"/>
<path d="M254.255 42.8016C254.022 42.8016 253.808 42.8405 253.613 42.9184C253.457 42.9574 253.34 43.0742 253.262 43.269C253.145 43.4637 253.087 43.7753 253.087 44.2037V48.5854C253.087 49.2475 253.165 49.7928 253.321 50.2212C253.477 50.6496 253.671 51.0002 253.905 51.2728C254.139 51.5065 254.411 51.6817 254.723 51.7986C255.034 51.9154 255.346 51.9738 255.658 51.9738C256.242 52.0128 256.748 51.896 257.177 51.6233C257.566 51.3896 257.878 51.0196 258.111 50.5133C258.345 50.007 258.462 49.3449 258.462 48.5269V44.379C258.462 44.0674 258.462 43.7948 258.462 43.5611C258.462 43.2884 258.481 43.0742 258.52 42.9184C258.365 42.9184 258.15 42.9379 257.878 42.9769C257.605 42.9769 257.41 42.9769 257.293 42.9769V41.75H261.032V42.8016C260.799 42.8016 260.585 42.8405 260.39 42.9184C260.234 42.9574 260.117 43.0742 260.039 43.269C259.922 43.4637 259.864 43.7753 259.864 44.2037V48.1764C259.864 49.1112 259.747 49.8901 259.513 50.5133C259.319 51.1754 259.007 51.7012 258.579 52.0907C258.189 52.4802 257.722 52.7528 257.177 52.9086C256.631 53.1033 256.047 53.2007 255.424 53.2007C254.528 53.2007 253.769 53.0644 253.145 52.7918C252.561 52.5581 252.094 52.2075 251.743 51.7402C251.393 51.2728 251.14 50.747 250.984 50.1628C250.867 49.5786 250.809 48.9359 250.809 48.2348V44.379C250.809 44.0674 250.809 43.7948 250.809 43.5611C250.848 43.2884 250.867 43.0742 250.867 42.9184C250.672 42.9184 250.458 42.9379 250.224 42.9769C249.952 42.9769 249.757 42.9769 249.64 42.9769V41.75H254.255V42.8016Z" fill="#AD8E61"/>
<path d="M268.627 45.314C268.549 44.7298 268.393 44.243 268.16 43.8535C267.887 43.4251 267.576 43.1135 267.225 42.9187C266.836 42.724 266.388 42.6266 265.881 42.6266C265.414 42.6266 265.005 42.7629 264.654 43.0356C264.343 43.2693 264.187 43.6003 264.187 44.0288C264.187 44.3403 264.265 44.6324 264.421 44.9051C264.616 45.1388 264.908 45.353 265.297 45.5477C265.687 45.7814 266.173 46.0151 266.758 46.2488C267.147 46.4046 267.556 46.5993 267.985 46.833C268.413 47.0277 268.802 47.2809 269.153 47.5925C269.542 47.8651 269.854 48.1962 270.088 48.5857C270.282 48.9751 270.38 49.4425 270.38 49.9878C270.38 50.611 270.224 51.1562 269.912 51.6236C269.562 52.1299 269.075 52.5194 268.452 52.792C267.829 53.0647 267.108 53.201 266.29 53.201C265.862 53.201 265.414 53.1231 264.947 52.9673C264.44 52.8505 263.973 52.6557 263.544 52.3831V53.0842H262.318V49.3451H263.369C263.525 50.2409 263.876 50.9225 264.421 51.3899C264.966 51.8183 265.609 52.0326 266.349 52.0326C266.738 52.0326 267.069 51.9741 267.342 51.8573C267.653 51.7015 267.887 51.5068 268.043 51.2731C268.199 51.0394 268.277 50.7862 268.277 50.5136C268.277 50.163 268.14 49.8709 267.868 49.6372C267.595 49.3646 267.264 49.1504 266.875 48.9946C266.485 48.8388 266.096 48.6635 265.706 48.4688C265.2 48.2741 264.732 48.0599 264.304 47.8262C263.837 47.5925 263.447 47.3198 263.135 47.0083C262.785 46.6967 262.532 46.3267 262.376 45.8982C262.181 45.5088 262.084 45.0609 262.084 44.5545C262.084 44.204 262.142 43.8535 262.259 43.5029C262.415 43.1524 262.629 42.8214 262.902 42.5098C263.174 42.1982 263.564 41.945 264.07 41.7503C264.538 41.5945 265.122 41.5166 265.823 41.5166C266.251 41.5166 266.719 41.575 267.225 41.6919C267.731 41.8087 268.16 42.0035 268.51 42.2761L268.452 41.575H269.737V45.314H268.627Z" fill="#AD8E61"/>
<path d="M277.215 49.1112C277.215 48.6438 277.137 48.3127 276.982 48.118C276.826 47.9233 276.631 47.8064 276.397 47.7675C276.164 47.6896 275.91 47.6506 275.638 47.6506L275.229 47.709V50.338C275.229 50.6107 275.209 50.8833 275.17 51.1559C275.17 51.3896 275.17 51.5844 275.17 51.7402H277.274C277.585 51.7402 277.897 51.6623 278.208 51.5065C278.52 51.3507 278.773 51.117 278.968 50.8054C279.163 50.4549 279.26 49.9875 279.26 49.4033H280.253L280.195 52.9086H271.782V51.857C272.016 51.857 272.21 51.8375 272.366 51.7986C272.522 51.7207 272.658 51.5844 272.775 51.3896C272.853 51.2338 272.892 50.9417 272.892 50.5133V44.379C272.892 44.0674 272.892 43.7948 272.892 43.5611C272.931 43.2884 272.95 43.0742 272.95 42.9184C272.795 42.9184 272.58 42.9379 272.308 42.9769C272.074 42.9769 271.899 42.9769 271.782 42.9769V41.75H279.727L279.844 44.8464H278.793C278.793 44.2622 278.695 43.8142 278.5 43.5027C278.306 43.23 278.053 43.0353 277.741 42.9184C277.429 42.8016 277.137 42.7627 276.865 42.8016H276.28C276.047 42.8016 275.852 42.8211 275.696 42.86C275.54 42.9379 275.424 43.0742 275.346 43.269C275.268 43.4637 275.229 43.7753 275.229 44.2037V46.599H277.098L277.04 45.1969H278.267V49.1112H277.215Z" fill="#AD8E61"/>
<path d="M285.92 42.8016C285.687 42.8016 285.492 42.8405 285.336 42.9184C285.142 42.9574 285.005 43.0742 284.927 43.269C284.849 43.4637 284.81 43.7753 284.81 44.2037V48.5854C284.81 49.2475 284.888 49.7928 285.044 50.2212C285.161 50.6496 285.336 51.0002 285.57 51.2728C285.843 51.5065 286.115 51.6817 286.388 51.7986C286.699 51.9154 287.011 51.9738 287.323 51.9738C287.907 52.0128 288.413 51.896 288.842 51.6233C289.27 51.3896 289.582 51.0196 289.776 50.5133C290.01 50.007 290.127 49.3449 290.127 48.5269V44.379C290.127 44.0674 290.146 43.7948 290.185 43.5611C290.185 43.2884 290.185 43.0742 290.185 42.9184C290.029 42.9184 289.815 42.9379 289.543 42.9769C289.309 42.9769 289.134 42.9769 289.017 42.9769V41.75H292.697V42.8016C292.464 42.8016 292.269 42.8405 292.113 42.9184C291.918 42.9574 291.782 43.0742 291.704 43.269C291.626 43.4637 291.587 43.7753 291.587 44.2037V48.1764C291.587 49.1112 291.471 49.8901 291.237 50.5133C291.003 51.1754 290.692 51.7012 290.302 52.0907C289.874 52.4802 289.387 52.7528 288.842 52.9086C288.296 53.1033 287.712 53.2007 287.089 53.2007C286.193 53.2007 285.453 53.0644 284.869 52.7918C284.246 52.5581 283.759 52.2075 283.408 51.7402C283.097 51.2728 282.863 50.747 282.707 50.1628C282.551 49.5786 282.474 48.9359 282.474 48.2348V44.379C282.474 44.0674 282.493 43.7948 282.532 43.5611C282.532 43.2884 282.532 43.0742 282.532 42.9184C282.376 42.9184 282.162 42.9379 281.889 42.9769C281.656 42.9769 281.48 42.9769 281.364 42.9769V41.75H285.92V42.8016Z" fill="#AD8E61"/>
<path d="M299.591 53.0839C299.241 52.227 298.89 51.3507 298.54 50.4549C298.189 49.598 297.819 48.7217 297.43 47.8259C297.352 47.6312 297.254 47.3585 297.137 47.008C296.982 46.6185 296.845 46.1901 296.728 45.7227C296.573 45.2164 296.436 44.7101 296.319 44.2037C296.319 44.8269 296.339 45.3916 296.378 45.898C296.378 46.4432 296.378 46.9496 296.378 47.4169C296.378 47.6506 296.378 47.8843 296.378 48.118C296.378 48.3906 296.378 48.6438 296.378 48.8775C296.339 49.1112 296.319 49.3449 296.319 49.5786C296.319 49.8122 296.319 50.0654 296.319 50.338C296.319 50.6107 296.319 50.8833 296.319 51.1559C296.319 51.4286 296.3 51.6233 296.261 51.7402C296.456 51.7402 296.67 51.7402 296.904 51.7402C297.176 51.7012 297.371 51.6817 297.488 51.6817V52.9086H293.807V51.857C294.08 51.857 294.294 51.8375 294.45 51.7986C294.606 51.7207 294.742 51.5844 294.859 51.3896C294.937 51.2338 294.976 50.9417 294.976 50.5133L295.093 44.379C295.093 44.0674 295.093 43.7948 295.093 43.5611C295.093 43.2884 295.112 43.0742 295.151 42.9184C294.956 42.9184 294.742 42.9379 294.508 42.9769C294.236 42.9769 294.041 42.9769 293.924 42.9769V41.75H297.488L299.883 47.9427C299.961 48.1764 300.059 48.449 300.175 48.7606C300.292 49.1112 300.409 49.4422 300.526 49.7538C300.643 50.0264 300.721 50.2601 300.76 50.4549C300.915 50.0654 301.052 49.6954 301.169 49.3449C301.285 48.9943 301.402 48.6633 301.519 48.3517C301.947 47.2222 302.376 46.1122 302.804 45.0216C303.194 43.9311 303.603 42.8405 304.031 41.75H307.712V42.8016C307.478 42.8016 307.264 42.8405 307.069 42.9184C306.913 42.9574 306.777 43.0742 306.66 43.269C306.582 43.4637 306.543 43.7753 306.543 44.2037L306.777 50.338C306.816 50.6107 306.816 50.8833 306.777 51.1559C306.777 51.4286 306.758 51.6233 306.719 51.7402C306.913 51.7402 307.147 51.7402 307.42 51.7402C307.653 51.7012 307.829 51.6817 307.945 51.6817V52.9086H303.505V51.857C303.739 51.857 303.953 51.8375 304.148 51.7986C304.304 51.7207 304.44 51.5844 304.557 51.3896C304.635 51.2338 304.654 50.9417 304.615 50.5133L304.499 47.1248C304.499 46.969 304.499 46.7353 304.499 46.4238C304.46 46.1122 304.44 45.7616 304.44 45.3722C304.401 45.0216 304.382 44.6711 304.382 44.3206C304.343 44.3985 304.304 44.4764 304.265 44.5543C304.265 44.6322 304.245 44.7101 304.206 44.7879L301.11 53.0839H299.591Z" fill="#AD8E61"/>
<path d="M229.718 48.1189C229.718 47.301 229.075 46.7168 228.316 46.7168C227.557 46.7168 226.914 47.301 226.914 48.1189C226.914 48.8784 227.557 49.5211 228.316 49.5211C229.075 49.5211 229.718 48.8784 229.718 48.1189Z" fill="#AD8E61"/>
<path d="M314.956 48.1189C314.956 47.301 314.313 46.7168 313.553 46.7168C312.794 46.7168 312.151 47.301 312.151 48.1189C312.151 48.8784 312.794 49.5211 313.553 49.5211C314.313 49.5211 314.956 48.8784 314.956 48.1189Z" fill="#AD8E61"/>

<path d="M-53 153.444L-18.1767 144L15.3485 148.7C15.3485 148.7 57.96 162.173 65.7035 165.798C73.4022 169.468 98.6021 184.015 106.972 185.448C115.342 186.925 130.829 194.176 130.829 194.176L143.72 209.484V226H-53V153.444Z" fill="url(#paint9_linear_180_517)"/>
<path d="M14.7666 182.404C10.6487 177.704 3.71091 182.404 -0.407013 177.704C-6.00201 167.678 -8.86665 155.593 -12.6712 144.761L-18.1767 144L-53 153.444V226H143.72V209.484L143.094 208.723C100.572 204.56 48.9185 219.331 14.7666 182.404Z" fill="url(#paint10_linear_180_517)"/>
<g style="mix-blend-mode:screen" opacity="0.7">
<path d="M105.853 212.169C82.8914 203.53 61.7647 188.625 37.0572 185.761C46.9939 223.18 80.3401 212.169 105.853 212.169Z" fill="#5F6267"/>
</g>
<g style="mix-blend-mode:screen" opacity="0.7">
<path d="M130.829 194.176C130.829 194.176 115.343 186.925 106.972 185.448C106.256 185.358 105.406 185.09 104.511 184.821C100.796 197.13 105.182 209.753 117.67 207.738C117.67 209.932 117.67 214.363 117.67 214.363C126.935 216.109 134.992 215.124 143.72 214.631V209.484L130.829 194.176Z" fill="#5F6267"/>
</g>
<path d="M109.165 206.306C111.403 207.693 114.223 208.275 117.67 207.738C117.67 209.931 117.67 214.362 117.67 214.362C126.935 216.108 134.992 215.123 143.72 214.631V209.484L141.124 206.395C130.65 209.126 119.594 207.604 109.165 206.306Z" fill="url(#paint11_linear_180_517)"/>
<g style="mix-blend-mode:screen" opacity="0.7">
<path d="M69.687 167.813C68.0757 167.007 66.7329 166.291 65.7034 165.798C57.9599 162.173 15.3484 148.7 15.3484 148.7L-6.09161 145.701C5.6355 157.965 22.0624 168.171 35.0428 174.437C52.723 183.3 76.3563 189.969 99.9448 192.162C90.7242 183.479 79.0419 177.481 69.687 167.813Z" fill="#5F6267"/>
</g>
<g style="mix-blend-mode:screen" opacity="0.7">
<path d="M71.567 169.648C70.9403 169.066 70.3137 168.484 69.687 167.813C68.0757 167.007 66.7329 166.291 65.7034 165.798C57.9599 162.173 15.3484 148.7 15.3484 148.7L-6.09161 145.701C1.60711 153.758 11.3648 160.92 20.8091 166.649C37.3256 171.035 54.4687 172.02 71.567 169.648Z" fill="#5F6267"/>
</g>
<g style="mix-blend-mode:multiply" opacity="0.3">
<path d="M-6.09161 145.701C-6.09161 145.701 14.8561 180.883 59.3475 184.06C25.688 174.437 -6.09161 145.701 -6.09161 145.701Z" fill="#5F6267"/>
</g>
<g style="mix-blend-mode:multiply" opacity="0.3">
<path d="M37.0572 185.761C37.0572 185.761 38.6238 204.963 51.9175 211.408C65.2112 217.809 105.853 212.169 105.853 212.169C105.853 212.169 73.089 216.914 54.9164 209.886C41.3541 204.202 37.0572 185.761 37.0572 185.761Z" fill="#5F6267"/>
</g>
<path d="M-22.7424 151.609L-2.82424 181.599C-2.82424 181.599 10.6485 183.299 12.7075 185.761C14.7664 188.223 35.3113 203.039 35.3113 203.039C35.3113 203.039 11.3199 187.731 8.23148 187.596C5.09828 187.462 -3.67468 185.761 -3.67468 185.761L-22.7424 151.609Z" fill="url(#paint12_linear_180_517)"/>
</g>
<defs>
<linearGradient id="paint0_linear_180_517" x1="194" y1="0" x2="194" y2="207" gradientUnits="userSpaceOnUse">
<stop stop-color="#F2A8FF"/>
<stop offset="1" stop-color="#EBD5FF"/>
</linearGradient>
<linearGradient id="paint1_linear_180_517" x1="-342496" y1="20886" x2="-340749" y2="232580" gradientUnits="userSpaceOnUse">
<stop stop-color="#E6ECF4"/>
<stop offset="1" stop-color="#8DD3DA"/>
</linearGradient>
<linearGradient id="paint2_linear_180_517" x1="-258735" y1="14308" x2="-257665" y2="158339" gradientUnits="userSpaceOnUse">
<stop stop-color="#E6ECF4"/>
<stop offset="1" stop-color="#8DD3DA"/>
</linearGradient>
<linearGradient id="paint3_linear_180_517" x1="-148634" y1="109.254" x2="-148634" y2="81052.8" gradientUnits="userSpaceOnUse">
<stop stop-color="#8FCC0A"/>
<stop offset="0.38" stop-color="#4A900C"/>
<stop offset="1" stop-color="#6F7C15"/>
</linearGradient>
<linearGradient id="paint4_linear_180_517" x1="-93678.7" y1="115.856" x2="-93678.7" y2="7654.75" gradientUnits="userSpaceOnUse">
<stop stop-color="#CCD600"/>
<stop offset="1" stop-color="#4A900C"/>
</linearGradient>
<linearGradient id="paint5_linear_180_517" x1="-77022.2" y1="122.718" x2="-77022.2" y2="38321.2" gradientUnits="userSpaceOnUse">
<stop stop-color="#CCD600"/>
<stop offset="1" stop-color="#4A900C"/>
</linearGradient>
<linearGradient id="paint6_linear_180_517" x1="-130752" y1="-184024" x2="-426217" y2="-332938" gradientUnits="userSpaceOnUse">
<stop stop-color="#E08500"/>
<stop offset="1" stop-color="#FCDC9D"/>
</linearGradient>
<linearGradient id="paint7_linear_180_517" x1="-118703" y1="-193947" x2="-385934" y2="-328631" gradientUnits="userSpaceOnUse">
<stop stop-color="#E08500"/>
<stop offset="1" stop-color="#FCDC9D"/>
</linearGradient>
<linearGradient id="paint8_linear_180_517" x1="28158.7" y1="-6104.63" x2="28298.9" y2="-7755.82" gradientUnits="userSpaceOnUse">
<stop stop-color="#004911"/>
<stop offset="0.72" stop-color="#8FCC0A"/>
</linearGradient>
<linearGradient id="paint9_linear_180_517" x1="-3204.96" y1="79004.7" x2="85442.4" y2="72464.9" gradientUnits="userSpaceOnUse">
<stop stop-color="#736C5D"/>
<stop offset="1" stop-color="#978A7B"/>
</linearGradient>
<linearGradient id="paint10_linear_180_517" x1="-3204.96" y1="79004.7" x2="85442.4" y2="72464.9" gradientUnits="userSpaceOnUse">
<stop stop-color="#736C5D"/>
<stop offset="1" stop-color="#978A7B"/>
</linearGradient>
<linearGradient id="paint11_linear_180_517" x1="11104.3" y1="8861.13" x2="13772.7" y2="8861.13" gradientUnits="userSpaceOnUse">
<stop stop-color="#736C5D"/>
<stop offset="1" stop-color="#978A7B"/>
</linearGradient>
<linearGradient id="paint12_linear_180_517" x1="1336.57" y1="43024" x2="8871.02" y2="43024" gradientUnits="userSpaceOnUse">
<stop stop-color="#736C5D"/>
<stop offset="1" stop-color="#978A7B"/>
</linearGradient>
<clipPath id="clip0_180_517">
<rect width="388" height="207" rx="29" fill="white"/>
</clipPath>
</defs>
</svg>
