<svg width="388" height="207" viewBox="0 0 388 207" fill="none" xmlns="http://www.w3.org/2000/svg">
<g clip-path="url(#clip0_180_3465)">
<rect width="388" height="207" rx="29" fill="url(#paint0_linear_180_3465)"/>
<path opacity="0.31" d="M466.953 -9.38347C461.708 -14.3718 455.051 -3.38058 451.661 -3.38058C448.313 -3.38058 448.353 -11.3704 442.382 -17.331C436.37 -23.2917 424.467 -11.3704 416.64 -11.3704C408.772 -11.3704 413.009 -18.3879 406.876 -17.2042C400.703 -16.0205 409.216 2.62235 394.166 0.593199C380.125 -1.26686 379.601 -1.39369 379.601 -1.39369C379.601 -1.39369 379.278 -1.26685 372.702 1.60779C365.762 4.60925 363.381 18.602 358.903 27.6063C354.465 36.6107 348.13 25.6194 340.101 28.6209C332.072 31.6224 334.735 38.5976 326.746 37.6253C318.797 36.6107 322.348 28.6209 314.077 28.6209C305.806 28.6209 306.128 37.6253 301.045 36.6107C295.961 35.6384 293.701 31.6224 285.713 34.6238C277.764 37.6253 276.513 48.6165 277.603 49.0393C278.652 49.4197 270.784 56.6063 262.836 56.6063C254.927 56.6063 256.461 62.6092 253.919 66.6253C251.377 70.6413 245.002 66.6253 239.152 67.6399C233.301 68.6122 230.679 74.6151 224.505 80.618C218.292 86.621 214.459 78.6311 208.528 75.6297C202.597 72.6282 197.271 78.6311 193.559 82.6472C189.847 86.6209 186.781 89.6224 175.645 84.6341C164.509 79.6457 157.085 100.614 157.085 100.614C151.235 99.6413 151.477 95.6253 142.439 98.6268C133.401 101.628 136.185 109.618 132.312 104.63C128.438 99.6413 126.663 98.6268 122.225 101.628C117.827 104.63 115.204 113.634 111.17 113.888C107.135 114.184 102.777 104.63 95.9989 104.63C89.2206 104.63 89.4223 113.634 83.0474 113.888C76.7129 114.184 75.099 119.637 75.0183 106.617C74.9376 93.6385 66.505 99.6414 60.0091 99.6414C53.5535 99.6414 51.2133 94.6107 49.9222 85.6486C48.6311 76.6442 42.6193 77.6166 34.9533 78.6311C27.247 79.6457 27.368 72.6282 26.3997 62.4825C25.4717 52.2944 20.6703 57.6209 16.3935 56.6063C12.0763 55.634 5.41901 64.6384 3.36127 47.602C1.30356 30.6078 -16.8528 36.2725 -16.8528 36.2725C-20.3227 20.2929 -37.551 25.6194 -43.5628 22.618C-49.6149 19.6588 -55.3846 16.2769 -63.0909 22.618C-70.7973 28.9591 -73.1778 33.6092 -78.7054 34.962C-84.233 36.2725 -83.3857 28.2827 -94.683 29.6355C-105.98 30.946 -103.721 42.9518 -115.865 49.6311C-128.01 56.2682 -116.471 42.9518 -125.307 38.9358C-134.102 34.962 -144.472 45.6151 -150.685 54.9576C-156.939 64.3002 -166.098 65.6107 -171.222 54.9576C-176.306 44.3046 -196.641 48.2784 -203.016 48.2784C-209.391 48.2784 -213.183 42.9518 -217.783 37.7944C-222.383 32.6792 -229.726 32.2988 -237.795 36.2725C-245.905 40.2886 -247.559 36.2725 -253.289 25.6195C-255.508 21.4766 -258.372 18.771 -261.641 17.0801C-266.159 25.4926 -270.759 34.3279 -275.318 43.6282C-313.326 120.567 -303.965 168.59 -288.593 195.857L-157.706 200C-157.706 200 324.244 179.793 474.659 170.493C474.861 162.63 473.207 155.274 468.365 149.567C448.232 125.851 427.292 136.039 472.158 68.8658C487.046 46.4606 486.602 23.3789 477.968 1.26957C476.233 2.15733 474.538 3.00281 472.965 3.59465C465.138 6.59611 472.198 -4.39513 466.953 -9.38347Z" fill="url(#paint1_linear_180_3465)"/>
<path opacity="0.6" d="M451.117 91.5428C447.153 88.1489 442.122 95.6269 439.561 95.6269C437.03 95.6269 437.061 90.1909 432.548 86.1355C428.005 82.0801 419.01 90.1909 413.094 90.1909C407.148 90.1909 410.35 85.4165 405.715 86.2218C401.05 87.0271 407.484 99.7111 396.11 98.3305C385.499 97.065 385.103 96.9787 385.103 96.9787C385.103 96.9787 384.859 97.065 379.889 99.0208C374.644 101.063 372.845 110.583 369.461 116.709C366.107 122.836 361.32 115.358 355.252 117.4C349.184 119.442 351.196 124.187 345.159 123.526C339.152 122.836 341.836 117.4 335.585 117.4C329.334 117.4 329.578 123.526 325.736 122.836C321.894 122.174 320.187 119.442 314.149 121.484C308.142 123.526 307.197 131.004 308.02 131.292C308.813 131.55 302.867 136.44 296.86 136.44C290.884 136.44 292.043 140.524 290.122 143.256C288.201 145.989 283.383 143.256 278.962 143.947C274.541 144.608 272.559 148.692 267.893 152.777C263.198 156.861 260.301 151.425 255.819 149.383C251.337 147.341 247.312 151.425 244.506 154.157C241.701 156.861 239.384 158.903 230.968 155.509C222.553 152.115 216.942 166.381 216.942 166.381C212.521 165.719 212.704 162.987 205.874 165.029C199.044 167.071 201.147 172.507 198.22 169.113C195.293 165.719 193.951 165.029 190.597 167.071C187.274 169.113 185.292 175.24 182.243 175.412C179.194 175.614 175.9 169.113 170.778 169.113C165.655 169.113 165.808 175.24 160.99 175.412C156.203 175.614 154.983 179.324 154.922 170.465C154.861 161.635 148.488 165.719 143.579 165.719C138.701 165.719 136.932 162.297 135.956 156.199C134.981 150.073 130.438 150.735 124.644 151.425C118.82 152.115 118.912 147.341 118.18 140.438C117.479 133.506 113.85 137.13 110.618 136.44C107.355 135.778 102.324 141.905 100.769 130.314C99.2141 118.751 85.493 122.606 85.493 122.606C82.8707 111.734 69.8508 115.358 65.3075 113.315C60.7338 111.302 56.3735 109.001 50.5496 113.315C44.7257 117.63 42.9267 120.794 38.7494 121.714C34.572 122.606 35.2124 117.17 26.6747 118.09C18.1371 118.982 19.8446 127.15 10.6667 131.694C1.48869 136.21 10.2093 127.15 3.53165 124.418C-3.11552 121.714 -10.9519 128.962 -15.6476 135.318C-20.3737 141.675 -27.2953 142.566 -31.1678 135.318C-35.0097 128.07 -50.3774 130.774 -55.1951 130.774C-60.0128 130.774 -62.879 127.15 -66.355 123.641C-69.8311 120.161 -75.3805 119.902 -81.4788 122.606C-87.6076 125.338 -88.8578 122.606 -93.1876 115.358C-94.8646 112.539 -97.0295 110.698 -99.4993 109.548C-102.914 115.271 -106.39 121.282 -109.836 127.61C-138.559 179.957 -131.485 212.63 -119.868 231.181L-20.9531 234C-20.9531 234 343.269 220.252 456.941 213.924C457.094 208.575 455.844 203.57 452.185 199.687C436.969 183.552 421.144 190.483 455.051 144.781C466.302 129.537 465.967 113.833 459.441 98.7907C458.13 99.3947 456.85 99.9699 455.661 100.373C449.745 102.415 455.081 94.9366 451.117 91.5428Z" fill="url(#paint2_linear_180_3465)"/>
<path d="M207.692 8.33548C208.217 7.86889 208.859 7.16902 209.5 6.52747C210.2 5.88591 210.783 5.24435 211.25 4.77776C211.716 4.31118 212.008 4.01953 212.008 4.01953C212.008 4.01953 212.358 4.48616 212.825 5.30269V12.4764C212.747 12.4375 212.689 12.3987 212.65 12.3598C211.192 11.5433 209.792 10.7267 208.684 10.1435C207.634 9.56026 206.876 9.15202 206.876 9.15202C206.876 9.15202 207.226 8.80207 207.692 8.33548Z" fill="#D81F29"/>
<path d="M212.883 20.9327C212.883 20.9327 211.425 17.9582 209.909 14.9837C208.393 12.0675 206.876 9.15137 206.876 9.15137C206.876 9.15137 205.535 10.4345 204.193 11.7176C203.552 12.3592 202.852 12.9423 202.327 13.4089C201.802 13.8755 201.452 14.2255 201.452 14.2255C201.452 14.2255 204.31 15.9169 207.168 17.6083C210.026 19.2996 212.883 20.9327 212.883 20.9327Z" fill="#FEFEFE"/>
<path d="M207.168 26.1819C207.168 26.1819 205.768 23.1491 204.368 20.1746C202.91 17.2001 201.452 14.2256 201.452 14.2256C201.452 14.2256 200.111 15.4504 198.711 16.7335C197.311 17.9583 195.911 19.1831 195.911 19.1831C195.911 19.1831 198.711 20.9328 201.51 22.6825C204.368 24.4322 207.168 26.1819 207.168 26.1819Z" fill="#D81F29"/>
<path d="M201.335 31.2556C201.335 31.2556 199.993 28.2228 198.652 25.19C197.31 22.2155 195.91 19.1826 195.91 19.1826C195.91 19.1826 194.511 20.4075 193.111 21.6322C191.711 22.857 190.253 24.0235 190.253 24.0235C190.253 24.0235 192.994 25.8315 195.794 27.6978C198.593 29.4475 201.335 31.2556 201.335 31.2556Z" fill="#FEFEFE"/>
<path d="M195.444 36.214C195.444 36.214 194.161 33.1812 192.878 30.0901C191.537 27.0572 190.254 24.0244 190.254 24.0244C190.254 24.0244 188.796 25.2492 187.396 26.4157C186.696 27.0572 185.938 27.6405 185.413 28.0487C184.83 28.5153 184.48 28.8069 184.48 28.8069C184.48 28.8069 187.221 30.6733 189.962 32.5396C192.703 34.406 195.444 36.214 195.444 36.214Z" fill="#D81F29"/>
<path d="M189.437 41.0555C189.437 41.0555 188.212 37.9644 186.987 34.9316C185.704 31.8404 184.479 28.8076 184.479 28.8076C184.479 28.8076 183.021 29.9741 181.563 31.1406C180.863 31.7238 180.105 32.3071 179.58 32.7153C178.997 33.1819 178.647 33.4735 178.647 33.4735C178.647 33.4735 181.33 35.3398 184.013 37.2645C186.695 39.1892 189.437 41.0555 189.437 41.0555Z" fill="#FEFEFE"/>
<path d="M183.314 45.7799C183.314 45.7799 182.148 42.6887 180.981 39.5976C179.815 36.5065 178.648 33.4736 178.648 33.4736L172.699 37.9646C172.699 37.9646 175.324 39.9475 178.007 41.8722C180.631 43.8552 183.314 45.7799 183.314 45.7799Z" fill="#D81F29"/>
<path d="M177.189 50.3857C177.189 50.3857 176.897 49.6276 176.489 48.4611C176.08 47.2946 175.497 45.7199 174.972 44.2035C173.806 41.054 172.698 37.9629 172.698 37.9629C172.698 37.9629 172.289 38.2545 171.765 38.6627C171.181 39.071 170.423 39.6542 169.665 40.1791C168.148 41.2873 166.632 42.3955 166.632 42.3955C166.632 42.3955 169.257 44.3785 171.881 46.4198C174.506 48.4028 177.189 50.3857 177.189 50.3857Z" fill="#FEFEFE"/>
<path d="M170.889 54.8777C170.889 54.8777 169.839 51.7282 168.789 48.6371C167.681 45.4876 166.631 42.3965 166.631 42.3965C166.631 42.3965 165.115 43.4463 163.599 44.5544C162.84 45.0793 162.082 45.6042 161.499 46.0125C160.916 46.4208 160.566 46.7124 160.566 46.7124C160.566 46.7124 163.132 48.8121 165.698 50.8534C168.264 52.8364 170.889 54.8777 170.889 54.8777Z" fill="#D81F29"/>
<path d="M164.532 59.2515C164.532 59.2515 163.541 56.102 162.549 52.9525C161.558 49.803 160.566 46.7119 160.566 46.7119L154.326 50.8529C154.326 50.8529 156.892 52.9525 159.4 55.1104C161.966 57.1518 164.532 59.2515 164.532 59.2515Z" fill="#FEFEFE"/>
<path d="M158.117 63.567C158.117 63.567 157.184 60.3593 156.251 57.2098C155.317 54.0603 154.326 50.8525 154.326 50.8525C154.326 50.8525 152.751 51.9023 151.235 52.9522C149.66 53.9437 148.085 54.9352 148.085 54.9352C148.085 54.9352 150.593 57.0932 153.043 59.2511C155.609 61.4091 158.117 63.567 158.117 63.567Z" fill="#D81F29"/>
<path d="M151.584 67.65C151.584 67.65 150.71 64.5006 149.835 61.2928C148.96 58.085 148.085 54.9355 148.085 54.9355L141.728 58.9015C141.728 58.9015 144.177 61.1178 146.627 63.2758C149.135 65.492 151.584 67.65 151.584 67.65Z" fill="#FEFEFE"/>
<path d="M144.996 71.7325C144.996 71.7325 144.238 68.5247 143.421 65.3169C142.547 62.1092 141.73 58.9014 141.73 58.9014C141.73 58.9014 141.322 59.1347 140.739 59.543C140.155 59.8929 139.339 60.3595 138.522 60.8261C136.889 61.7592 135.315 62.6924 135.315 62.6924C135.315 62.6924 137.706 64.967 140.155 67.2416C142.605 69.4579 144.996 71.7325 144.996 71.7325Z" fill="#D81F29"/>
<path d="M138.345 75.5829C138.345 75.5829 137.587 72.375 136.828 69.1089C136.07 65.9011 135.312 62.6934 135.312 62.6934L128.838 66.4844C128.838 66.4844 131.171 68.759 133.562 71.0336C135.954 73.3083 138.345 75.5829 138.345 75.5829Z" fill="#FEFEFE"/>
<path d="M131.64 79.3729C131.64 79.3729 130.94 76.1068 130.24 72.899C129.89 71.3242 129.54 69.6912 129.307 68.4664C129.015 67.2999 128.84 66.4834 128.84 66.4834C128.84 66.4834 128.723 66.5418 128.548 66.6001C128.393 66.7167 128.14 66.8528 127.79 67.0083C127.207 67.3583 126.39 67.8248 125.574 68.2331C123.883 69.108 122.25 69.9828 122.25 69.9828C122.25 69.9828 124.582 72.3158 126.915 74.7071C129.248 77.04 131.64 79.3729 131.64 79.3729Z" fill="#D81F29"/>
<path d="M124.815 82.9895C124.815 82.9895 124.173 79.7235 123.532 76.4574C122.89 73.2496 122.248 69.9834 122.248 69.9834L115.658 73.5412C115.658 73.5412 117.933 75.8741 120.207 78.2654C122.482 80.6566 124.815 82.9895 124.815 82.9895Z" fill="#FEFEFE"/>
<path d="M117.933 86.4888C117.933 86.4888 117.35 83.2227 116.825 79.9566C116.241 76.7488 115.658 73.541 115.658 73.541L108.951 76.7488C108.951 76.7488 111.167 79.1983 113.384 81.6479C115.658 84.0392 117.933 86.4888 117.933 86.4888Z" fill="#D81F29"/>
<path d="M110.992 89.8718C110.992 89.8718 110.467 86.5473 110 83.2812C109.475 80.0151 108.95 76.749 108.95 76.749C108.95 76.749 107.259 77.5655 105.568 78.382C104.751 78.7903 103.876 79.1986 103.235 79.4902C102.924 79.6457 102.671 79.7818 102.476 79.8984C102.301 79.9568 102.185 80.0151 102.185 80.0151C102.185 80.0151 102.768 80.6566 103.585 81.5898C104.401 82.4647 105.451 83.7478 106.559 84.9726C108.775 87.4222 110.992 89.8718 110.992 89.8718Z" fill="#FEFEFE"/>
<path d="M103.934 93.0791C103.934 93.0791 103.526 89.813 103.118 86.5468C102.651 83.2807 102.185 80.0146 102.185 80.0146L95.3609 82.9891C95.3609 82.9891 97.5188 85.497 99.6185 88.0632C101.776 90.5711 103.934 93.0791 103.934 93.0791Z" fill="#D81F29"/>
<path d="M90.4031 85.1482L95.3606 82.9902C95.3606 82.9902 95.7688 86.2563 96.1187 89.5224C96.527 92.8469 96.877 96.1713 96.877 96.1713C96.877 96.1713 94.7773 93.6051 92.6776 91.0389C91.8611 90.0474 91.0446 89.1142 90.4031 88.2393V85.1482Z" fill="#FEFEFE"/>
<path d="M217.199 8.33548C216.674 7.86889 216.032 7.16902 215.391 6.52747C214.749 5.88591 214.108 5.24435 213.641 4.77776C213.174 4.31118 212.883 4.01953 212.883 4.01953C212.883 4.01953 212.591 4.48616 212.066 5.30269V12.4764C212.144 12.4375 212.202 12.3987 212.241 12.3598C213.699 11.5433 215.157 10.7267 216.207 10.1435C217.315 9.56026 218.015 9.15202 218.015 9.15202C218.015 9.15202 217.665 8.80207 217.199 8.33548Z" fill="#D81F29"/>
<path d="M212.007 20.9327C212.007 20.9327 213.465 17.9582 214.981 14.9837C216.498 12.0675 218.014 9.15137 218.014 9.15137C218.014 9.15137 219.356 10.4345 220.697 11.7176C221.339 12.3592 222.038 12.9423 222.563 13.4089C223.088 13.8755 223.438 14.2255 223.438 14.2255C223.438 14.2255 220.58 15.9169 217.722 17.6083C214.865 19.2996 212.007 20.9327 212.007 20.9327Z" fill="#FEFEFE"/>
<path d="M217.724 26.1819C217.724 26.1819 219.124 23.1491 220.524 20.1746C221.982 17.2001 223.44 14.2256 223.44 14.2256C223.44 14.2256 224.781 15.4504 226.181 16.7335C227.581 17.9583 228.98 19.1831 228.98 19.1831C228.98 19.1831 226.181 20.9328 223.381 22.6825C220.582 24.4322 217.724 26.1819 217.724 26.1819Z" fill="#D81F29"/>
<path d="M223.556 31.2556C223.556 31.2556 224.898 28.2228 226.239 25.19C227.639 22.2155 228.98 19.1826 228.98 19.1826C228.98 19.1826 230.38 20.4075 231.78 21.6322C233.238 22.857 234.638 24.0235 234.638 24.0235C234.638 24.0235 231.897 25.8315 229.097 27.6978C226.356 29.4475 223.556 31.2556 223.556 31.2556Z" fill="#FEFEFE"/>
<path d="M229.446 36.214C229.446 36.214 230.729 33.1812 232.012 30.0901C233.354 27.0572 234.637 24.0244 234.637 24.0244C234.637 24.0244 236.095 25.2492 237.495 26.4157C238.195 27.0572 238.953 27.6405 239.478 28.0487C240.061 28.5153 240.411 28.8069 240.411 28.8069C240.411 28.8069 237.67 30.6733 234.929 32.5396C232.187 34.406 229.446 36.214 229.446 36.214Z" fill="#D81F29"/>
<path d="M235.453 41.0555C235.453 41.0555 236.678 37.9644 237.903 34.9316C239.186 31.8404 240.411 28.8076 240.411 28.8076C240.411 28.8076 241.869 29.9741 243.327 31.1406C244.085 31.7238 244.785 32.3071 245.368 32.7153C245.893 33.1819 246.243 33.4735 246.243 33.4735C246.243 33.4735 243.56 35.3398 240.877 37.2645C238.194 39.1892 235.453 41.0555 235.453 41.0555Z" fill="#FEFEFE"/>
<path d="M241.577 45.7799C241.577 45.7799 242.744 42.6887 243.91 39.5976C245.077 36.5065 246.243 33.4736 246.243 33.4736L252.192 37.9646C252.192 37.9646 249.568 39.9475 246.943 41.8722C244.26 43.8552 241.577 45.7799 241.577 45.7799Z" fill="#D81F29"/>
<path d="M247.76 50.3857C247.76 50.3857 247.993 49.6276 248.401 48.4611C248.868 47.2946 249.393 45.7199 249.976 44.2035C251.084 41.054 252.192 37.9629 252.192 37.9629C252.192 37.9629 252.601 38.2545 253.184 38.6627C253.709 39.071 254.467 39.6542 255.225 40.1791C256.742 41.2873 258.258 42.3955 258.258 42.3955C258.258 42.3955 255.633 44.3785 253.009 46.4198C250.384 48.4028 247.76 50.3857 247.76 50.3857Z" fill="#FEFEFE"/>
<path d="M254 54.8777C254 54.8777 255.05 51.7282 256.1 48.6371C257.208 45.4876 258.258 42.3965 258.258 42.3965C258.258 42.3965 259.774 43.4463 261.29 44.5544C262.049 45.0793 262.807 45.6042 263.39 46.0125C263.973 46.4208 264.382 46.7124 264.382 46.7124C264.382 46.7124 261.757 48.8121 259.191 50.8534C256.624 52.8364 254 54.8777 254 54.8777Z" fill="#D81F29"/>
<path d="M260.358 59.2515C260.358 59.2515 261.35 56.102 262.341 52.9525C263.333 49.803 264.382 46.7119 264.382 46.7119L270.565 50.8529C270.565 50.8529 268.057 52.9525 265.491 55.1104C262.924 57.1518 260.358 59.2515 260.358 59.2515Z" fill="#FEFEFE"/>
<path d="M266.773 63.567C266.773 63.567 267.706 60.3593 268.64 57.2098C269.631 54.0603 270.564 50.8525 270.564 50.8525C270.564 50.8525 272.139 51.9023 273.655 52.9522C275.23 53.9437 276.863 54.9352 276.863 54.9352C276.863 54.9352 274.355 57.0932 271.847 59.2511C269.281 61.4091 266.773 63.567 266.773 63.567Z" fill="#D81F29"/>
<path d="M273.307 67.65C273.307 67.65 274.181 64.5006 275.056 61.2928C275.931 58.085 276.864 54.9355 276.864 54.9355L283.163 58.9015C283.163 58.9015 280.714 61.1178 278.264 63.2758C275.815 65.492 273.307 67.65 273.307 67.65Z" fill="#FEFEFE"/>
<path d="M279.897 71.7325C279.897 71.7325 280.714 68.5247 281.472 65.3169C282.347 62.1092 283.163 58.9014 283.163 58.9014C283.163 58.9014 283.571 59.1347 284.155 59.543C284.738 59.8929 285.555 60.3595 286.371 60.8261C288.004 61.7592 289.579 62.6924 289.579 62.6924C289.579 62.6924 287.188 64.967 284.796 67.2416C282.347 69.4579 279.897 71.7325 279.897 71.7325Z" fill="#D81F29"/>
<path d="M286.546 75.5829C286.546 75.5829 287.304 72.375 288.062 69.1089C288.82 65.9011 289.579 62.6934 289.579 62.6934L296.052 66.4844C296.052 66.4844 293.719 68.759 291.328 71.0336C288.937 73.3083 286.546 75.5829 286.546 75.5829Z" fill="#FEFEFE"/>
<path d="M293.311 79.3729C293.311 79.3729 293.952 76.1068 294.652 72.899C295.002 71.3242 295.352 69.6912 295.585 68.4664C295.877 67.2999 296.052 66.4834 296.052 66.4834C296.052 66.4834 296.149 66.5223 296.344 66.6001C296.538 66.7167 296.791 66.8528 297.102 67.0083C297.685 67.3583 298.502 67.8248 299.376 68.2331C301.009 69.108 302.643 69.9828 302.643 69.9828C302.643 69.9828 300.31 72.3158 297.977 74.7071C295.644 77.04 293.311 79.3729 293.311 79.3729Z" fill="#D81F29"/>
<path d="M300.076 82.9895C300.076 82.9895 300.717 79.7235 301.359 76.4574C302 73.2496 302.642 69.9834 302.642 69.9834L309.233 73.5412C309.233 73.5412 306.958 75.8741 304.683 78.2654C302.409 80.6566 300.076 82.9895 300.076 82.9895Z" fill="#FEFEFE"/>
<path d="M306.958 86.4888C306.958 86.4888 307.542 83.2227 308.067 79.9566C308.65 76.7488 309.233 73.541 309.233 73.541L315.94 76.7488C315.94 76.7488 313.724 79.1983 311.508 81.6479C309.233 84.0392 306.958 86.4888 306.958 86.4888Z" fill="#D81F29"/>
<path d="M313.957 89.8718C313.957 89.8718 314.424 86.5473 314.89 83.2812C315.415 80.0151 315.94 76.749 315.94 76.749C315.94 76.749 317.632 77.5655 319.323 78.382C320.139 78.7903 321.014 79.1986 321.656 79.4902C321.967 79.6457 322.22 79.7818 322.414 79.8984C322.608 79.9762 322.706 80.0151 322.706 80.0151C322.706 80.0151 322.122 80.6566 321.306 81.5898C320.489 82.4647 319.439 83.7478 318.331 84.9726C316.115 87.4222 313.957 89.8718 313.957 89.8718Z" fill="#FEFEFE"/>
<path d="M320.956 93.0791C320.956 93.0791 321.365 89.813 321.773 86.5468C322.239 83.2807 322.706 80.0146 322.706 80.0146L329.53 82.9891C329.53 82.9891 327.43 85.497 325.272 88.0632C323.114 90.5711 320.956 93.0791 320.956 93.0791Z" fill="#D81F29"/>
<path d="M334.546 85.1482L329.531 82.9902C329.531 82.9902 329.122 86.2563 328.772 89.5224C328.422 92.8469 328.072 96.1713 328.072 96.1713C328.072 96.1713 330.172 93.6051 332.213 91.0389C333.03 90.0474 333.846 89.1142 334.546 88.2393V85.1482Z" fill="#FEFEFE"/>
<path d="M197.661 -1.81284C197.661 -1.81284 199.469 1.04502 197.602 3.08634C195.678 5.12766 182.672 6.81904 179.056 8.91868C179.056 8.91868 181.272 3.26131 183.955 -0.121448C183.955 -0.121448 180.63 -3.09591 176.606 -4.32071C176.606 -4.32071 179.056 -7.76183 186.754 -8.22842C195.619 -8.69501 196.961 -11.7861 196.961 -11.7861L197.661 -1.81284Z" fill="#D89627"/>
<path d="M196.786 3.66973L193.987 2.26996L198.361 0.0537109C198.536 0.986886 198.477 2.15333 197.603 3.0865C197.408 3.28091 197.136 3.47532 196.786 3.66973Z" fill="#9F6D24"/>
<path d="M211.659 23.266H213.234V-23.2178H211.659V23.266Z" fill="#D57529"/>
<path d="M213.233 -17.5015C213.233 -17.5015 208.626 -19.1929 202.093 -15.6352C195.97 -12.2524 194.92 -11.7858 193.987 -11.7858V2.27011C193.987 2.27011 196.728 2.44512 201.627 -1.11261C201.627 -1.11261 207.984 -6.59501 213.233 -3.44554V-17.5015Z" fill="#FCB629"/>
<path d="M174.038 86.0804H251.317V62.1094H174.038V86.0804Z" fill="#EF5360"/>
<path d="M184.363 86.0804H240.937V62.1094H184.363V86.0804Z" fill="#FCB629"/>
<path d="M196.086 86.0804H229.272V62.1094H196.086V86.0804Z" fill="#EF5360"/>
<path d="M206.176 86.0804H219.182V62.1094H206.176V86.0804Z" fill="#FCB629"/>
<g style="mix-blend-mode:multiply" opacity="0.4">
<path d="M212.648 77.682C227.871 77.682 241.577 75.5241 251.317 72.083V86.0806H174.038V72.083C183.778 75.5241 197.484 77.682 212.648 77.682Z" fill="#EF5360"/>
</g>
<path d="M173.572 87.3633H212.182H250.792C294.36 135.538 333.67 143.295 333.67 143.295H212.182H90.6942C90.6942 143.295 130.004 135.538 173.572 87.3633Z" fill="#EF5360"/>
<path d="M184.829 87.3633H212.183H239.537C270.39 135.538 298.268 143.295 298.268 143.295H212.183H126.156C126.156 143.295 153.976 135.538 184.829 87.3633Z" fill="#FCB629"/>
<path d="M196.085 87.3633H212.182H228.279C246.476 135.538 262.924 143.295 262.924 143.295H212.182H161.441C161.441 143.295 177.888 135.538 196.085 87.3633Z" fill="#EF5360"/>
<path d="M205.475 87.3633H212.183H218.89C226.472 135.538 233.354 143.295 233.354 143.295H212.183H191.011C191.011 143.295 197.893 135.538 205.475 87.3633Z" fill="#FCB629"/>
<g style="mix-blend-mode:multiply" opacity="0.4">
<path d="M173.572 87.3633H212.182H250.793C252.62 89.3852 254.428 91.3293 256.217 93.1956H168.148C169.937 91.3293 171.745 89.3852 173.572 87.3633Z" fill="#EF5360"/>
</g>
<path d="M335.072 146.329C323.058 189.955 321.949 228.623 321.949 228.623H100.787C100.787 228.623 99.7372 189.955 87.7225 146.329H335.072Z" fill="#EF5360"/>
<path d="M321.246 146.329C310.573 189.955 309.64 228.623 309.64 228.623H113.148C113.148 228.623 112.215 189.955 101.484 146.329H321.246Z" fill="#FCB629"/>
<path d="M297.86 146.329C289.461 189.955 288.703 228.623 288.703 228.623H134.029C134.029 228.623 133.329 189.955 124.872 146.329H297.86Z" fill="#EF5360"/>
<path d="M267.59 146.329C262.107 189.955 261.641 228.623 261.641 228.623H161.149C161.149 228.623 160.624 189.955 155.142 146.329H267.59Z" fill="#FCB629"/>
<path d="M233.589 146.329C231.431 189.955 231.256 228.623 231.256 228.623H191.538C191.538 228.623 191.304 189.955 189.146 146.329H233.589Z" fill="#EF5360"/>
<g style="mix-blend-mode:multiply" opacity="0.4">
<path d="M211.368 205.294C254.119 205.294 293.604 200.336 325.565 191.996C322.357 213.751 321.949 228.623 321.949 228.623H100.786C100.786 228.623 100.378 213.751 97.2288 191.996C129.19 200.336 168.675 205.294 211.368 205.294Z" fill="#EF5360"/>
</g>
<g style="mix-blend-mode:multiply" opacity="0.4">
<path d="M332.389 156.769H90.4055C89.5889 153.308 88.6946 149.829 87.7225 146.329H335.072C334.1 149.829 333.206 153.308 332.389 156.769Z" fill="#EF5360"/>
</g>
<path d="M172.407 228.623H250.327V145.629H172.407V228.623Z" fill="#530E1B"/>
<path d="M211.367 180.973C196.844 180.973 183.372 183.597 172.407 187.972V145.629H250.327V187.972C239.362 183.597 225.948 180.973 211.367 180.973Z" fill="#3B0411"/>
<path d="M85.3889 145.629C85.3889 146.912 86.4387 147.903 87.7218 147.903H336.646C337.929 147.903 338.979 146.912 338.979 145.629C338.979 144.346 337.929 143.296 336.646 143.296H87.7218C86.4387 143.296 85.3889 144.346 85.3889 145.629Z" fill="#FCB629"/>
<g style="mix-blend-mode:multiply" opacity="0.4">
<path d="M211.132 132.681C240.819 132.681 267.997 128.482 288.994 121.483C314.948 139.622 333.67 143.296 333.67 143.296H212.182H90.6942C90.6942 143.296 109.124 139.68 134.67 121.95C155.491 128.657 182.087 132.681 211.132 132.681Z" fill="#EF5360"/>
</g>
<path d="M170.948 86.0799C170.948 87.3047 171.94 88.2961 173.165 88.2961H251.201C252.426 88.2961 253.418 87.3047 253.418 86.0799C253.418 84.8551 252.426 83.9219 251.201 83.9219H173.165C171.94 83.9219 170.948 84.8551 170.948 86.0799Z" fill="#FCB629"/>
<path d="M170.948 62.1101C170.948 63.3349 171.94 64.3264 173.165 64.3264H251.201C252.426 64.3264 253.418 63.3349 253.418 62.1101C253.418 60.8853 252.426 59.9521 251.201 59.9521H173.165C171.94 59.9521 170.948 60.8853 170.948 62.1101Z" fill="#FCB629"/>
<path d="M199.878 41.6387H212.184H224.49C238.313 57.386 250.852 59.9522 250.852 59.9522H212.184H173.515C173.515 59.9522 186.055 57.386 199.878 41.6387Z" fill="#EF5360"/>
<path d="M203.493 41.6387H212.183H220.873C230.73 57.386 239.595 59.9522 239.595 59.9522H212.183H184.83C184.83 59.9522 193.636 57.386 203.493 41.6387Z" fill="#FCB629"/>
<path d="M207.05 41.6387H212.183H217.315C223.089 57.386 228.338 59.9522 228.338 59.9522H212.183H196.027C196.027 59.9522 201.276 57.386 207.05 41.6387Z" fill="#EF5360"/>
<path d="M210.026 41.6387H212.184H214.342C216.733 57.386 218.891 59.9522 218.891 59.9522H212.184H205.477C205.477 59.9522 207.634 57.386 210.026 41.6387Z" fill="#FCB629"/>
<g style="mix-blend-mode:multiply" opacity="0.4">
<path d="M199.876 41.6387H212.183H224.489C225.072 42.2997 225.636 42.9413 226.18 43.5634H198.185C198.729 42.9413 199.293 42.2997 199.876 41.6387Z" fill="#EF5360"/>
</g>
<g style="mix-blend-mode:multiply" opacity="0.4">
<path d="M211.834 56.4517C221.282 56.4517 229.972 55.052 236.621 52.7773C244.903 58.7263 250.852 59.9512 250.852 59.9512H212.184H173.515C173.515 59.9512 179.406 58.7264 187.513 52.9523C194.162 55.1103 202.619 56.4517 211.834 56.4517Z" fill="#EF5360"/>
</g>
<path d="M198.71 41.404C198.71 41.8122 199.06 42.1622 199.468 42.1622H224.897C225.305 42.1622 225.655 41.8122 225.655 41.404C225.655 40.9957 225.305 40.7041 224.897 40.7041H199.468C199.06 40.7041 198.71 40.9957 198.71 41.404Z" fill="#FCB629"/>
<path d="M211.192 23.0908H212.417H213.642C214.983 38.2549 224.782 40.7045 224.782 40.7045H212.417H199.994C199.994 40.7045 209.851 38.2549 211.192 23.0908Z" fill="#EF5360"/>
<path d="M211.541 23.0908H212.415H213.232C214.223 38.2549 221.164 40.7045 221.164 40.7045H212.415H203.609C203.609 40.7045 210.607 38.2549 211.541 23.0908Z" fill="#FCB629"/>
<path d="M211.892 23.0908H212.417H212.884C213.467 38.2549 217.608 40.7045 217.608 40.7045H212.417H207.226C207.226 40.7045 211.309 38.2549 211.892 23.0908Z" fill="#EF5360"/>
<path d="M212.184 23.0908H212.417H212.592C212.825 38.2549 214.575 40.7045 214.575 40.7045H212.417H210.259C210.259 40.7045 211.95 38.2549 212.184 23.0908Z" fill="#FCB629"/>
<g style="mix-blend-mode:multiply" opacity="0.4">
<path d="M211.191 23.0908H212.416H213.64C213.679 23.7129 213.718 24.3156 213.757 24.8988H211.016C211.094 24.3156 211.152 23.7129 211.191 23.0908Z" fill="#EF5360"/>
</g>
<g style="mix-blend-mode:multiply" opacity="0.4">
<path d="M206.76 35.7475C208.393 36.739 210.317 37.3222 212.3 37.3222C214.342 37.3222 216.325 36.739 218.016 35.6309C221.165 39.7718 224.782 40.705 224.782 40.705H212.417H199.994C199.994 40.705 203.61 39.7718 206.76 35.7475Z" fill="#EF5360"/>
</g>
<path d="M210.725 23.7325C210.725 24.0241 210.959 24.2574 211.25 24.2574H213.525C213.817 24.2574 214.05 24.0241 214.05 23.7325V22.7993C214.05 22.5077 213.817 22.2744 213.525 22.2744H211.25C210.959 22.2744 210.725 22.5077 210.725 22.7993V23.7325Z" fill="#FCB629"/>
<path d="M75.2988 81.124C75.2988 81.124 77.1652 83.9818 75.2405 86.0231C73.3742 88.0644 60.3097 89.8141 56.6936 91.8554C56.6936 91.8554 58.9683 86.198 61.5928 82.8153C61.5928 82.8153 58.3267 79.8991 54.2441 78.616C54.2441 78.616 56.7519 75.175 64.3923 74.7667C73.2575 74.3001 74.5989 71.209 74.5989 71.209L75.2988 81.124Z" fill="#D89627"/>
<path d="M74.4229 86.6056L71.6816 85.2642L75.9976 83.0479C76.1726 83.981 76.1143 85.0892 75.2394 86.0223C75.045 86.2167 74.7728 86.4112 74.4229 86.6056Z" fill="#9F6D24"/>
<path d="M89.2975 142.362H90.9305V59.7178H89.2975V142.362Z" fill="#D57529"/>
<path d="M88.9445 61.5264H91.5107V59.0186H88.9445V61.5264Z" fill="#FCB629"/>
<path d="M88.2441 56.9188C88.2441 57.9687 89.1189 58.8435 90.2271 58.8435C91.2769 58.8435 92.1518 57.9687 92.1518 56.9188C92.1518 55.8107 91.2769 54.9941 90.2271 54.9941C89.1189 54.9941 88.2441 55.8107 88.2441 56.9188Z" fill="#FDC225"/>
<path opacity="0.4" d="M88.6524 55.6943C88.6524 55.811 88.6524 55.9277 88.6524 56.0443C88.6524 57.1525 89.5272 57.969 90.577 57.969C91.2186 57.969 91.7435 57.6774 92.0934 57.2691C91.9768 58.144 91.1603 58.8438 90.2271 58.8438C89.1189 58.8438 88.2441 57.969 88.2441 56.9192C88.2441 56.4526 88.4191 56.0443 88.6524 55.6943Z" fill="#EB892D"/>
<path opacity="0.4" d="M88.4774 56.0449C88.4385 56.2005 88.4191 56.3559 88.4191 56.5115C88.4191 57.6196 89.2939 58.4362 90.3437 58.4362C91.1019 58.4362 91.7435 58.0279 92.0934 57.3863C91.8601 58.2028 91.1019 58.8444 90.2271 58.8444C89.1189 58.8444 88.2441 57.9696 88.2441 56.9198C88.283 56.6087 88.3607 56.3171 88.4774 56.0449Z" fill="#D06F27"/>
<path d="M90.2871 56.2776C90.6954 56.5692 91.162 56.6276 91.337 56.3943C91.5119 56.161 91.3953 55.6944 90.987 55.4027C90.5788 55.1111 90.1122 54.9945 89.9372 55.2861C89.7622 55.5194 89.8789 55.9276 90.2871 56.2776Z" fill="#FEFEFE"/>
<path d="M91.394 56.6855C91.394 56.8021 91.5107 56.9188 91.6274 56.9188C91.744 56.9188 91.8023 56.8021 91.8023 56.6855C91.8023 56.5688 91.744 56.4521 91.6274 56.4521C91.5107 56.4521 91.394 56.5688 91.394 56.6855Z" fill="#FEFEFE"/>
<path d="M88.5977 58.8438C88.5977 59.0771 88.7727 59.2521 89.006 59.2521H91.4555C91.6888 59.2521 91.8054 59.0771 91.8054 58.8438C91.8054 58.6105 91.6888 58.4355 91.4555 58.4355H89.006C88.7727 58.4355 88.5977 58.6105 88.5977 58.8438Z" fill="#FDC225"/>
<path d="M91.4555 59.2521H89.006C88.7727 59.2521 88.5977 59.077 88.5977 58.8438H91.8054C91.8054 59.077 91.6888 59.2521 91.4555 59.2521Z" fill="#EB892D"/>
<path d="M88.8287 58.6101C88.8287 58.6489 88.8482 58.6684 88.887 58.6684H91.4533C91.5311 58.6684 91.57 58.6489 91.57 58.6101C91.57 58.5712 91.5311 58.5518 91.4533 58.5518H88.887C88.8482 58.5518 88.8287 58.5712 88.8287 58.6101Z" fill="#FEE7A9"/>
<path d="M90.9284 65.434C90.9284 65.434 86.2625 63.7426 79.7886 67.3004C73.6063 70.7414 72.6148 71.1497 71.6816 71.1497V85.264C71.6816 85.264 74.3646 85.439 79.3221 81.8229C79.3221 81.8229 85.6209 76.3405 90.9284 79.5483V65.434Z" fill="#FCB629"/>
<path d="M88.4211 142.772C88.4211 143.063 88.6545 143.297 88.9461 143.297H91.1623C91.4539 143.297 91.6872 143.063 91.6872 142.772V141.897C91.6872 141.605 91.4539 141.372 91.1623 141.372H88.9461C88.6545 141.372 88.4211 141.605 88.4211 141.897V142.772Z" fill="#FCB629"/>
<path d="M319.672 81.124C319.672 81.124 321.48 83.9818 319.614 86.0231C317.689 88.0644 304.683 89.8141 301.067 91.8554C301.067 91.8554 303.283 86.198 305.966 82.8153C305.966 82.8153 302.642 79.8991 298.617 78.616C298.617 78.616 301.067 75.175 308.766 74.7667C317.631 74.3001 318.972 71.209 318.972 71.209L319.672 81.124Z" fill="#D89627"/>
<path d="M318.798 86.6056L315.998 85.2642L320.373 83.0479C320.548 83.981 320.489 85.0892 319.615 86.0223C319.42 86.2167 319.148 86.4112 318.798 86.6056Z" fill="#9F6D24"/>
<path d="M333.67 142.362H335.245V59.7178H333.67V142.362Z" fill="#D57529"/>
<path d="M333.263 61.5264H335.829V59.0186H333.263V61.5264Z" fill="#FCB629"/>
<path d="M332.621 56.9188C332.621 57.9687 333.496 58.8435 334.546 58.8435C335.654 58.8435 336.529 57.9687 336.529 56.9188C336.529 55.8107 335.654 54.9941 334.546 54.9941C333.496 54.9941 332.621 55.8107 332.621 56.9188Z" fill="#FDC225"/>
<path opacity="0.4" d="M333.03 55.6943C333.03 55.811 333.03 55.9277 333.03 56.0443C333.03 57.1525 333.846 57.969 334.954 57.969C335.538 57.969 336.121 57.6774 336.471 57.2691C336.296 58.144 335.538 58.8438 334.546 58.8438C333.496 58.8438 332.621 57.969 332.621 56.9192C332.621 56.4526 332.796 56.0443 333.03 55.6943Z" fill="#EB892D"/>
<path opacity="0.4" d="M332.855 56.0449C332.816 56.2005 332.796 56.3559 332.796 56.5115C332.796 57.6196 333.613 58.4362 334.721 58.4362C335.479 58.4362 336.121 58.0279 336.412 57.3863C336.238 58.2028 335.479 58.8444 334.546 58.8444C333.496 58.8444 332.621 57.9696 332.621 56.9198C332.621 56.6087 332.699 56.3171 332.855 56.0449Z" fill="#D06F27"/>
<path d="M334.662 56.2776C335.012 56.5692 335.537 56.6276 335.712 56.3943C335.887 56.161 335.712 55.6944 335.362 55.4027C334.954 55.1111 334.487 54.9945 334.313 55.2861C334.079 55.5194 334.254 55.9276 334.662 56.2776Z" fill="#FEFEFE"/>
<path d="M335.771 56.6855C335.771 56.8021 335.829 56.9188 335.946 56.9188C336.063 56.9188 336.179 56.8021 336.179 56.6855C336.179 56.5688 336.063 56.4521 335.946 56.4521C335.829 56.4521 335.771 56.5688 335.771 56.6855Z" fill="#FEFEFE"/>
<path d="M332.97 58.8438C332.97 59.0771 333.145 59.2521 333.32 59.2521H335.77C336.003 59.2521 336.178 59.0771 336.178 58.8438C336.178 58.6105 336.003 58.4355 335.77 58.4355H333.32C333.145 58.4355 332.97 58.6105 332.97 58.8438Z" fill="#FDC225"/>
<path d="M335.77 59.2521H333.32C333.145 59.2521 332.97 59.077 332.97 58.8438H336.178C336.178 59.077 336.003 59.2521 335.77 59.2521Z" fill="#EB892D"/>
<path d="M333.146 58.6101C333.146 58.6101 333.204 58.6684 333.262 58.6684H335.828C335.887 58.6684 335.887 58.6101 335.887 58.6101C335.887 58.5517 335.887 58.5518 335.828 58.5518H333.262C333.204 58.5518 333.146 58.5517 333.146 58.6101Z" fill="#FEE7A9"/>
<path d="M335.245 65.434C335.245 65.434 330.638 63.7426 324.105 67.3004C317.981 70.7414 316.932 71.1497 315.998 71.1497V85.264C315.998 85.264 318.74 85.439 323.639 81.8229C323.639 81.8229 329.938 76.3405 335.245 79.5483V65.434Z" fill="#FCB629"/>
<path d="M332.738 142.772C332.738 143.063 332.971 143.297 333.263 143.297H335.537C335.829 143.297 336.062 143.063 336.062 142.772V141.897C336.062 141.605 335.829 141.372 335.537 141.372H333.263C332.971 141.372 332.738 141.605 332.738 141.897V142.772Z" fill="#FCB629"/>
<path d="M250.327 147.903C250.327 147.903 231.956 204.71 243.62 232.356C243.62 232.356 257.851 238.071 271.79 228.623C271.79 228.623 255.752 199.053 250.327 147.903Z" fill="#1CB9EB"/>
<path d="M172.466 147.903C172.466 147.903 190.896 204.71 179.232 232.356C179.232 232.356 165.001 238.071 151.003 228.623C151.003 228.623 167.042 199.053 172.466 147.903Z" fill="#1CB9EB"/>
<path d="M250.327 147.903C250.327 147.903 233.355 170.358 212.183 147.903C212.183 147.903 188.621 168.317 172.407 147.903H250.327Z" fill="#1CB9EB"/>
<path d="M54.7686 108.127C54.7686 108.127 55.6434 109.586 54.7103 110.635C53.7771 111.627 47.2449 112.502 45.3785 113.552C45.3785 113.552 46.545 110.694 47.8864 109.002C47.8864 109.002 46.195 107.544 44.212 106.903C44.212 106.903 45.4369 105.153 49.2862 104.92C53.7188 104.686 54.4186 103.17 54.4186 103.17L54.7686 108.127Z" fill="#D89627"/>
<path d="M54.3024 110.868L52.9026 110.226L55.1189 109.118C55.1772 109.585 55.1772 110.11 54.7106 110.635C54.6328 110.712 54.4968 110.79 54.3024 110.868Z" fill="#9F6D24"/>
<path d="M61.7666 120.725H62.5831V97.3955H61.7666V120.725Z" fill="#D57529"/>
<path d="M22.0487 229.148H102.36L106.618 176.948H17.7328L22.0487 229.148Z" fill="#D81F29"/>
<path d="M105.626 188.788H18.7243L17.7328 176.948H106.618L105.626 188.788Z" fill="#951A1D"/>
<path d="M26.8322 229.148H97.5201L101.311 176.948H23.0411L26.8322 229.148Z" fill="#E0F1ED"/>
<g style="mix-blend-mode:multiply">
<path d="M23.916 188.788L23.0411 176.948H101.311L100.436 188.788H23.916Z" fill="#B3E0E6"/>
</g>
<path d="M33.0138 229.148H91.3955L94.4867 176.948H29.9226L33.0138 229.148Z" fill="#D81F29"/>
<path d="M30.6225 188.788L29.9226 176.948H94.4867L93.7868 188.788H30.6225Z" fill="#951A1D"/>
<path d="M38.9632 229.148H85.3886L87.8382 176.948H36.5136L38.9632 229.148Z" fill="#E0F1ED"/>
<g style="mix-blend-mode:multiply">
<path d="M37.0968 188.788L36.5136 176.948H87.8382L87.255 188.788H37.0968Z" fill="#B3E0E6"/>
</g>
<path d="M45.9034 229.148H78.4479L80.1393 176.948H44.212L45.9034 229.148Z" fill="#D81F29"/>
<g style="mix-blend-mode:multiply">
<path d="M44.562 188.788L44.212 176.948H80.1393L79.7893 188.788H44.562Z" fill="#B3E0E6"/>
</g>
<path d="M52.0264 229.148H72.3229L73.3727 176.948H50.9765L52.0264 229.148Z" fill="#E0F1ED"/>
<g style="mix-blend-mode:multiply">
<path d="M51.2098 188.788L50.9765 176.948H73.3727L73.1394 188.788H51.2098Z" fill="#B3E0E6"/>
</g>
<path d="M59.2601 229.148H65.6756L66.0256 176.948H58.9684L59.2601 229.148Z" fill="#D81F29"/>
<g style="mix-blend-mode:multiply">
<path d="M59.0268 188.788L58.9684 176.948H66.0256L65.9089 188.788H59.0268Z" fill="#B3E0E6"/>
</g>
<path d="M62.1751 120.2C78.2724 157.76 110.35 176.774 110.35 176.774H62.1751H14C14 176.774 46.1362 157.76 62.1751 120.2Z" fill="#E0F1ED"/>
<path d="M62.1759 120.2C75.9986 157.76 103.586 176.774 103.586 176.774H62.1759H20.7663C20.7663 176.774 48.4116 157.76 62.1759 120.2Z" fill="#D81F29"/>
<path d="M62.1758 120.2C73.8988 157.76 97.3448 176.774 97.3448 176.774H62.1758H27.0068C27.0068 176.774 50.4528 157.76 62.1758 120.2Z" fill="#E0F1ED"/>
<path d="M62.1767 120.2C71.8001 157.76 91.0468 176.774 91.0468 176.774H62.1767H33.3066C33.3066 176.774 52.5534 157.76 62.1767 120.2Z" fill="#D81F29"/>
<path d="M62.1751 120.2C69.6405 157.76 84.6296 176.774 84.6296 176.774H62.1751H39.7206C39.7206 176.774 54.7097 157.76 62.1751 120.2Z" fill="#E0F1ED"/>
<path d="M62.1744 120.2C67.4818 157.76 78.0383 176.774 78.0383 176.774H62.1744H46.3104C46.3104 176.774 56.9253 157.76 62.1744 120.2Z" fill="#D81F29"/>
<path d="M62.176 120.2C65.5005 157.76 72.1493 176.774 72.1493 176.774H62.176H52.2028C52.2028 176.774 58.8516 157.76 62.176 120.2Z" fill="#E0F1ED"/>
<path d="M62.1753 120.2C63.2251 157.76 65.2081 176.774 65.2081 176.774H62.1753H59.1425C59.1425 176.774 61.1838 157.76 62.1753 120.2Z" fill="#D81F29"/>
<path d="M77.3973 229.207L48.4106 229.148L55.7593 206.169L61.5917 179.34L62.4665 179.224C62.4665 179.224 69.232 215.792 77.3973 229.207Z" fill="#3B0411"/>
<path d="M69.057 207.452C71.4483 215.85 74.3062 224.19 77.3973 229.206L48.4106 229.148L55.2344 207.918C57.5673 207.16 60.1919 206.693 62.8747 206.693C65.0327 206.693 67.1323 206.985 69.057 207.452Z" fill="#530E1B"/>
<path d="M62.176 176.773C62.176 176.773 63.0508 210.484 76.7568 230.314C76.7568 230.314 81.3644 227.631 82.5892 220.166C82.5892 220.166 70.6912 214.042 62.176 176.773Z" fill="#EF5655"/>
<path d="M62.1763 176.832C62.1763 176.832 61.3015 210.543 47.5955 230.373C47.5955 230.373 42.9879 227.69 41.7631 220.283C41.7631 220.283 53.6611 214.101 62.1763 176.832Z" fill="#EF5655"/>
<path d="M103.934 179.281C103.934 181.031 105.393 182.489 107.142 182.489C108.95 182.489 110.35 181.031 110.35 179.281V176.773H103.934V179.281Z" fill="#B3DCE8"/>
<path d="M97.5195 179.281C97.5195 181.031 98.9776 182.489 100.727 182.489C102.535 182.489 103.935 181.031 103.935 179.281V176.773H97.5195V179.281Z" fill="#C6252A"/>
<path d="M91.1047 179.281C91.1047 181.031 92.5628 182.489 94.3125 182.489C96.0622 182.489 97.5203 181.031 97.5203 179.281V176.773H91.1047V179.281Z" fill="#B3DCE8"/>
<path d="M84.689 179.281C84.689 181.031 86.0888 182.489 87.8968 182.489C89.6465 182.489 91.1046 181.031 91.1046 179.281V176.773H84.689V179.281Z" fill="#C6252A"/>
<path d="M78.2726 179.281C78.2726 181.031 79.6724 182.489 81.4804 182.489C83.2301 182.489 84.6882 181.031 84.6882 179.281V176.773H78.2726V179.281Z" fill="#B3DCE8"/>
<path d="M71.7987 179.281C71.7987 181.031 73.2568 182.489 75.0065 182.489C76.8145 182.489 78.2726 181.031 78.2726 179.281V176.773H71.7987V179.281Z" fill="#C6252A"/>
<path d="M65.3842 179.281C65.3842 181.031 66.8422 182.489 68.5919 182.489C70.4 182.489 71.7997 181.031 71.7997 179.281V176.773H65.3842V179.281Z" fill="#B3DCE8"/>
<path d="M58.9684 179.281C58.9684 181.031 60.4265 182.489 62.1762 182.489C63.9843 182.489 65.384 181.031 65.384 179.281V176.773H58.9684V179.281Z" fill="#C6252A"/>
<path d="M52.5521 179.281C52.5521 181.031 54.0101 182.489 55.7599 182.489C57.5096 182.489 58.9676 181.031 58.9676 179.281V176.773H52.5521V179.281Z" fill="#B3DCE8"/>
<path d="M46.1357 179.281C46.1357 181.031 47.5355 182.489 49.3435 182.489C51.0932 182.489 52.5513 181.031 52.5513 179.281V176.773H46.1357V179.281Z" fill="#C6252A"/>
<path d="M39.6617 179.281C39.6617 181.031 41.1198 182.489 42.9278 182.489C44.6775 182.489 46.1356 181.031 46.1356 179.281V176.773H39.6617V179.281Z" fill="#B3DCE8"/>
<path d="M33.2473 179.281C33.2473 181.031 34.7053 182.489 36.455 182.489C38.2631 182.489 39.6628 181.031 39.6628 179.281V176.773H33.2473V179.281Z" fill="#C6252A"/>
<path d="M26.8303 179.281C26.8303 181.031 28.2883 182.489 30.038 182.489C31.8461 182.489 33.2458 181.031 33.2458 179.281V176.773H26.8303V179.281Z" fill="#B3DCE8"/>
<path d="M20.4152 179.281C20.4152 181.031 21.8732 182.489 23.6229 182.489C25.431 182.489 26.8307 181.031 26.8307 179.281V176.773H20.4152V179.281Z" fill="#C6252A"/>
<path d="M14 179.281C14 181.031 15.4581 182.489 17.2078 182.489C18.9575 182.489 20.4156 181.031 20.4156 179.281V176.773H14V179.281Z" fill="#B3DCE8"/>
<path d="M60.6004 122.708C60.6004 122.825 60.7171 122.941 60.8337 122.941H63.5166C63.6332 122.941 63.8082 122.825 63.8082 122.708V120.492C63.8082 120.317 63.6332 120.2 63.5166 120.2H60.8337C60.7171 120.2 60.6004 120.317 60.6004 120.492V122.708Z" fill="#FCB629"/>
<path d="M63.8082 121.892V122.708C63.8082 122.825 63.6332 122.941 63.5166 122.941H60.8337C60.7171 122.941 60.6004 122.825 60.6004 122.708V121.892H63.8082Z" fill="#D57529"/>
<path d="M61.5914 98.3291H62.8745V97.0459H61.5914V98.3291Z" fill="#FCB629"/>
<path d="M61.2433 95.9964C61.2433 96.5213 61.7098 96.9296 62.2348 96.9296C62.7597 96.9296 63.2262 96.5213 63.2262 95.9964C63.2262 95.4715 62.7597 95.0049 62.2348 95.0049C61.7098 95.0049 61.2433 95.4715 61.2433 95.9964Z" fill="#FDC225"/>
<path opacity="0.4" d="M61.4765 95.4121C61.4765 95.451 61.4571 95.5093 61.4182 95.587C61.4182 96.1119 61.8848 96.5202 62.4098 96.5202C62.7597 96.5202 62.9929 96.4036 63.1679 96.1703C63.1096 96.6369 62.7013 96.9285 62.2348 96.9285C61.7098 96.9285 61.2433 96.5203 61.2433 95.9953C61.2433 95.762 61.3599 95.5871 61.4765 95.4121Z" fill="#EB892D"/>
<path opacity="0.4" d="M61.3599 95.5869C61.3599 95.6647 61.3405 95.7425 61.3016 95.8202C61.3016 96.3451 61.7682 96.7534 62.2931 96.7534C62.7013 96.7534 62.9929 96.5201 63.1679 96.2285C63.0513 96.6367 62.7013 96.9284 62.2348 96.9284C61.7098 96.9284 61.2433 96.5201 61.2433 95.9952C61.2433 95.8397 61.2821 95.7036 61.3599 95.5869Z" fill="#D06F27"/>
<path d="M62.2922 95.6455C62.4672 95.8205 62.7005 95.8788 62.8171 95.7622C62.8755 95.6455 62.8171 95.4122 62.6421 95.2373C62.4089 95.0623 62.1756 95.0623 62.1173 95.179C62.0006 95.2956 62.0589 95.5289 62.2922 95.6455Z" fill="#FEFEFE"/>
<path d="M62.8174 95.8793C62.8174 95.9376 62.8757 95.996 62.934 95.996C62.9923 95.996 63.0507 95.9376 63.0507 95.8793C63.0507 95.821 62.9923 95.7627 62.934 95.7627C62.8757 95.7627 62.8174 95.821 62.8174 95.8793Z" fill="#FEFEFE"/>
<path d="M61.4173 96.9289C61.4173 97.0456 61.4756 97.1622 61.5923 97.1622H62.8754C62.9337 97.1622 63.0504 97.0456 63.0504 96.9289C63.0504 96.8706 62.9337 96.7539 62.8754 96.7539H61.5923C61.4756 96.7539 61.4173 96.8706 61.4173 96.9289Z" fill="#FDC225"/>
<path d="M62.8754 97.162H61.5923C61.4756 97.162 61.4173 97.0454 61.4173 96.9287H63.0504C63.0504 97.0454 62.9337 97.162 62.8754 97.162Z" fill="#EB892D"/>
<path d="M61.5331 96.8115C61.5331 96.8504 61.5331 96.8699 61.5331 96.8699H62.8745C62.8745 96.8699 62.8745 96.8504 62.8745 96.8115H61.5331Z" fill="#FEE7A9"/>
<path d="M62.5843 100.253C62.5843 100.253 60.2513 99.4363 56.9852 101.186C53.8941 102.936 53.3692 103.169 52.9026 103.169V110.226C52.9026 110.226 54.3023 110.284 56.7519 108.476C56.7519 108.476 59.9014 105.735 62.5843 107.368V100.253Z" fill="#FCB629"/>
<path d="M353.5 108.127C353.5 108.127 354.433 109.586 353.5 110.635C352.509 111.627 345.976 112.502 344.168 113.552C344.168 113.552 345.335 110.694 346.618 109.002C346.618 109.002 344.985 107.544 342.943 106.903C342.943 106.903 344.168 105.153 348.076 104.92C352.508 104.686 353.15 103.17 353.15 103.17L353.5 108.127Z" fill="#D89627"/>
<path d="M353.092 110.868L351.692 110.226L353.909 109.118C353.967 109.585 353.909 110.11 353.5 110.635C353.384 110.712 353.247 110.79 353.092 110.868Z" fill="#9F6D24"/>
<path d="M360.558 120.725H361.375V97.3955H360.558V120.725Z" fill="#D57529"/>
<path d="M320.781 229.148H401.092L405.35 176.948H316.523L320.781 229.148Z" fill="#D81F29"/>
<path d="M404.416 188.788H317.514L316.523 176.948H405.35L404.416 188.788Z" fill="#951A1D"/>
<path d="M325.564 229.148H396.31L400.043 176.948H321.831L325.564 229.148Z" fill="#E0F1ED"/>
<g style="mix-blend-mode:multiply">
<path d="M322.706 188.788L321.831 176.948H400.043L399.227 188.788H322.706Z" fill="#B3E0E6"/>
</g>
<path d="M331.746 229.148H390.127L393.219 176.948H328.655L331.746 229.148Z" fill="#D81F29"/>
<path d="M329.355 188.788L328.655 176.948H393.219L392.519 188.788H329.355Z" fill="#951A1D"/>
<path d="M337.752 229.148H384.119L386.627 176.948H335.302L337.752 229.148Z" fill="#E0F1ED"/>
<g style="mix-blend-mode:multiply">
<path d="M335.827 188.788L335.302 176.948H386.627L386.043 188.788H335.827Z" fill="#B3E0E6"/>
</g>
<path d="M344.693 229.148H377.179L378.929 176.948H342.943L344.693 229.148Z" fill="#D81F29"/>
<g style="mix-blend-mode:multiply">
<path d="M343.352 188.788L342.943 176.948H378.929L378.521 188.788H343.352Z" fill="#B3E0E6"/>
</g>
<path d="M350.818 229.148H371.057L372.165 176.948H349.769L350.818 229.148Z" fill="#E0F1ED"/>
<g style="mix-blend-mode:multiply">
<path d="M350.002 188.788L349.769 176.948H372.165L371.931 188.788H350.002Z" fill="#B3E0E6"/>
</g>
<path d="M358.05 229.148H364.407L364.757 176.948H357.7L358.05 229.148Z" fill="#D81F29"/>
<g style="mix-blend-mode:multiply">
<path d="M357.758 188.788L357.7 176.948H364.757L364.699 188.788H357.758Z" fill="#B3E0E6"/>
</g>
<path d="M360.966 120.2C377.005 157.76 409.141 176.774 409.141 176.774H360.966H312.733C312.733 176.774 344.869 157.76 360.966 120.2Z" fill="#E0F1ED"/>
<path d="M360.965 120.199C374.73 157.76 402.317 176.773 402.317 176.773H360.965H319.556C319.556 176.773 347.143 157.76 360.965 120.199Z" fill="#D81F29"/>
<path d="M360.965 120.2C372.688 157.76 396.076 176.774 396.076 176.774H360.965H325.796C325.796 176.774 349.242 157.76 360.965 120.2Z" fill="#E0F1ED"/>
<path d="M360.966 120.2C370.589 157.76 389.836 176.774 389.836 176.774H360.966H332.096C332.096 176.774 351.342 157.76 360.966 120.2Z" fill="#D81F29"/>
<path d="M360.967 120.2C368.432 157.76 383.421 176.774 383.421 176.774H360.967H338.512C338.512 176.774 353.443 157.76 360.967 120.2Z" fill="#E0F1ED"/>
<path d="M360.966 120.2C366.215 157.76 376.83 176.774 376.83 176.774H360.966H345.102C345.102 176.774 355.658 157.76 360.966 120.2Z" fill="#D81F29"/>
<path d="M360.967 120.2C364.291 157.76 370.94 176.774 370.94 176.774H360.967H350.994C350.994 176.774 357.643 157.76 360.967 120.2Z" fill="#E0F1ED"/>
<path d="M360.966 120.2C361.958 157.76 363.999 176.774 363.999 176.774H360.966H357.875C357.875 176.774 359.916 157.76 360.966 120.2Z" fill="#D81F29"/>
<path d="M376.13 229.206L347.201 229.147L354.55 206.168L360.324 179.339L361.257 179.223C361.257 179.223 368.023 215.791 376.13 229.206Z" fill="#3B0411"/>
<path d="M367.848 207.452C370.239 215.85 373.097 224.19 376.13 229.206L347.201 229.148L353.967 207.918C356.358 207.16 358.924 206.693 361.665 206.693C363.823 206.693 365.865 206.985 367.848 207.452Z" fill="#530E1B"/>
<path d="M360.966 176.773C360.966 176.773 361.84 210.484 375.546 230.314C375.546 230.314 380.154 227.631 381.379 220.166C381.379 220.166 369.481 214.042 360.966 176.773Z" fill="#EF5655"/>
<path d="M360.908 176.832C360.908 176.832 360.034 210.543 346.386 230.373C346.386 230.373 341.72 227.69 340.495 220.283C340.495 220.283 352.393 214.101 360.908 176.832Z" fill="#EF5655"/>
<path d="M383.42 179.281C383.42 181.031 384.878 182.489 386.628 182.489C388.436 182.489 389.836 181.031 389.836 179.281V176.773H383.42V179.281Z" fill="#C6252A"/>
<path d="M377.005 179.281C377.005 181.031 378.463 182.489 380.213 182.489C382.021 182.489 383.421 181.031 383.421 179.281V176.773H377.005V179.281Z" fill="#B3DCE8"/>
<path d="M370.59 179.281C370.59 181.031 372.048 182.489 373.797 182.489C375.547 182.489 377.005 181.031 377.005 179.281V176.773H370.59V179.281Z" fill="#C6252A"/>
<path d="M364.174 179.281C364.174 181.031 365.574 182.489 367.382 182.489C369.131 182.489 370.589 181.031 370.589 179.281V176.773H364.174V179.281Z" fill="#B3DCE8"/>
<path d="M357.759 179.281C357.759 181.031 359.158 182.489 360.966 182.489C362.716 182.489 364.174 181.031 364.174 179.281V176.773H357.759V179.281Z" fill="#C6252A"/>
<path d="M351.285 179.281C351.285 181.031 352.743 182.489 354.551 182.489C356.3 182.489 357.759 181.031 357.759 179.281V176.773H351.285V179.281Z" fill="#B3DCE8"/>
<path d="M344.868 179.281C344.868 181.031 346.326 182.489 348.076 182.489C349.884 182.489 351.284 181.031 351.284 179.281V176.773H344.868V179.281Z" fill="#C6252A"/>
<path d="M338.453 179.281C338.453 181.031 339.911 182.489 341.661 182.489C343.469 182.489 344.869 181.031 344.869 179.281V176.773H338.453V179.281Z" fill="#B3DCE8"/>
<path d="M332.036 179.281C332.036 181.031 333.494 182.489 335.244 182.489C336.994 182.489 338.452 181.031 338.452 179.281V176.773H332.036V179.281Z" fill="#C6252A"/>
<path d="M325.623 179.281C325.623 181.031 327.023 182.489 328.831 182.489C330.58 182.489 332.039 181.031 332.039 179.281V176.773H325.623V179.281Z" fill="#B3DCE8"/>
<path d="M319.208 179.281C319.208 181.031 320.608 182.489 322.416 182.489C324.165 182.489 325.623 181.031 325.623 179.281V176.773H319.208V179.281Z" fill="#C6252A"/>
<path d="M312.733 179.281C312.733 181.031 314.191 182.489 315.999 182.489C317.748 182.489 319.207 181.031 319.207 179.281V176.773H312.733V179.281Z" fill="#B3DCE8"/>
<path d="M359.333 122.708C359.333 122.825 359.45 122.941 359.625 122.941H362.307C362.424 122.941 362.541 122.825 362.541 122.708V120.492C362.541 120.317 362.424 120.2 362.307 120.2H359.625C359.45 120.2 359.333 120.317 359.333 120.492V122.708Z" fill="#FCB629"/>
<path d="M362.541 121.892V122.708C362.541 122.825 362.424 122.941 362.307 122.941H359.625C359.45 122.941 359.333 122.825 359.333 122.708V121.892H362.541Z" fill="#D57529"/>
<path d="M360.325 98.3291H361.666V97.0459H360.325V98.3291Z" fill="#FCB629"/>
<path d="M360.032 95.9964C360.032 96.5213 360.441 96.9296 360.965 96.9296C361.549 96.9296 361.957 96.5213 361.957 95.9964C361.957 95.4715 361.549 95.0049 360.965 95.0049C360.441 95.0049 360.032 95.4715 360.032 95.9964Z" fill="#FDC225"/>
<path opacity="0.4" d="M360.207 95.4121C360.207 95.451 360.207 95.5093 360.207 95.587C360.207 96.1119 360.674 96.5202 361.199 96.5202C361.49 96.5202 361.782 96.4036 361.957 96.1703C361.899 96.6369 361.49 96.9285 360.965 96.9285C360.441 96.9285 360.032 96.5203 360.032 95.9953C360.032 95.762 360.091 95.5871 360.207 95.4121Z" fill="#EB892D"/>
<path opacity="0.4" d="M360.149 95.5869C360.11 95.6647 360.091 95.7425 360.091 95.8202C360.091 96.3451 360.557 96.7534 361.082 96.7534C361.432 96.7534 361.782 96.5201 361.957 96.2285C361.84 96.6367 361.432 96.9284 360.965 96.9284C360.441 96.9284 360.032 96.5201 360.032 95.9952C360.032 95.8397 360.071 95.7036 360.149 95.5869Z" fill="#D06F27"/>
<path d="M361.024 95.6455C361.258 95.8205 361.491 95.8788 361.549 95.7622C361.666 95.6455 361.607 95.4122 361.374 95.2373C361.199 95.0623 360.966 95.0623 360.849 95.179C360.791 95.2956 360.849 95.5289 361.024 95.6455Z" fill="#FEFEFE"/>
<path d="M361.608 95.8793C361.608 95.9376 361.666 95.996 361.725 95.996C361.783 95.996 361.783 95.9376 361.783 95.8793C361.783 95.821 361.783 95.7627 361.725 95.7627C361.666 95.7627 361.608 95.821 361.608 95.8793Z" fill="#FEFEFE"/>
<path d="M360.208 96.9289C360.208 97.0456 360.266 97.1622 360.383 97.1622H361.608C361.725 97.1622 361.783 97.0456 361.783 96.9289C361.783 96.8706 361.725 96.7539 361.608 96.7539H360.383C360.266 96.7539 360.208 96.8706 360.208 96.9289Z" fill="#FDC225"/>
<path d="M361.608 97.162H360.383C360.266 97.162 360.208 97.0454 360.208 96.9287H361.783C361.783 97.0454 361.725 97.162 361.608 97.162Z" fill="#EB892D"/>
<path d="M360.266 96.8115C360.266 96.8504 360.285 96.8699 360.324 96.8699H361.607C361.646 96.8699 361.666 96.8504 361.666 96.8115C361.666 96.8115 361.646 96.8115 361.607 96.8115H360.324C360.285 96.8115 360.266 96.8115 360.266 96.8115Z" fill="#FEE7A9"/>
<path d="M361.374 100.253C361.374 100.253 359.041 99.4363 355.775 101.186C352.684 102.936 352.159 103.169 351.692 103.169V110.226C351.692 110.226 353.034 110.284 355.542 108.476C355.542 108.476 358.691 105.735 361.374 107.368V100.253Z" fill="#FCB629"/>
</g>
<defs>
<linearGradient id="paint0_linear_180_3465" x1="194" y1="0" x2="194" y2="207" gradientUnits="userSpaceOnUse">
<stop stop-color="#6AC24C"/>
<stop offset="1" stop-color="#E9FFE1"/>
</linearGradient>
<linearGradient id="paint1_linear_180_3465" x1="-342496" y1="20886" x2="-340749" y2="232580" gradientUnits="userSpaceOnUse">
<stop stop-color="#E6ECF4"/>
<stop offset="1" stop-color="#8DD3DA"/>
</linearGradient>
<linearGradient id="paint2_linear_180_3465" x1="-258735" y1="14308" x2="-257665" y2="158339" gradientUnits="userSpaceOnUse">
<stop stop-color="#E6ECF4"/>
<stop offset="1" stop-color="#8DD3DA"/>
</linearGradient>
<clipPath id="clip0_180_3465">
<rect width="388" height="207" rx="29" fill="white"/>
</clipPath>
</defs>
</svg>
