<svg width="388" height="207" viewBox="0 0 388 207" fill="none" xmlns="http://www.w3.org/2000/svg">
<g clip-path="url(#clip0_180_2657)">
<rect width="388" height="207" rx="29" fill="url(#paint0_linear_180_2657)"/>
<path opacity="0.31" d="M466.953 -9.38347C461.708 -14.3718 455.051 -3.38058 451.661 -3.38058C448.313 -3.38058 448.353 -11.3704 442.382 -17.331C436.37 -23.2917 424.467 -11.3704 416.64 -11.3704C408.772 -11.3704 413.009 -18.3879 406.876 -17.2042C400.703 -16.0205 409.216 2.62235 394.166 0.593199C380.125 -1.26686 379.601 -1.39369 379.601 -1.39369C379.601 -1.39369 379.278 -1.26685 372.702 1.60779C365.762 4.60925 363.381 18.602 358.903 27.6063C354.465 36.6107 348.13 25.6194 340.101 28.6209C332.072 31.6224 334.735 38.5976 326.746 37.6253C318.797 36.6107 322.348 28.6209 314.077 28.6209C305.806 28.6209 306.128 37.6253 301.045 36.6107C295.961 35.6384 293.701 31.6224 285.713 34.6238C277.764 37.6253 276.513 48.6165 277.603 49.0393C278.652 49.4197 270.784 56.6063 262.836 56.6063C254.927 56.6063 256.461 62.6092 253.919 66.6253C251.377 70.6413 245.002 66.6253 239.152 67.6399C233.301 68.6122 230.679 74.6151 224.505 80.618C218.292 86.621 214.459 78.6311 208.528 75.6297C202.597 72.6282 197.271 78.6311 193.559 82.6472C189.847 86.6209 186.781 89.6224 175.645 84.6341C164.509 79.6457 157.085 100.614 157.085 100.614C151.235 99.6413 151.477 95.6253 142.439 98.6268C133.401 101.628 136.185 109.618 132.312 104.63C128.438 99.6413 126.663 98.6268 122.225 101.628C117.827 104.63 115.204 113.634 111.17 113.888C107.135 114.184 102.777 104.63 95.9989 104.63C89.2206 104.63 89.4223 113.634 83.0474 113.888C76.7129 114.184 75.099 119.637 75.0183 106.617C74.9376 93.6385 66.505 99.6414 60.0091 99.6414C53.5535 99.6414 51.2133 94.6107 49.9222 85.6486C48.6311 76.6442 42.6193 77.6166 34.9533 78.6311C27.247 79.6457 27.368 72.6282 26.3997 62.4825C25.4717 52.2944 20.6703 57.6209 16.3935 56.6063C12.0763 55.634 5.41901 64.6384 3.36127 47.602C1.30356 30.6078 -16.8528 36.2725 -16.8528 36.2725C-20.3227 20.2929 -37.551 25.6194 -43.5628 22.618C-49.6149 19.6588 -55.3846 16.2769 -63.0909 22.618C-70.7973 28.9591 -73.1778 33.6092 -78.7054 34.962C-84.233 36.2725 -83.3857 28.2827 -94.683 29.6355C-105.98 30.946 -103.721 42.9518 -115.865 49.6311C-128.01 56.2682 -116.471 42.9518 -125.307 38.9358C-134.102 34.962 -144.472 45.6151 -150.685 54.9576C-156.939 64.3002 -166.098 65.6107 -171.222 54.9576C-176.306 44.3046 -196.641 48.2784 -203.016 48.2784C-209.391 48.2784 -213.183 42.9518 -217.783 37.7944C-222.383 32.6792 -229.726 32.2988 -237.795 36.2725C-245.905 40.2886 -247.559 36.2725 -253.289 25.6195C-255.508 21.4766 -258.372 18.771 -261.641 17.0801C-266.159 25.4926 -270.759 34.3279 -275.318 43.6282C-313.326 120.567 -303.965 168.59 -288.593 195.857L-157.706 200C-157.706 200 324.244 179.793 474.659 170.493C474.861 162.63 473.207 155.274 468.365 149.567C448.232 125.851 427.292 136.039 472.158 68.8658C487.046 46.4606 486.602 23.3789 477.968 1.26957C476.233 2.15733 474.538 3.00281 472.965 3.59465C465.138 6.59611 472.198 -4.39513 466.953 -9.38347Z" fill="url(#paint1_linear_180_2657)"/>
<path opacity="0.6" d="M451.117 91.5428C447.153 88.1489 442.122 95.6269 439.561 95.6269C437.03 95.6269 437.061 90.1909 432.548 86.1355C428.005 82.0801 419.01 90.1909 413.094 90.1909C407.148 90.1909 410.35 85.4165 405.715 86.2218C401.05 87.0271 407.484 99.7111 396.11 98.3305C385.499 97.065 385.103 96.9787 385.103 96.9787C385.103 96.9787 384.859 97.065 379.889 99.0208C374.644 101.063 372.845 110.583 369.461 116.709C366.107 122.836 361.32 115.358 355.252 117.4C349.184 119.442 351.196 124.187 345.159 123.526C339.152 122.836 341.836 117.4 335.585 117.4C329.334 117.4 329.578 123.526 325.736 122.836C321.894 122.174 320.187 119.442 314.149 121.484C308.142 123.526 307.197 131.004 308.02 131.292C308.813 131.55 302.867 136.44 296.86 136.44C290.884 136.44 292.043 140.524 290.122 143.256C288.201 145.989 283.383 143.256 278.962 143.947C274.541 144.608 272.559 148.692 267.893 152.777C263.198 156.861 260.301 151.425 255.819 149.383C251.337 147.341 247.312 151.425 244.506 154.157C241.701 156.861 239.384 158.903 230.968 155.509C222.553 152.115 216.942 166.381 216.942 166.381C212.521 165.719 212.704 162.987 205.874 165.029C199.044 167.071 201.147 172.507 198.22 169.113C195.293 165.719 193.951 165.029 190.597 167.071C187.274 169.113 185.292 175.24 182.243 175.412C179.194 175.614 175.9 169.113 170.778 169.113C165.655 169.113 165.808 175.24 160.99 175.412C156.203 175.614 154.983 179.324 154.922 170.465C154.861 161.635 148.488 165.719 143.579 165.719C138.701 165.719 136.932 162.297 135.956 156.199C134.981 150.073 130.438 150.735 124.644 151.425C118.82 152.115 118.912 147.341 118.18 140.438C117.479 133.506 113.85 137.13 110.618 136.44C107.355 135.778 102.324 141.905 100.769 130.314C99.2141 118.751 85.493 122.606 85.493 122.606C82.8707 111.734 69.8508 115.358 65.3075 113.315C60.7338 111.302 56.3735 109.001 50.5496 113.315C44.7257 117.63 42.9267 120.794 38.7494 121.714C34.572 122.606 35.2124 117.17 26.6747 118.09C18.1371 118.982 19.8446 127.15 10.6667 131.694C1.48869 136.21 10.2093 127.15 3.53165 124.418C-3.11552 121.714 -10.9519 128.962 -15.6476 135.318C-20.3737 141.675 -27.2953 142.566 -31.1678 135.318C-35.0097 128.07 -50.3774 130.774 -55.1951 130.774C-60.0128 130.774 -62.879 127.15 -66.355 123.641C-69.8311 120.161 -75.3805 119.902 -81.4788 122.606C-87.6076 125.338 -88.8578 122.606 -93.1876 115.358C-94.8646 112.539 -97.0295 110.698 -99.4993 109.548C-102.914 115.271 -106.39 121.282 -109.836 127.61C-138.559 179.957 -131.485 212.63 -119.868 231.181L-20.9531 234C-20.9531 234 343.269 220.252 456.941 213.924C457.094 208.575 455.844 203.57 452.185 199.687C436.969 183.552 421.144 190.483 455.051 144.781C466.302 129.537 465.967 113.833 459.441 98.7907C458.13 99.3947 456.85 99.9699 455.661 100.373C449.745 102.415 455.081 94.9366 451.117 91.5428Z" fill="url(#paint2_linear_180_2657)"/>
<path d="M47.2907 191.454H403.351V48.6904H47.2907V191.454Z" fill="#7A8F9C"/>
<path d="M6 243.999H444.697V191.453H6V243.999Z" fill="#4E6573"/>
<path d="M392.49 243.999H58.2072L61.4878 237.382L65.7865 228.897L69.1802 222.053L73.4224 213.569L76.8162 206.781L81.0583 198.241L84.4521 191.453H366.189L369.583 198.241L373.881 206.781L377.275 213.569L381.517 222.053L384.911 228.897L389.21 237.382L392.49 243.999Z" fill="#587C91"/>
<path d="M83.0945 48.6904H366.189V191.454H83.0945V48.6904Z" fill="#98B2C2"/>
<path d="M151.874 60.0596V90.9991H88.6943V60.0596H151.874Z" fill="#48677A"/>
<path d="M220.767 60.0596V90.9991H157.587V60.0596H220.767Z" fill="#48677A"/>
<path d="M289.716 60.0596V90.9991H226.536V60.0596H289.716Z" fill="#48677A"/>
<path d="M358.666 60.0596V90.9991H295.486V60.0596H358.666Z" fill="#48677A"/>
<path d="M413.135 48.6903H34.3376V38H413.135V48.6903Z" fill="#9CB6C7"/>
<path d="M71.8951 76.8021C71.8951 73.0125 68.8973 70.0146 65.1642 70.0146C61.3745 70.0146 58.3767 73.0125 58.3767 76.8021C58.3767 80.5352 61.3745 83.5331 65.1642 83.5331C68.8973 83.5331 71.8951 80.5352 71.8951 76.8021Z" fill="#FAD690"/>
<path d="M71.8951 104.517C71.8951 100.784 68.8973 97.7861 65.1642 97.7861C61.3745 97.7861 58.3767 100.784 58.3767 104.517C58.3767 108.307 61.3745 111.305 65.1642 111.305C68.8973 111.305 71.8951 108.307 71.8951 104.517Z" fill="#FAD690"/>
<path d="M71.8951 132.289C71.8951 128.556 68.8973 125.559 65.1642 125.559C61.3745 125.559 58.3767 128.556 58.3767 132.289C58.3767 136.023 61.3745 139.077 65.1642 139.077C68.8973 139.077 71.8951 136.023 71.8951 132.289Z" fill="#FAD690"/>
<path d="M71.8951 160.061C71.8951 156.328 68.8973 153.33 65.1642 153.33C61.3745 153.33 58.3767 156.328 58.3767 160.061C58.3767 163.794 61.3745 166.848 65.1642 166.848C68.8973 166.848 71.8951 163.794 71.8951 160.061Z" fill="#FAD690"/>
<path d="M392.49 76.8021C392.49 73.0125 389.436 70.0146 385.702 70.0146C381.969 70.0146 378.915 73.0125 378.915 76.8021C378.915 80.5352 381.969 83.5331 385.702 83.5331C389.436 83.5331 392.49 80.5352 392.49 76.8021Z" fill="#FAD690"/>
<path d="M392.49 104.517C392.49 100.784 389.436 97.7861 385.702 97.7861C381.969 97.7861 378.915 100.784 378.915 104.517C378.915 108.307 381.969 111.305 385.702 111.305C389.436 111.305 392.49 108.307 392.49 104.517Z" fill="#FAD690"/>
<path d="M392.49 132.289C392.49 128.556 389.436 125.559 385.702 125.559C381.969 125.559 378.915 128.556 378.915 132.289C378.915 136.023 381.969 139.077 385.702 139.077C389.436 139.077 392.49 136.023 392.49 132.289Z" fill="#FAD690"/>
<path d="M392.49 160.061C392.49 156.328 389.436 153.33 385.702 153.33C381.969 153.33 378.915 156.328 378.915 160.061C378.915 163.794 381.969 166.848 385.702 166.848C389.436 166.848 392.49 163.794 392.49 160.061Z" fill="#FAD690"/>
<path d="M245.032 138.794V191.906H203.628V138.794H245.032Z" fill="#48677A"/>
<path d="M193.9 138.794V191.906H152.44V138.794H193.9Z" fill="#48677A"/>
<path d="M295.486 138.794V191.906H254.026V138.794H295.486Z" fill="#48677A"/>
<path d="M152.44 134.495H148.028V191.453H152.44V134.495Z" fill="#B8D7EB"/>
<path d="M295.486 136.136H300.124V191.454H295.486V136.136Z" fill="#B8D7EB"/>
<g style="mix-blend-mode:screen" opacity="0.29">
<path d="M185.133 138.794L152.44 171.204V159.609L172.463 138.794H185.133Z" fill="#B8D7EB"/>
</g>
<g style="mix-blend-mode:screen" opacity="0.29">
<path d="M165.449 191.906L193.9 154.914V165.491L172.632 191.906H165.449Z" fill="#B8D7EB"/>
</g>
<g style="mix-blend-mode:screen" opacity="0.29">
<path d="M215.393 138.794L203.628 153.387V142.244L206.286 138.794H215.393Z" fill="#B8D7EB"/>
</g>
<g style="mix-blend-mode:screen" opacity="0.29">
<path d="M229.591 191.906L245.032 169.903V181.159L237.113 191.906H229.591Z" fill="#B8D7EB"/>
</g>
<g style="mix-blend-mode:screen" opacity="0.29">
<path d="M276.425 138.794L254.026 168.998V157.007L266.866 138.794H276.425Z" fill="#B8D7EB"/>
</g>
<g style="mix-blend-mode:screen" opacity="0.29">
<path d="M229.591 139.076L200.574 175.785V167.188L220.597 139.076H229.591Z" fill="#B8D7EB"/>
</g>
<g style="mix-blend-mode:screen" opacity="0.29">
<path d="M295.486 149.201V175.899L282.872 191.906H265.281L295.486 149.201Z" fill="#B8D7EB"/>
</g>
<path d="M300.124 139.077H148.028V134.495H300.124V139.077Z" fill="#B8D7EB"/>
<path d="M203.629 191.906H193.9V139.077H203.629V191.906Z" fill="#B8D7EB"/>
<path d="M254.422 191.906H244.693V139.077H254.422V191.906Z" fill="#B8D7EB"/>
<path d="M173.028 111.644C171.859 110.475 170.691 109.589 169.522 108.986C168.353 108.42 167.127 108.137 165.845 108.137C163.62 108.137 161.791 108.91 160.358 110.457C158.926 112.003 158.209 113.982 158.209 116.396C158.209 118.809 158.926 120.77 160.358 122.278C161.754 123.786 163.583 124.541 165.845 124.541C167.165 124.541 168.503 124.258 169.861 123.692C171.181 123.127 172.501 122.297 173.82 121.203L173.424 128.217C172.293 128.971 171.068 129.556 169.748 129.971C168.39 130.348 166.995 130.536 165.562 130.536C163.978 130.536 162.47 130.291 161.037 129.801C159.642 129.348 158.341 128.632 157.134 127.651C155.438 126.332 154.137 124.71 153.232 122.787C152.327 120.864 151.874 118.771 151.874 116.509C151.874 114.548 152.195 112.7 152.836 110.966C153.514 109.269 154.495 107.76 155.777 106.441C157.059 105.121 158.549 104.122 160.245 103.443C161.942 102.726 163.715 102.368 165.562 102.368C167.071 102.368 168.485 102.576 169.804 102.99C171.162 103.405 172.463 104.027 173.707 104.857L173.028 111.644Z" fill="#F06060"/>
<path d="M178.005 129.687V103.272H184.34V129.687H178.005Z" fill="#F06060"/>
<path d="M190.449 129.688V102.425H191.072L207.531 117.81V103.273H213.357V130.706H212.792L196.275 115.264V129.688H190.449Z" fill="#F06060"/>
<path d="M219.409 129.687V103.272H235.699V108.702H225.518V113.51H234.229V118.884H225.518V124.144H235.813V129.687H219.409Z" fill="#F06060"/>
<path d="M238.471 129.688L243.958 102.425H244.41L254.365 119.62L263.811 102.425H264.264L269.807 129.688H263.811L261.549 117.64L254.478 130.649H254.026L246.446 117.47L244.127 129.688H238.471Z" fill="#F06060"/>
<path fill-rule="evenodd" clip-rule="evenodd" d="M269.524 129.688L282.985 102.425H283.381L296.56 129.688H289.943L288.302 125.842H277.555L275.859 129.688H269.524ZM279.365 121.317H286.323L282.929 113.002L279.365 121.317Z" fill="#F06060"/>
<path d="M95.7648 176.068H141.58V106.101H95.7648V176.068Z" fill="#FAD690"/>
<path d="M307.93 175.843H353.519V106.102H307.93V175.843Z" fill="#FAD690"/>
<path d="M138.978 106.102V168.094H98.3662V106.102H138.978Z" fill="#2B8A9E"/>
<path d="M351.03 106.101V168.093H310.419V106.101H351.03Z" fill="#CC7878"/>
<g style="mix-blend-mode:screen" opacity="0.29">
<path d="M124.384 60.0596L100.402 90.9991H90.5602L107.585 60.0596H124.384Z" fill="#B8D7EB"/>
</g>
<g style="mix-blend-mode:screen" opacity="0.29">
<path d="M148.198 60.0596H151.874V88.3973L150.347 90.9991H134.17L148.198 60.0596Z" fill="#B8D7EB"/>
</g>
<g style="mix-blend-mode:screen" opacity="0.29">
<path d="M168.334 60.0596L157.587 78.4989V60.0596H168.334Z" fill="#B8D7EB"/>
</g>
<g style="mix-blend-mode:screen" opacity="0.29">
<path d="M213.018 60.0596L198.481 90.9991H193.221L207.362 60.0596H213.018Z" fill="#B8D7EB"/>
</g>
<g style="mix-blend-mode:screen" opacity="0.29">
<path d="M220.767 60.0596V67.0733L208.776 90.9991H203.572L218.618 60.0596H220.767Z" fill="#B8D7EB"/>
</g>
<g style="mix-blend-mode:screen" opacity="0.29">
<path d="M262.68 60.0596L247.351 90.9991H240.451L254.705 60.0596H262.68Z" fill="#B8D7EB"/>
</g>
<g style="mix-blend-mode:screen" opacity="0.29">
<path d="M354.367 60.0596L324.728 90.9991H311.436L333.213 60.0596H354.367Z" fill="#B8D7EB"/>
</g>
<g style="mix-blend-mode:screen" opacity="0.29">
<path d="M358.666 78.1025V90.9987H346.449L358.666 78.1025Z" fill="#B8D7EB"/>
</g>
<g style="mix-blend-mode:multiply" opacity="0.74">
<path d="M403.351 65.8288H47.2907V48.6904H403.351V65.8288Z" fill="#9CB6C7"/>
</g>
<path d="M369.583 198.241H81.0586L84.4523 191.453H366.189L369.583 198.241Z" fill="#6690A8"/>
<path d="M377.276 213.57H73.4229L76.8166 206.782H373.882L377.276 213.57Z" fill="#6690A8"/>
<path d="M138.978 106.101V157.572C128.458 161.362 110.414 155.479 111.093 149.201C111.941 141.509 126.308 128.612 124.385 125.558C122.462 122.447 112.337 131.893 105.38 127.368C100.799 124.427 106.511 113.85 112.337 106.101H138.978Z" fill="#2E92A8"/>
<path d="M122.066 168.093H98.3662V135.57C100.629 134.608 103.683 133.647 105.776 134.495C109.452 135.966 104.927 148.862 103.74 153.274C102.495 157.742 116.014 161.984 120.935 166.849C121.349 167.263 121.726 167.678 122.066 168.093Z" fill="#2E92A8"/>
<path d="M351.03 157.29C349.729 156.611 348.033 155.763 347.919 154.801C347.75 153.161 346.449 142.414 345.544 140.943C344.639 139.529 341.358 132.572 339.548 130.932C337.738 129.292 332.817 129.857 332.082 127.991C331.347 126.181 335.363 121.825 332.93 117.64C330.442 113.398 325.69 112.323 323.145 117.64C320.6 122.9 323.315 125.615 323.145 127.991C323.145 127.991 318.394 129.857 316.188 131.498C314.944 132.403 312.398 134.778 310.419 136.645V145.412C313.586 144.903 318.055 144.45 319.129 146.091C320.43 148.127 313.473 153.161 310.419 155.197V168.093H344.808C340.566 161.758 337.342 143.149 338.643 143.149C340.114 143.149 340.114 148.636 341.528 150.276C342.999 151.917 344.469 159.383 344.299 160.062C344.13 160.74 346.845 164.134 348.655 163.795C349.503 163.625 350.352 162.55 351.03 161.419V157.29Z" fill="#DE8282"/>
<g style="mix-blend-mode:overlay" opacity="0.8">
<path opacity="0.01" d="M0.369682 201.807V203.653H92.6992V201.807H0.369682Z" fill="#FFDF10"/>
<path opacity="0.02" d="M0.739357 200.698V202.545H92.3302V200.698H0.739357Z" fill="#FFE011"/>
<path opacity="0.02" d="M0.739357 199.96V201.807H91.961V199.96H0.739357Z" fill="#FFE013"/>
<path opacity="0.03" d="M1.10723 198.853V201.068H91.9596V198.853H1.10723Z" fill="#FFE014"/>
<path opacity="0.04" d="M1.47691 198.113V199.96H91.5904V198.113H1.47691Z" fill="#FFE015"/>
<path opacity="0.04" d="M1.47691 197.006V199.222H91.2212V197.006H1.47691Z" fill="#FFE017"/>
<path opacity="0.05" d="M1.84659 196.267V198.113H91.2216V196.267H1.84659Z" fill="#FFE018"/>
<path opacity="0.05" d="M2.21627 195.159V197.375H90.8526V195.159H2.21627Z" fill="#FFE119"/>
<path opacity="0.06" d="M2.21627 194.421V196.267H90.4834V194.421H2.21627Z" fill="#FFE11B"/>
<path opacity="0.06" d="M2.58595 193.312V195.528H90.4836V193.312H2.58595Z" fill="#FFE11C"/>
<path opacity="0.07" d="M2.95383 192.574V194.421H90.1131V192.574H2.95383Z" fill="#FFE11E"/>
<path opacity="0.07" d="M2.95383 191.466V193.682H90.1131V191.466H2.95383Z" fill="#FFE11F"/>
<path opacity="0.08" d="M3.3235 190.728V192.574H89.7438V190.728H3.3235Z" fill="#FFE220"/>
<path opacity="0.09" d="M3.3235 189.619V191.835H89.3746V189.619H3.3235Z" fill="#FFE222"/>
<path opacity="0.09" d="M3.69318 188.881V190.727H89.375V188.881H3.69318Z" fill="#FFE223"/>
<path opacity="0.1" d="M4.06286 187.772V189.988H89.006V187.772H4.06286Z" fill="#FFE225"/>
<path opacity="0.1" d="M4.06286 187.034V188.881H88.6368V187.034H4.06286Z" fill="#FFE226"/>
<path opacity="0.11" d="M4.43254 185.926V188.142H88.637V185.926H4.43254Z" fill="#FFE227"/>
<path opacity="0.11" d="M4.80042 185.188V187.034H88.2665V185.188H4.80042Z" fill="#FFE329"/>
<path opacity="0.12" d="M4.80042 184.079V186.295H87.897V184.079H4.80042Z" fill="#FFE32A"/>
<path opacity="0.13" d="M5.1701 183.341V185.187H87.8972V183.341H5.1701Z" fill="#FFE32B"/>
<path opacity="0.13" d="M5.53977 182.232V184.448H87.5285V182.232H5.53977Z" fill="#FFE32D"/>
<path opacity="0.14" d="M5.53977 181.494V183.341H87.159V181.494H5.53977Z" fill="#FFE32E"/>
<path opacity="0.14" d="M5.90945 180.386V182.602H87.1595V180.386H5.90945Z" fill="#FFE430"/>
<path opacity="0.15" d="M6.27913 179.647V181.494H86.7905V179.647H6.27913Z" fill="#FFE431"/>
<path opacity="0.15" d="M6.27913 178.54V180.756H86.7905V178.54H6.27913Z" fill="#FFE432"/>
<path opacity="0.16" d="M6.647 177.801V179.647H86.4199V177.801H6.647Z" fill="#FFE434"/>
<path opacity="0.16" d="M6.647 176.693V178.909H86.0504V176.693H6.647Z" fill="#FFE435"/>
<path opacity="0.17" d="M7.01669 175.954V177.801H86.0506V175.954H7.01669Z" fill="#FFE436"/>
<path opacity="0.18" d="M7.38636 175.216V177.062H85.6819V175.216H7.38636Z" fill="#FFE538"/>
<path opacity="0.18" d="M7.38636 174.108V175.955H85.3124V174.108H7.38636Z" fill="#FFE539"/>
<path opacity="0.19" d="M7.75604 173.369V175.216H85.3129V173.369H7.75604Z" fill="#FFE53B"/>
<path opacity="0.2" d="M8.12572 172.262V174.108H84.9439V172.262H8.12572Z" fill="#FFE53C"/>
<path opacity="0.2" d="M8.12572 171.522V173.369H84.5746V171.522H8.12572Z" fill="#FFE53D"/>
<path opacity="0.2" d="M8.4936 170.415V172.262H84.5733V170.415H8.4936Z" fill="#FFE63F"/>
<path opacity="0.21" d="M8.86327 169.677V171.523H84.204V169.677H8.86327Z" fill="#FFE640"/>
<path opacity="0.22" d="M8.86327 168.568V170.784H83.8348V168.568H8.86327Z" fill="#FFE642"/>
<path opacity="0.22" d="M9.23296 167.83V169.677H83.8353V167.83H9.23296Z" fill="#FFE643"/>
<path opacity="0.23" d="M9.60263 166.722V168.937H83.4663V166.722H9.60263Z" fill="#FFE644"/>
<path opacity="0.24" d="M9.60263 165.983V167.83H83.4663V165.983H9.60263Z" fill="#FFE646"/>
<path opacity="0.24" d="M9.97231 164.875V167.091H83.0973V164.875H9.97231Z" fill="#FFE747"/>
<path opacity="0.25" d="M9.97231 164.137V165.983H82.728V164.137H9.97231Z" fill="#FFE748"/>
<path opacity="0.25" d="M10.3402 163.028V165.244H82.7267V163.028H10.3402Z" fill="#FFE74A"/>
<path opacity="0.26" d="M10.7099 162.29V164.137H82.3575V162.29H10.7099Z" fill="#FFE74B"/>
<path opacity="0.26" d="M10.7099 161.182V163.397H81.9882V161.182H10.7099Z" fill="#FFE74D"/>
<path opacity="0.27" d="M11.0795 160.443V162.29H81.9887V160.443H11.0795Z" fill="#FFE84E"/>
<path opacity="0.27" d="M11.4492 159.335V161.551H81.6197V159.335H11.4492Z" fill="#FFE84F"/>
<path opacity="0.28" d="M11.4492 158.597V160.443H81.2505V158.597H11.4492Z" fill="#FFE851"/>
<path opacity="0.29" d="M11.8189 157.488V159.704H81.2507V157.488H11.8189Z" fill="#FFE852"/>
<path opacity="0.29" d="M12.1868 156.75V158.597H80.8801V156.75H12.1868Z" fill="#FFE854"/>
<path opacity="0.3" d="M12.1868 155.642V157.857H80.8801V155.642H12.1868Z" fill="#FFE955"/>
<path opacity="0.3" d="M12.5565 154.903V156.75H80.5109V154.903H12.5565Z" fill="#FFE956"/>
<path opacity="0.31" d="M12.5565 153.796V156.012H80.1416V153.796H12.5565Z" fill="#FFE958"/>
<path opacity="0.31" d="M12.9261 153.057V154.903H80.1421V153.057H12.9261Z" fill="#FFE959"/>
<path opacity="0.32" d="M13.2958 151.949V154.165H79.7731V151.949H13.2958Z" fill="#FFE95A"/>
<path opacity="0.33" d="M13.2958 151.21V153.057H79.4039V151.21H13.2958Z" fill="#FFE95C"/>
<path opacity="0.33" d="M13.6655 150.103V152.318H79.4041V150.103H13.6655Z" fill="#FFEA5D"/>
<path opacity="0.34" d="M14.0334 149.364V151.211H79.0335V149.364H14.0334Z" fill="#FFEA5F"/>
<path opacity="0.34" d="M14.0334 148.256V150.472H78.6641V148.256H14.0334Z" fill="#FFEA60"/>
<path opacity="0.35" d="M14.403 147.518V149.364H78.6643V147.518H14.403Z" fill="#FFEA61"/>
<path opacity="0.35" d="M14.7727 146.409V148.625H78.2955V146.409H14.7727Z" fill="#FFEA63"/>
<path opacity="0.36" d="M14.7727 145.671V147.517H77.926V145.671H14.7727Z" fill="#FFEB64"/>
<path opacity="0.36" d="M15.1424 144.562V146.778H77.9265V144.562H15.1424Z" fill="#FFEB66"/>
<path opacity="0.37" d="M15.5121 143.824V145.671H77.5575V143.824H15.5121Z" fill="#FFEB67"/>
<path opacity="0.38" d="M15.5121 143.086V144.933H77.5575V143.086H15.5121Z" fill="#FFEB68"/>
<path opacity="0.38" d="M15.88 141.978V143.824H77.1869V141.978H15.88Z" fill="#FFEB6A"/>
<path opacity="0.39" d="M15.88 141.239V143.086H76.8175V141.239H15.88Z" fill="#FFEB6B"/>
<path opacity="0.4" d="M16.2496 140.131V141.977H76.8177V140.131H16.2496Z" fill="#FFEC6C"/>
<path opacity="0.4" d="M16.6193 139.393V141.239H76.4489V139.393H16.6193Z" fill="#FFEC6E"/>
<path opacity="0.4" d="M16.6193 138.284V140.131H76.0795V138.284H16.6193Z" fill="#FFEC6F"/>
<path opacity="0.41" d="M16.989 137.546V139.392H76.0799V137.546H16.989Z" fill="#FFEC71"/>
<path opacity="0.42" d="M17.3587 136.438V138.654H75.7109V136.438H17.3587Z" fill="#FFEC72"/>
<path opacity="0.42" d="M17.3587 135.699V137.546H75.3417V135.699H17.3587Z" fill="#FFED73"/>
<path opacity="0.43" d="M17.7265 134.591V136.807H75.3403V134.591H17.7265Z" fill="#FFED75"/>
<path opacity="0.44" d="M18.0962 133.853V135.699H74.9711V133.853H18.0962Z" fill="#FFED76"/>
<path opacity="0.44" d="M18.0962 132.744V134.96H74.6019V132.744H18.0962Z" fill="#FFED77"/>
<path opacity="0.45" d="M18.4659 132.006V133.852H74.6023V132.006H18.4659Z" fill="#FFED79"/>
<path opacity="0.45" d="M18.8356 130.897V133.114H74.2333V130.897H18.8356Z" fill="#FFED7A"/>
<path opacity="0.46" d="M18.8356 130.159V132.006H74.2333V130.159H18.8356Z" fill="#FFEE7C"/>
<path opacity="0.46" d="M19.2053 129.052V131.268H73.8643V129.052H19.2053Z" fill="#FFEE7D"/>
<path opacity="0.47" d="M19.2053 128.312V130.159H73.4951V128.312H19.2053Z" fill="#FFEE7E"/>
<path opacity="0.47" d="M19.5731 127.205V129.421H73.4937V127.205H19.5731Z" fill="#FFEE80"/>
<path opacity="0.48" d="M19.9428 126.466V128.312H73.1245V126.466H19.9428Z" fill="#FFEE81"/>
<path opacity="0.49" d="M19.9428 125.358V127.574H72.7553V125.358H19.9428Z" fill="#FFEF83"/>
<path opacity="0.49" d="M20.3125 124.62V126.467H72.7557V124.62H20.3125Z" fill="#FFEF84"/>
<path opacity="0.5" d="M20.6822 123.512V125.728H72.3867V123.512H20.6822Z" fill="#FFEF85"/>
<path opacity="0.5" d="M20.6822 122.773V124.62H72.0175V122.773H20.6822Z" fill="#FFEF87"/>
<path opacity="0.51" d="M21.0519 121.665V123.881H72.0177V121.665H21.0519Z" fill="#FFEF88"/>
<path opacity="0.51" d="M21.4197 120.927V122.773H71.6471V120.927H21.4197Z" fill="#FFEF89"/>
<path opacity="0.52" d="M21.4197 119.818V122.034H71.2777V119.818H21.4197Z" fill="#FFF08B"/>
<path opacity="0.53" d="M21.7894 119.08V120.927H71.2779V119.08H21.7894Z" fill="#FFF08C"/>
<path opacity="0.53" d="M22.1591 117.972V120.188H70.9091V117.972H22.1591Z" fill="#FFF08E"/>
<path opacity="0.54" d="M22.1591 117.233V119.08H70.9091V117.233H22.1591Z" fill="#FFF08F"/>
<path opacity="0.54" d="M22.5288 116.125V118.341H70.5401V116.125H22.5288Z" fill="#FFF090"/>
<path opacity="0.55" d="M22.5288 115.387V117.233H70.1709V115.387H22.5288Z" fill="#FFF192"/>
<path opacity="0.55" d="M22.8985 114.278V116.494H70.1711V114.278H22.8985Z" fill="#FFF193"/>
<path opacity="0.56" d="M23.2663 113.54V115.387H69.8006V113.54H23.2663Z" fill="#FFF195"/>
<path opacity="0.56" d="M23.2663 112.432V114.648H69.4311V112.432H23.2663Z" fill="#FFF196"/>
<path opacity="0.57" d="M23.636 111.693V113.54H69.4313V111.693H23.636Z" fill="#FFF197"/>
<path opacity="0.58" d="M24.0057 110.954V112.801H69.0625V110.954H24.0057Z" fill="#FFF199"/>
<path opacity="0.58" d="M24.0057 109.847V111.693H68.6931V109.847H24.0057Z" fill="#FFF29A"/>
<path opacity="0.59" d="M24.3754 109.107V110.954H68.6935V109.107H24.3754Z" fill="#FFF29B"/>
<path opacity="0.6" d="M24.745 108V109.847H68.3245V108H24.745Z" fill="#FFF29D"/>
<path opacity="0.6" d="M24.745 107.261V109.107H68.3245V107.261H24.745Z" fill="#FFF29E"/>
<path opacity="0.6" d="M25.1129 106.153V108.369H67.954V106.153H25.1129Z" fill="#FFF2A0"/>
<path opacity="0.61" d="M25.1129 105.414V107.261H67.5845V105.414H25.1129Z" fill="#FFF3A1"/>
<path opacity="0.62" d="M25.4826 104.308V106.524H67.5847V104.308H25.4826Z" fill="#FFF3A2"/>
<path opacity="0.62" d="M25.8523 103.567V105.414H67.216V103.567H25.8523Z" fill="#FFF3A4"/>
<path opacity="0.63" d="M25.8523 102.461V104.677H66.8465V102.461H25.8523Z" fill="#FFF3A5"/>
<path opacity="0.64" d="M26.222 101.722V103.568H66.847V101.722H26.222Z" fill="#FFF3A6"/>
<path opacity="0.64" d="M26.5916 100.614V102.83H66.4779V100.614H26.5916Z" fill="#FFF3A8"/>
<path opacity="0.65" d="M26.5916 99.875V101.722H66.1087V99.875H26.5916Z" fill="#FFF4A9"/>
<path opacity="0.65" d="M26.9595 98.7676V100.984H66.1074V98.7676H26.9595Z" fill="#FFF4AB"/>
<path opacity="0.66" d="M27.3292 98.0283V99.8749H65.7381V98.0283H27.3292Z" fill="#FFF4AC"/>
<path opacity="0.66" d="M27.3292 96.9209V99.1369H65.3689V96.9209H27.3292Z" fill="#FFF4AD"/>
<path opacity="0.67" d="M27.6989 96.1816V98.0282H65.3694V96.1816H27.6989Z" fill="#FFF4AF"/>
<path opacity="0.67" d="M28.0685 95.0742V97.2903H65.0004V95.0742H28.0685Z" fill="#FFF5B0"/>
<path opacity="0.68" d="M28.0685 94.335V96.1816H65.0004V94.335H28.0685Z" fill="#FFF5B2"/>
<path opacity="0.69" d="M28.4382 93.2275V95.4436H64.6314V93.2275H28.4382Z" fill="#FFF5B3"/>
<path opacity="0.69" d="M28.4382 92.4883V94.3349H64.2621V92.4883H28.4382Z" fill="#FFF5B4"/>
<path opacity="0.7" d="M28.8061 91.3809V93.5969H64.2608V91.3809H28.8061Z" fill="#FFF5B6"/>
<path opacity="0.7" d="M29.1758 90.6416V92.4882H63.8915V90.6416H29.1758Z" fill="#FFF5B7"/>
<path opacity="0.71" d="M29.1758 89.5342V91.7502H63.5223V89.5342H29.1758Z" fill="#FFF6B8"/>
<path opacity="0.71" d="M29.5455 88.7949V90.6415H63.5228V88.7949H29.5455Z" fill="#FFF6BA"/>
<path opacity="0.72" d="M29.9151 87.6875V89.9035H63.1538V87.6875H29.9151Z" fill="#FFF6BB"/>
<path opacity="0.73" d="M29.9151 86.9482V88.7948H62.7845V86.9482H29.9151Z" fill="#FFF6BD"/>
<path opacity="0.73" d="M30.2848 85.8408V88.0569H62.7848V85.8408H30.2848Z" fill="#FFF6BE"/>
<path opacity="0.74" d="M30.6527 85.1016V86.9482H62.4142V85.1016H30.6527Z" fill="#FFF7BF"/>
<path opacity="0.74" d="M30.6527 83.9951V86.2112H62.0447V83.9951H30.6527Z" fill="#FFF7C1"/>
<path opacity="0.75" d="M31.0224 83.2549V85.1015H62.045V83.2549H31.0224Z" fill="#FFF7C2"/>
<path opacity="0.75" d="M31.392 82.1484V84.3645H61.6762V82.1484H31.392Z" fill="#FFF7C4"/>
<path opacity="0.76" d="M31.392 81.4092V83.2558H61.6762V81.4092H31.392Z" fill="#FFF7C5"/>
<path opacity="0.76" d="M31.7617 80.6699V82.5165H61.3072V80.6699H31.7617Z" fill="#FFF8C6"/>
<path opacity="0.77" d="M31.7617 79.5625V81.4091H60.938V79.5625H31.7617Z" fill="#FFF8C8"/>
<path opacity="0.78" d="M32.1314 78.8232V80.6698H60.9382V78.8232H32.1314Z" fill="#FFF8C9"/>
<path opacity="0.78" d="M32.4993 77.7158V79.5624H60.5676V77.7158H32.4993Z" fill="#FFF8CA"/>
<path opacity="0.79" d="M32.4993 76.9775V78.8241H60.1981V76.9775H32.4993Z" fill="#FFF8CC"/>
<path opacity="0.8" d="M32.869 75.8691V77.7157H60.1984V75.8691H32.869Z" fill="#FFF8CD"/>
<path opacity="0.8" d="M33.2386 75.1309V76.9775H59.8296V75.1309H33.2386Z" fill="#FFF9CF"/>
<path opacity="0.8" d="M33.2386 74.0225V76.2383H59.4601V74.0225H33.2386Z" fill="#FFF9D0"/>
<path opacity="0.81" d="M33.6083 73.2842V75.1308H59.4606V73.2842H33.6083Z" fill="#FFF9D1"/>
<path opacity="0.82" d="M33.978 72.1758V74.3916H59.0916V72.1758H33.978Z" fill="#FFF9D3"/>
<path opacity="0.82" d="M33.978 71.4375V73.2841H58.7224V71.4375H33.978Z" fill="#FFF9D4"/>
<path opacity="0.83" d="M34.3459 70.3291V72.5449H58.721V70.3291H34.3459Z" fill="#FFFAD6"/>
<path opacity="0.84" d="M34.7155 69.5908V71.4374H58.3518V69.5908H34.7155Z" fill="#FFFAD7"/>
<path opacity="0.84" d="M34.7155 68.4824V70.6982H58.3518V68.4824H34.7155Z" fill="#FFFAD8"/>
<path opacity="0.85" d="M35.0852 67.7441V69.5907H57.983V67.7441H35.0852Z" fill="#FFFADA"/>
<path opacity="0.85" d="M35.0852 66.6357V68.8516H57.6135V66.6357H35.0852Z" fill="#FFFADB"/>
<path opacity="0.86" d="M35.4549 65.8975V67.7441H57.614V65.8975H35.4549Z" fill="#FFFADC"/>
<path opacity="0.86" d="M35.8246 64.7891V67.0049H57.245V64.7891H35.8246Z" fill="#FFFBDE"/>
<path opacity="0.87" d="M35.8246 64.0508V65.8974H56.8758V64.0508H35.8246Z" fill="#FFFBDF"/>
<path opacity="0.87" d="M36.1925 62.9424V65.1582H56.8744V62.9424H36.1925Z" fill="#FFFBE1"/>
<path opacity="0.88" d="M36.5621 62.2041V64.0507H56.5052V62.2041H36.5621Z" fill="#FFFBE2"/>
<path opacity="0.89" d="M36.5621 61.0967V63.3125H56.136V61.0967H36.5621Z" fill="#FFFBE3"/>
<path opacity="0.89" d="M36.9318 60.3574V62.204H56.1364V60.3574H36.9318Z" fill="#FFFCE5"/>
<path opacity="0.9" d="M37.3015 59.25V61.4658H55.7674V59.25H37.3015Z" fill="#FFFCE6"/>
<path opacity="0.9" d="M37.3015 58.5107V60.3573H55.3982V58.5107H37.3015Z" fill="#FFFCE7"/>
<path opacity="0.91" d="M37.6712 57.4033V59.6191H55.3984V57.4033H37.6712Z" fill="#FFFCE9"/>
<path opacity="0.91" d="M37.6712 56.665V58.5116H55.0292V56.665H37.6712Z" fill="#FFFCEA"/>
<path opacity="0.92" d="M38.039 55.5566V57.7725H55.0278V55.5566H38.039Z" fill="#FFFCEC"/>
<path opacity="0.93" d="M38.4087 54.8184V56.665H54.6586V54.8184H38.4087Z" fill="#FFFDED"/>
<path opacity="0.93" d="M38.4087 53.71V55.9258H54.2894V53.71H38.4087Z" fill="#FFFDEE"/>
<path opacity="0.94" d="M38.7784 52.9717V54.8183H54.2898V52.9717H38.7784Z" fill="#FFFDF0"/>
<path opacity="0.94" d="M39.1481 51.8633V54.0791H53.9208V51.8633H39.1481Z" fill="#FFFDF1"/>
<path opacity="0.95" d="M39.1481 51.125V52.9716H53.5516V51.125H39.1481Z" fill="#FFFDF3"/>
<path opacity="0.95" d="M39.5178 50.0166V52.2324H53.5518V50.0166H39.5178Z" fill="#FFFEF4"/>
<path opacity="0.96" d="M39.8856 49.2783V51.1249H53.1812V49.2783H39.8856Z" fill="#FFFEF5"/>
<path opacity="0.96" d="M39.8856 48.54V50.3866H52.8118V48.54H39.8856Z" fill="#FFFEF7"/>
<path opacity="0.97" d="M40.2553 47.4316V49.2782H52.812V47.4316H40.2553Z" fill="#FFFEF8"/>
<path opacity="0.98" d="M40.625 46.6934V48.54H52.4432V46.6934H40.625Z" fill="#FFFEF9"/>
<path opacity="0.98" d="M40.625 45.585V47.4316H52.4432V45.585H40.625Z" fill="#FFFEFB"/>
<path opacity="0.99" d="M40.9947 44.8467V46.6933H52.0742V44.8467H40.9947Z" fill="#FFFFFC"/>
<path d="M40.9947 43.7383V45.5849H51.705V43.7383H40.9947Z" fill="#FFFFFE"/>
<path d="M41.3644 43V44.8466H51.7052V43H41.3644Z" fill="white"/>
</g>
</g>
<defs>
<linearGradient id="paint0_linear_180_2657" x1="194" y1="0" x2="194" y2="207" gradientUnits="userSpaceOnUse">
<stop stop-color="#FF8B92"/>
<stop offset="1" stop-color="white"/>
</linearGradient>
<linearGradient id="paint1_linear_180_2657" x1="-342496" y1="20886" x2="-340749" y2="232580" gradientUnits="userSpaceOnUse">
<stop stop-color="#E6ECF4"/>
<stop offset="1" stop-color="#8DD3DA"/>
</linearGradient>
<linearGradient id="paint2_linear_180_2657" x1="-258735" y1="14308" x2="-257665" y2="158339" gradientUnits="userSpaceOnUse">
<stop stop-color="#E6ECF4"/>
<stop offset="1" stop-color="#8DD3DA"/>
</linearGradient>
<clipPath id="clip0_180_2657">
<rect width="388" height="207" rx="29" fill="white"/>
</clipPath>
</defs>
</svg>
