<svg width="1440" height="546" viewBox="0 0 1440 546" fill="none" xmlns="http://www.w3.org/2000/svg">
<g clip-path="url(#clip0_180_3728)">
<rect width="1470" height="546" transform="translate(-13)" fill="url(#paint0_linear_180_3728)"/>
<path opacity="0.6" d="M1675.64 319.703C1663.89 309.89 1647.02 329.872 1639.07 329.567C1631.21 329.265 1632.21 314.307 1618.86 302.607C1605.43 290.904 1576.15 312.155 1557.77 311.45C1539.31 310.741 1550.04 297.982 1535.52 299.646C1520.89 301.306 1538.77 336.984 1503.68 331.828C1470.93 327.08 1469.72 326.795 1469.72 326.795C1469.72 326.795 1468.94 327.004 1453.18 331.794C1436.56 336.789 1429.39 362.777 1417.86 379.235C1406.43 395.697 1392.8 374.544 1373.62 379.441C1354.43 384.338 1359.89 397.64 1341.25 395.099C1322.71 392.483 1331.95 377.842 1312.54 377.097C1293.12 376.351 1292.86 393.242 1281.05 390.884C1269.22 388.605 1264.37 380.881 1245.29 385.782C1226.29 390.686 1222.11 411.156 1224.62 412.046C1227.04 412.852 1207.76 425.601 1189.11 424.885C1170.55 424.173 1173.47 435.552 1167.05 442.843C1160.63 450.134 1146.12 442.04 1132.28 443.412C1118.43 444.706 1111.6 455.711 1096.43 466.396C1081.17 477.077 1073.08 461.77 1059.5 455.615C1045.92 449.46 1032.74 460.221 1023.57 467.407C1014.41 474.514 1006.87 479.858 981.302 469.514C955.729 459.17 935.936 497.765 935.936 497.765C922.315 495.417 923.337 487.919 901.785 492.725C880.234 497.531 885.866 512.743 877.338 503.053C868.811 493.363 864.758 491.303 854.003 496.524C843.342 501.748 836.169 518.374 826.671 518.485C817.168 518.676 808.019 500.392 792.11 499.782C776.201 499.171 775.658 516.051 760.667 515.951C745.766 515.935 741.362 526.001 742.643 501.612C743.92 477.302 723.45 487.784 708.203 487.198C693.052 486.617 688.128 476.986 686.11 460.087C684.096 443.109 669.877 444.388 651.769 445.597C633.568 446.803 634.644 433.673 633.518 414.587C632.49 395.426 620.62 404.967 610.696 402.682C600.674 400.472 584.032 416.734 581.126 384.647C578.216 352.638 534.962 361.61 534.962 361.61C528.623 331.374 487.586 339.796 473.815 333.634C459.945 327.548 446.785 320.695 427.981 331.875C409.178 343.055 403.066 351.548 389.939 353.583C376.818 355.539 379.709 340.654 353.041 342.17C326.377 343.606 330.324 366.291 301.066 377.705C271.812 389.039 300.4 365.143 280.115 356.826C259.92 348.593 234.379 367.607 218.74 384.542C203.007 401.473 181.363 403.102 170.539 382.692C159.811 362.285 111.634 367.894 96.6721 367.32C81.7099 366.745 73.4099 356.429 63.1969 346.357C52.9791 336.364 35.7872 334.99 16.3989 341.704C-3.08893 348.494 -6.5179 340.825 -18.7617 320.36C-23.5021 312.402 -29.9201 307.078 -37.3996 303.617C-48.9559 318.963 -60.7493 335.093 -72.5006 352.098C-170.396 492.748 -153.85 1171.52 -120.85 1223.97L185.881 1243.52C185.881 1243.52 1319.32 1249.1 1673.41 1245.24C1674.77 1230.53 1671.72 1216.61 1661 1205.48C1616.42 1159.26 1566.12 588.446 1679.02 466.701C1716.49 426.086 1718.05 382.824 1700.29 340.645C1696.11 342.151 1692.04 343.581 1688.28 344.548C1669.57 349.463 1687.39 329.517 1675.64 319.703Z" fill="url(#paint1_linear_180_3728)" fill-opacity="0.5"/>
<path opacity="0.6" d="M1657.64 603.703C1645.89 593.89 1629.02 613.872 1621.07 613.567C1613.21 613.265 1614.21 598.307 1600.86 586.607C1587.43 574.904 1558.15 596.155 1539.77 595.45C1521.31 594.741 1532.04 581.982 1517.52 583.646C1502.89 585.306 1520.77 620.984 1485.68 615.828C1452.93 611.08 1451.71 610.795 1451.71 610.795C1451.71 610.795 1450.94 611.004 1435.18 615.794C1418.56 620.789 1411.39 646.777 1399.86 663.235C1388.43 679.697 1374.8 658.544 1355.62 663.441C1336.43 668.338 1341.89 681.64 1323.25 679.099C1304.71 676.483 1313.95 661.842 1294.54 661.097C1275.12 660.351 1274.86 677.242 1263.05 674.884C1251.22 672.605 1246.37 664.881 1227.29 669.782C1208.29 674.686 1204.11 695.156 1206.62 696.046C1209.04 696.852 1189.76 709.601 1171.11 708.885C1152.55 708.173 1155.47 719.552 1149.05 726.843C1142.63 734.134 1128.12 726.04 1114.27 727.412C1100.43 728.706 1093.6 739.711 1078.43 750.396C1063.17 761.077 1055.08 745.77 1041.5 739.615C1027.92 733.46 1014.74 744.221 1005.57 751.407C996.411 758.514 988.875 763.858 963.302 753.514C937.728 743.17 917.936 781.765 917.936 781.765C904.315 779.417 905.336 771.919 883.785 776.725C862.234 781.531 867.866 796.743 859.338 787.053C850.81 777.363 846.758 775.303 836.003 780.524C825.342 785.748 818.169 802.374 808.671 802.485C799.168 802.676 790.019 784.392 774.11 783.782C758.201 783.171 757.657 800.051 742.667 799.951C727.766 799.935 723.362 810.001 724.643 785.612C725.92 761.302 705.45 771.784 690.203 771.198C675.052 770.617 670.128 760.986 668.11 744.087C666.096 727.109 651.877 728.388 633.769 729.597C615.568 730.803 616.644 717.673 615.518 698.587C614.49 679.426 602.62 688.967 592.696 686.682C582.674 684.472 566.031 700.734 563.126 668.647C560.216 636.638 516.962 645.61 516.962 645.61C510.623 615.374 469.586 623.797 455.815 617.634C441.944 611.548 428.785 604.695 409.981 615.875C391.178 627.055 385.066 635.548 371.939 637.583C358.818 639.539 361.709 624.654 335.04 626.17C308.377 627.606 312.324 650.291 283.066 661.705C253.812 673.039 282.4 649.143 262.115 640.826C241.919 632.593 216.379 651.607 200.74 668.542C185.007 685.473 163.363 687.102 152.539 666.692C141.811 646.285 93.6343 651.894 78.672 651.32C63.7098 650.745 55.4099 640.429 45.1969 630.357C34.9791 620.364 17.7872 618.99 -1.60113 625.704C-21.0889 632.494 -24.5179 624.825 -36.7617 604.36C-41.5021 596.402 -47.9201 591.078 -55.3996 587.617C-66.9559 602.963 -78.7493 619.093 -90.5006 636.098C-188.396 776.748 -171.85 1455.52 -138.85 1507.97L167.881 1527.52C167.881 1527.52 1301.32 1533.1 1655.41 1529.24C1656.77 1514.53 1653.72 1500.61 1643 1489.48C1598.42 1443.26 1548.12 872.446 1661.02 750.701C1698.49 710.086 1700.05 666.824 1682.29 624.645C1678.11 626.151 1674.04 627.581 1670.28 628.548C1651.57 633.463 1669.38 613.517 1657.64 603.703Z" fill="url(#paint2_linear_180_3728)" fill-opacity="0.5"/>
<path d="M1309 151H1464.25C1464.25 151 1471.51 137.907 1440.9 140.055C1440.9 140.055 1441.42 121.95 1424.19 131.258C1424.19 131.258 1416.93 120.416 1411.32 128.599C1411.32 128.599 1385.17 100.163 1366.8 125.53C1366.8 125.53 1350.2 121.541 1349.06 132.997C1349.06 132.997 1329.03 129.11 1330.17 142.817C1330.17 142.817 1311.18 140.567 1309 151Z" fill="#FEFEFE"/>
<path d="M1190.46 414.015C1190.46 414.015 1134.83 513.364 1138.66 570.135C1138.66 570.135 1126.43 572.103 1120.22 562.572C1120.22 562.572 1151.82 446.752 1193.56 407.074C1193.56 407.074 1195.43 408.628 1190.46 414.015Z" fill="#91CE54"/>
<path fill-rule="evenodd" clip-rule="evenodd" d="M1258.31 426.965C1245.26 414.845 1236.14 418.47 1246.92 432.974C1269.29 463.017 1314.05 462.395 1314.05 462.395C1253.13 507.667 1236.35 442.194 1230.96 432.042C1225.47 421.889 1212.21 428.416 1223.4 453.382C1234.38 478.453 1252.82 480.421 1252.82 480.421C1252.82 480.421 1222.68 493.163 1200.2 472.444C1177.72 451.725 1189.73 411.219 1189.73 411.219C1189.73 411.219 1149.33 423.754 1128.4 401.584C1107.37 379.415 1092.35 349.061 1136.9 287.628C1136.9 287.628 1136.9 332.382 1167.15 354.344C1181.86 364.911 1185.28 355.691 1173.05 342.845C1163.42 332.589 1127.68 289.286 1170.05 258.104C1170.05 258.104 1175.75 310.523 1191.49 331.45C1199.57 342.224 1205.27 336.837 1200.4 322.437C1195.43 308.037 1160.41 258.414 1213.04 242.668L1255.52 224.538C1255.52 224.538 1242.46 238.42 1244.02 270.639C1245.57 302.857 1250.54 312.492 1254.38 309.798C1258.21 307.001 1256.97 295.709 1255.21 284.21C1253.55 272.711 1247.75 239.456 1266.08 225.885C1279.34 216.147 1286.49 214.075 1286.49 214.075C1286.49 214.075 1270.64 231.894 1274.27 259.139C1277.79 286.489 1286.39 278.926 1285.87 267.634C1285.04 252.82 1277.58 205.995 1318.09 209.931C1318.19 209.931 1320.06 210.242 1341.09 213.454C1341.09 213.454 1321.3 241.632 1329.38 244.118C1337.56 246.604 1342.23 212.003 1378.07 220.395C1386.88 256.032 1352.28 261.108 1354.87 269.292C1357.45 277.372 1385.43 257.171 1385.43 257.171C1389.57 282.241 1358.7 285.971 1349.37 286.282C1339.95 286.489 1336.74 298.713 1350 299.956C1363.15 301.2 1389.26 280.066 1389.26 280.066C1393.82 320.572 1346.78 313.735 1332.07 313.217C1320.68 312.802 1313.32 321.504 1340.57 324.716C1367.92 327.824 1385.53 311.766 1385.53 311.766C1385.53 311.766 1372.89 366.88 1355.38 377.55C1337.88 388.117 1298.09 370.816 1285.46 370.505C1272.71 370.195 1281 377.757 1304.21 386.563C1333.94 397.855 1357.97 385.63 1357.97 385.63C1348.55 417.02 1341.29 431.316 1341.29 431.316C1310.63 473.998 1268.67 436.496 1258.31 426.965ZM1318.19 209.931C1318.12 209.931 1318.09 209.931 1318.09 209.931H1318.19ZM1195.53 349.268C1187.35 345.435 1188.49 366.051 1195.02 369.573C1201.65 373.199 1214.49 373.613 1210.87 367.501C1207.24 361.493 1195.53 349.268 1195.53 349.268ZM1218.33 332.382C1219.36 338.183 1230.14 344.917 1230.14 344.917C1235.21 350.304 1232.41 326.995 1228.37 322.333C1224.33 317.568 1217.39 326.684 1218.33 332.382ZM1272.51 286.075C1269.29 280.066 1265.98 301.096 1268.36 306.276C1270.74 311.456 1276.86 307.519 1277.48 302.236C1278 296.952 1272.51 286.075 1272.51 286.075ZM1195.95 386.77C1182.79 379.933 1173.26 394.229 1179.37 395.472C1179.37 395.472 1190.67 393.711 1195.22 391.95C1199.68 390.085 1200.51 389.153 1195.95 386.77ZM1217.5 403.242C1218.01 408.111 1225.68 413.291 1225.68 413.291C1229.62 418.056 1228.58 398.684 1225.47 394.54C1222.37 390.396 1216.98 398.476 1217.5 403.242ZM1297.27 347.196C1297.27 347.196 1286.49 339.012 1281.73 339.841C1276.96 340.566 1274.37 349.993 1279.14 351.962C1283.9 353.826 1302.86 349.786 1297.27 347.196ZM1331.66 301.407C1331.66 301.407 1320.26 299.749 1315.5 300.164C1310.63 300.474 1308.66 302.443 1313.22 304.722C1317.88 307.001 1337.15 304.515 1331.66 301.407ZM1265.36 374.338C1260.59 370.402 1237.28 367.812 1242.77 372.888C1242.77 372.888 1250.34 386.148 1256.14 387.081C1261.94 388.013 1270.12 378.275 1265.36 374.338Z" fill="#91CE54"/>
<path d="M1230.45 477.417C1230.45 477.417 1199.68 457.008 1203.72 399.72" stroke="#32A393" stroke-width="2.4" stroke-miterlimit="10"/>
<path d="M1216.36 382.626C1216.36 382.626 1129.44 371.749 1132.13 312.077" stroke="#32A393" stroke-width="2.4" stroke-miterlimit="10"/>
<path d="M1251.16 341.705C1251.16 341.705 1213.46 289.804 1230.03 253.648" stroke="#32A393" stroke-width="2.4" stroke-miterlimit="10"/>
<path d="M1304.93 287.007C1304.93 287.007 1287.22 244.325 1316.12 223.295" stroke="#32A393" stroke-width="2.4" stroke-miterlimit="10"/>
<path d="M1362.74 334.868C1362.74 334.868 1319.64 366.362 1273.75 318.293" stroke="#32A393" stroke-width="2.4" stroke-miterlimit="10"/>
<path d="M1329.69 423.444C1329.69 423.444 1264.32 448.721 1226.92 370.402" stroke="#32A393" stroke-width="2.4" stroke-miterlimit="10"/>
<path d="M1197.61 408.318C1197.61 408.318 1251.99 327.823 1369.78 228.371" stroke="#32A393" stroke-width="2.4" stroke-miterlimit="10"/>
<path d="M122.562 312.184C122.562 312.184 103.662 271.784 103.462 250.484C103.162 229.184 115.762 229.484 122.462 245.884C129.162 262.284 124.062 312.884 124.662 315.484C125.362 318.084 122.562 312.184 122.562 312.184Z" fill="#32A393"/>
<path d="M181.462 383.284C181.462 383.284 163.962 340.484 164.862 318.484C165.662 296.384 178.662 297.284 184.762 314.584C190.962 331.984 182.962 384.184 183.562 386.884C184.062 389.584 181.462 383.284 181.462 383.284Z" fill="#32A393"/>
<path d="M144.762 340.183C144.762 340.183 104.262 325.983 87.0616 328.083C69.8616 330.183 75.3616 342.583 91.3616 347.383C107.462 352.283 145.962 341.483 148.362 341.883C150.762 342.283 144.762 340.183 144.762 340.183Z" fill="#32A393"/>
<path d="M196.562 411.383C196.562 411.383 157.162 403.683 139.262 408.183C121.362 412.683 125.162 423.583 140.962 425.983C156.662 428.283 197.562 412.483 199.962 412.583C202.362 412.583 196.562 411.383 196.562 411.383Z" fill="#32A393"/>
<path d="M115.462 307.084C115.462 307.084 75.462 296.384 54.762 299.384C34.062 302.484 34.762 313.784 50.962 317.284C67.162 320.884 116.262 308.284 118.862 308.484C121.362 308.684 115.462 307.084 115.462 307.084Z" fill="#91CE54"/>
<path d="M140.362 329.784C140.362 329.784 160.362 293.684 162.362 273.184C164.362 252.784 153.462 251.184 146.162 265.984C138.862 280.784 139.062 330.184 138.262 332.684C137.462 334.984 140.362 329.784 140.362 329.784Z" fill="#91CE54"/>
<path d="M196.862 404.483C196.862 404.483 221.362 380.383 226.062 363.583C230.662 346.883 219.962 341.783 210.762 351.983C201.662 362.083 195.462 404.483 194.362 406.283C193.162 407.983 196.862 404.483 196.862 404.483Z" fill="#91CE54"/>
<path d="M168.862 375.984C168.862 375.984 122.462 389.784 100.562 388.084C78.6624 386.484 82.1624 374.984 100.762 370.284C119.362 365.584 169.962 374.784 172.762 374.384C175.662 373.984 168.862 375.984 168.862 375.984Z" fill="#91CE54"/>
<path d="M228.362 449.384C223.962 444.884 205.562 417.484 198.762 407.784C191.862 398.084 171.562 367.484 158.462 351.684C142.062 331.784 116.962 304.884 112.262 299.884C109.362 294.184 104.562 283.484 99.2616 274.484C92.0616 262.284 89.1616 257.084 74.4616 247.184C59.7616 237.184 49.2616 243.884 61.1616 261.484C71.9616 277.484 104.362 298.084 110.262 301.784C111.462 303.384 113.062 305.084 113.062 305.084C113.062 305.084 152.262 351.784 162.662 364.984C173.062 378.184 214.562 445.984 220.962 452.084C227.262 458.084 232.662 453.884 228.362 449.384Z" fill="#32A393"/>
<path d="M199.062 397.484C199.062 397.484 221.062 372.984 223.762 357.084" stroke="#32A393" stroke-width="2" stroke-miterlimit="10"/>
<path d="M144.562 312.684C144.562 312.684 158.262 281.784 157.762 265.684" stroke="#32A393" stroke-width="2" stroke-miterlimit="10"/>
<path d="M100.762 382.183C100.762 382.183 137.262 382.083 152.162 375.983" stroke="#32A393" stroke-width="2" stroke-miterlimit="10"/>
<path d="M49.7617 310.083C49.7617 310.083 70.9617 317.083 103.162 307.883" stroke="#32A393" stroke-width="2" stroke-miterlimit="10"/>
<path d="M181.462 373.084C181.462 373.084 183.262 326.984 178.562 311.584" stroke="#91CE54" stroke-width="2" stroke-linecap="round" stroke-linejoin="round"/>
<path d="M136.262 418.483C136.262 418.483 155.362 424.983 180.662 413.983" stroke="#91CE54" stroke-width="2" stroke-linecap="round" stroke-linejoin="round"/>
<path d="M91.2617 341.184C91.2617 341.184 104.262 348.584 136.462 341.284" stroke="#91CE54" stroke-width="2" stroke-linecap="round" stroke-linejoin="round"/>
<path d="M121.162 297.384C121.162 297.384 125.162 258.584 115.662 247.084" stroke="#91CE54" stroke-width="2" stroke-linecap="round" stroke-linejoin="round"/>
<path d="M104.061 292.884C104.061 292.884 87.2613 257.384 71.3613 252.184" stroke="#91CE54" stroke-width="2" stroke-linecap="round" stroke-linejoin="round"/>
<path d="M744.9 213.055C746.7 199.655 737.1 179.155 712.4 191.155C676.7 208.555 708 214.555 713.6 202.255C720.9 186.255 677 147.555 629 184.455" stroke="white" stroke-width="9.3" stroke-linecap="round" stroke-linejoin="round"/>
</g>
<defs>
<linearGradient id="paint0_linear_180_3728" x1="643.562" y1="2.18014e-05" x2="673.319" y2="544.589" gradientUnits="userSpaceOnUse">
<stop stop-color="#96D9F5"/>
<stop offset="1" stop-color="#FFEBC2"/>
</linearGradient>
<linearGradient id="paint1_linear_180_3728" x1="-805637" y1="8549.17" x2="-818251" y2="405350" gradientUnits="userSpaceOnUse">
<stop stop-color="white"/>
<stop offset="1" stop-color="white" stop-opacity="0"/>
</linearGradient>
<linearGradient id="paint2_linear_180_3728" x1="-805655" y1="8833.17" x2="-818269" y2="405634" gradientUnits="userSpaceOnUse">
<stop stop-color="white"/>
<stop offset="1" stop-color="white" stop-opacity="0"/>
</linearGradient>
<clipPath id="clip0_180_3728">
<rect width="1470" height="546" fill="white" transform="translate(-13)"/>
</clipPath>
</defs>
</svg>
