<svg width="1440" height="546" viewBox="0 0 1440 546" fill="none" xmlns="http://www.w3.org/2000/svg">
<g clip-path="url(#clip0_18_3160)">
<mask id="mask0_18_3160" style="mask-type:luminance" maskUnits="userSpaceOnUse" x="-13" y="0" width="1470" height="546">
<path d="M1457 0H-13V546H1457V0Z" fill="white"/>
</mask>
<g mask="url(#mask0_18_3160)">
<path d="M1457 0H-13V546H1457V0Z" fill="url(#paint0_linear_18_3160)"/>
<path opacity="0.6" d="M1675.64 319.703C1663.89 309.89 1647.02 329.872 1639.07 329.567C1631.21 329.265 1632.21 314.307 1618.86 302.607C1605.43 290.904 1576.15 312.155 1557.77 311.45C1539.31 310.741 1550.04 297.982 1535.52 299.646C1520.89 301.306 1538.77 336.984 1503.68 331.828C1470.93 327.08 1469.72 326.795 1469.72 326.795C1469.72 326.795 1468.94 327.004 1453.18 331.794C1436.56 336.789 1429.39 362.777 1417.86 379.235C1406.43 395.697 1392.8 374.544 1373.62 379.441C1354.43 384.338 1359.89 397.64 1341.25 395.099C1322.71 392.483 1331.95 377.842 1312.54 377.097C1293.12 376.351 1292.86 393.242 1281.05 390.884C1269.22 388.605 1264.37 380.881 1245.29 385.782C1226.29 390.686 1222.11 411.156 1224.62 412.046C1227.04 412.852 1207.76 425.601 1189.11 424.885C1170.55 424.173 1173.47 435.552 1167.05 442.843C1160.63 450.134 1146.12 442.04 1132.28 443.412C1118.43 444.706 1111.6 455.711 1096.43 466.396C1081.17 477.077 1073.08 461.77 1059.5 455.615C1045.92 449.46 1032.74 460.221 1023.57 467.407C1014.41 474.514 1006.87 479.858 981.302 469.514C955.729 459.17 935.936 497.765 935.936 497.765C922.315 495.417 923.337 487.919 901.785 492.725C880.234 497.531 885.866 512.743 877.338 503.053C868.811 493.363 864.758 491.303 854.003 496.524C843.342 501.748 836.169 518.374 826.671 518.485C817.168 518.676 808.019 500.392 792.11 499.782C776.201 499.171 775.658 516.051 760.667 515.951C745.766 515.935 741.362 526.001 742.643 501.612C743.92 477.302 723.45 487.784 708.203 487.198C693.052 486.617 688.128 476.986 686.11 460.087C684.096 443.109 669.877 444.388 651.769 445.597C633.568 446.803 634.644 433.673 633.518 414.587C632.49 395.426 620.62 404.967 610.696 402.682C600.674 400.472 584.032 416.734 581.126 384.647C578.216 352.638 534.962 361.61 534.962 361.61C528.623 331.374 487.586 339.796 473.815 333.634C459.945 327.548 446.785 320.695 427.981 331.875C409.178 343.055 403.066 351.548 389.939 353.583C376.818 355.539 379.709 340.654 353.041 342.17C326.377 343.606 330.324 366.291 301.066 377.705C271.812 389.039 300.4 365.143 280.115 356.826C259.92 348.593 234.379 367.607 218.74 384.542C203.007 401.473 181.363 403.102 170.539 382.692C159.811 362.285 111.634 367.894 96.6722 367.32C81.71 366.745 73.41 356.429 63.197 346.357C52.9792 336.364 35.7873 334.99 16.399 341.704C-3.08886 348.494 -6.51782 340.825 -18.7616 320.36C-23.502 312.402 -29.92 307.078 -37.3995 303.617C-48.9558 318.963 -60.7492 335.093 -72.5005 352.098C-170.396 492.748 -153.85 1171.52 -120.85 1223.97L185.881 1243.52C185.881 1243.52 1319.32 1249.1 1673.41 1245.24C1674.77 1230.53 1671.72 1216.61 1661 1205.48C1616.42 1159.26 1566.12 588.446 1679.02 466.701C1716.49 426.086 1718.05 382.824 1700.29 340.645C1696.11 342.151 1692.04 343.581 1688.28 344.548C1669.57 349.463 1687.39 329.517 1675.64 319.703Z" fill="url(#paint1_linear_18_3160)" fill-opacity="0.5"/>
<path d="M1190.46 414.015C1190.46 414.015 1134.83 513.364 1138.66 570.135C1138.66 570.135 1126.43 572.103 1120.22 562.572C1120.22 562.572 1151.82 446.752 1193.56 407.074C1193.56 407.074 1195.43 408.628 1190.46 414.015Z" fill="#91CE54"/>
<path fill-rule="evenodd" clip-rule="evenodd" d="M1258.31 426.965C1245.26 414.845 1236.14 418.47 1246.92 432.974C1269.29 463.017 1314.05 462.395 1314.05 462.395C1253.13 507.667 1236.35 442.194 1230.96 432.042C1225.47 421.889 1212.21 428.416 1223.4 453.382C1234.38 478.453 1252.82 480.421 1252.82 480.421C1252.82 480.421 1222.68 493.163 1200.2 472.444C1177.72 451.725 1189.73 411.219 1189.73 411.219C1189.73 411.219 1149.33 423.754 1128.4 401.584C1107.37 379.415 1092.35 349.061 1136.9 287.628C1136.9 287.628 1136.9 332.382 1167.15 354.344C1181.86 364.911 1185.28 355.691 1173.05 342.845C1163.42 332.589 1127.68 289.286 1170.05 258.104C1170.05 258.104 1175.75 310.523 1191.49 331.45C1199.57 342.224 1205.27 336.837 1200.4 322.437C1195.43 308.037 1160.41 258.414 1213.04 242.668L1255.52 224.538C1255.52 224.538 1242.46 238.42 1244.02 270.639C1245.57 302.857 1250.54 312.492 1254.38 309.798C1258.21 307.001 1256.97 295.709 1255.21 284.21C1253.55 272.711 1247.75 239.456 1266.08 225.885C1279.34 216.147 1286.49 214.075 1286.49 214.075C1286.49 214.075 1270.64 231.894 1274.27 259.139C1277.79 286.489 1286.39 278.926 1285.87 267.634C1285.04 252.82 1277.58 205.995 1318.09 209.931C1318.19 209.931 1320.06 210.242 1341.09 213.454C1341.09 213.454 1321.3 241.632 1329.38 244.118C1337.56 246.604 1342.23 212.003 1378.07 220.395C1386.88 256.032 1352.28 261.108 1354.87 269.292C1357.45 277.372 1385.43 257.171 1385.43 257.171C1389.57 282.241 1358.7 285.971 1349.37 286.282C1339.95 286.489 1336.74 298.713 1350 299.956C1363.15 301.2 1389.26 280.066 1389.26 280.066C1393.82 320.572 1346.78 313.735 1332.07 313.217C1320.68 312.802 1313.32 321.504 1340.57 324.716C1367.92 327.824 1385.53 311.766 1385.53 311.766C1385.53 311.766 1372.89 366.88 1355.38 377.55C1337.88 388.117 1298.09 370.816 1285.46 370.505C1272.71 370.195 1281 377.757 1304.21 386.563C1333.94 397.855 1357.97 385.63 1357.97 385.63C1348.55 417.02 1341.29 431.316 1341.29 431.316C1310.63 473.998 1268.67 436.496 1258.31 426.965ZM1318.19 209.931C1318.12 209.931 1318.09 209.931 1318.09 209.931H1318.19ZM1195.53 349.268C1187.35 345.435 1188.49 366.051 1195.02 369.573C1201.65 373.199 1214.49 373.613 1210.87 367.501C1207.24 361.493 1195.53 349.268 1195.53 349.268ZM1218.33 332.382C1219.36 338.183 1230.14 344.917 1230.14 344.917C1235.21 350.304 1232.41 326.995 1228.37 322.333C1224.33 317.568 1217.39 326.684 1218.33 332.382ZM1272.51 286.075C1269.29 280.066 1265.98 301.096 1268.36 306.276C1270.74 311.456 1276.86 307.519 1277.48 302.236C1278 296.952 1272.51 286.075 1272.51 286.075ZM1195.95 386.77C1182.79 379.933 1173.26 394.229 1179.37 395.472C1179.37 395.472 1190.67 393.711 1195.22 391.95C1199.68 390.085 1200.51 389.153 1195.95 386.77ZM1217.5 403.242C1218.01 408.111 1225.68 413.291 1225.68 413.291C1229.62 418.056 1228.58 398.684 1225.47 394.54C1222.37 390.396 1216.98 398.476 1217.5 403.242ZM1297.27 347.196C1297.27 347.196 1286.49 339.012 1281.73 339.841C1276.96 340.566 1274.37 349.993 1279.14 351.962C1283.9 353.826 1302.86 349.786 1297.27 347.196ZM1331.66 301.407C1331.66 301.407 1320.26 299.749 1315.5 300.164C1310.63 300.474 1308.66 302.443 1313.22 304.722C1317.88 307.001 1337.15 304.515 1331.66 301.407ZM1265.36 374.338C1260.59 370.402 1237.28 367.812 1242.77 372.888C1242.77 372.888 1250.34 386.148 1256.14 387.081C1261.94 388.013 1270.12 378.275 1265.36 374.338Z" fill="#91CE54"/>
<path d="M1230.45 477.417C1230.45 477.417 1199.68 457.008 1203.72 399.72" stroke="#32A393" stroke-width="2.4" stroke-miterlimit="10"/>
<path d="M1216.36 382.626C1216.36 382.626 1129.44 371.749 1132.13 312.077" stroke="#32A393" stroke-width="2.4" stroke-miterlimit="10"/>
<path d="M1251.16 341.705C1251.16 341.705 1213.46 289.804 1230.03 253.648" stroke="#32A393" stroke-width="2.4" stroke-miterlimit="10"/>
<path d="M1304.93 287.007C1304.93 287.007 1287.22 244.325 1316.12 223.295" stroke="#32A393" stroke-width="2.4" stroke-miterlimit="10"/>
<path d="M1362.74 334.868C1362.74 334.868 1319.64 366.362 1273.75 318.293" stroke="#32A393" stroke-width="2.4" stroke-miterlimit="10"/>
<path d="M1329.69 423.444C1329.69 423.444 1264.32 448.721 1226.92 370.402" stroke="#32A393" stroke-width="2.4" stroke-miterlimit="10"/>
<path d="M1197.61 408.318C1197.61 408.318 1251.99 327.823 1369.78 228.371" stroke="#32A393" stroke-width="2.4" stroke-miterlimit="10"/>
<path d="M122.562 312.184C122.562 312.184 103.662 271.784 103.462 250.484C103.162 229.184 115.762 229.484 122.462 245.884C129.162 262.284 124.062 312.884 124.662 315.484C125.362 318.084 122.562 312.184 122.562 312.184Z" fill="#32A393"/>
<path d="M181.462 383.284C181.462 383.284 163.962 340.484 164.862 318.484C165.662 296.384 178.662 297.284 184.762 314.584C190.962 331.984 182.962 384.184 183.562 386.884C184.062 389.584 181.462 383.284 181.462 383.284Z" fill="#32A393"/>
<path d="M144.762 340.183C144.762 340.183 104.262 325.983 87.0616 328.083C69.8616 330.183 75.3616 342.583 91.3616 347.383C107.462 352.283 145.962 341.483 148.362 341.883C150.762 342.283 144.762 340.183 144.762 340.183Z" fill="#32A393"/>
<path d="M196.562 411.383C196.562 411.383 157.162 403.683 139.262 408.183C121.362 412.683 125.162 423.583 140.962 425.983C156.662 428.283 197.562 412.483 199.962 412.583C202.362 412.583 196.562 411.383 196.562 411.383Z" fill="#32A393"/>
<path d="M115.462 307.084C115.462 307.084 75.462 296.384 54.762 299.384C34.062 302.484 34.762 313.784 50.962 317.284C67.162 320.884 116.262 308.284 118.862 308.484C121.362 308.684 115.462 307.084 115.462 307.084Z" fill="#91CE54"/>
<path d="M140.362 329.784C140.362 329.784 160.362 293.684 162.362 273.184C164.362 252.784 153.462 251.184 146.162 265.984C138.862 280.784 139.062 330.184 138.262 332.684C137.462 334.984 140.362 329.784 140.362 329.784Z" fill="#91CE54"/>
<path d="M196.862 404.483C196.862 404.483 221.362 380.383 226.062 363.583C230.662 346.883 219.962 341.783 210.762 351.983C201.662 362.083 195.462 404.483 194.362 406.283C193.162 407.983 196.862 404.483 196.862 404.483Z" fill="#91CE54"/>
<path d="M168.862 375.984C168.862 375.984 122.462 389.784 100.562 388.084C78.6625 386.484 82.1625 374.984 100.762 370.284C119.362 365.584 169.962 374.784 172.762 374.384C175.662 373.984 168.862 375.984 168.862 375.984Z" fill="#91CE54"/>
<path d="M228.362 449.384C223.962 444.884 205.562 417.484 198.762 407.784C191.862 398.084 171.562 367.484 158.462 351.684C142.062 331.784 116.962 304.884 112.262 299.884C109.362 294.184 104.562 283.484 99.2616 274.484C92.0616 262.284 89.1616 257.084 74.4616 247.184C59.7616 237.184 49.2616 243.884 61.1616 261.484C71.9616 277.484 104.362 298.084 110.262 301.784C111.462 303.384 113.062 305.084 113.062 305.084C113.062 305.084 152.262 351.784 162.662 364.984C173.062 378.184 214.562 445.984 220.962 452.084C227.262 458.084 232.662 453.884 228.362 449.384Z" fill="#32A393"/>
<path d="M199.062 397.484C199.062 397.484 221.062 372.984 223.762 357.084" stroke="#32A393" stroke-width="2" stroke-miterlimit="10"/>
<path d="M144.562 312.684C144.562 312.684 158.262 281.784 157.762 265.684" stroke="#32A393" stroke-width="2" stroke-miterlimit="10"/>
<path d="M100.762 382.183C100.762 382.183 137.262 382.083 152.162 375.983" stroke="#32A393" stroke-width="2" stroke-miterlimit="10"/>
<path d="M49.7617 310.083C49.7617 310.083 70.9617 317.083 103.162 307.883" stroke="#32A393" stroke-width="2" stroke-miterlimit="10"/>
<path d="M181.462 373.084C181.462 373.084 183.262 326.984 178.562 311.584" stroke="#91CE54" stroke-width="2" stroke-linecap="round" stroke-linejoin="round"/>
<path d="M136.262 418.483C136.262 418.483 155.362 424.983 180.662 413.983" stroke="#91CE54" stroke-width="2" stroke-linecap="round" stroke-linejoin="round"/>
<path d="M91.2617 341.184C91.2617 341.184 104.262 348.584 136.462 341.284" stroke="#91CE54" stroke-width="2" stroke-linecap="round" stroke-linejoin="round"/>
<path d="M121.162 297.384C121.162 297.384 125.162 258.584 115.662 247.084" stroke="#91CE54" stroke-width="2" stroke-linecap="round" stroke-linejoin="round"/>
<path d="M104.061 292.884C104.061 292.884 87.2613 257.384 71.3613 252.184" stroke="#91CE54" stroke-width="2" stroke-linecap="round" stroke-linejoin="round"/>
</g>
<path d="M553.765 200.428C550.113 200.402 546.461 200.381 542.808 200.366C541.484 200.355 540.176 200.355 538.852 200.345C538.738 200.345 538.662 200.402 538.635 200.491C534.548 200.626 530.467 200.772 526.38 200.902C524.296 200.975 522.218 201.053 520.134 201.11C518.44 201.173 516.709 201.235 515.108 201.782C513.567 202.308 512.433 203.282 511.478 204.527C510.549 205.725 509.773 207.063 508.552 208.006C507.228 209.017 505.361 209.381 503.755 208.787C502.295 208.235 501.199 206.798 501.188 205.282C501.171 203.845 502.268 202.48 503.717 202.11C505.22 201.72 506.821 202.683 507.255 204.1C507.358 204.444 507.38 204.782 507.331 205.152C507.293 205.454 507.787 205.454 507.825 205.152C508.031 203.662 506.935 202.235 505.513 201.735C504.037 201.22 502.42 201.892 501.492 203.053C500.537 204.272 500.471 205.855 501.209 207.188C501.199 207.199 501.188 207.188 501.171 207.199C499.516 208.027 497.573 208.272 495.766 207.808C494.122 207.397 492.635 206.444 491.631 205.136C491.435 204.892 491.007 205.126 491.197 205.371C491.517 205.772 491.869 206.152 492.255 206.48C492.228 206.491 492.217 206.491 492.19 206.517C489.693 208.261 486.486 207.209 484.098 205.845C482.747 205.079 481.487 204.188 480.136 203.444C478.828 202.72 477.428 202.183 475.914 201.98C474.221 201.746 472.489 201.907 470.872 202.444C470.568 202.537 470.698 203.001 471.002 202.907C472.489 202.418 474.069 202.246 475.621 202.418C476.131 202.48 476.625 202.574 477.108 202.709C474.818 204.871 471.692 206.162 468.484 206.235C466.688 206.282 464.843 205.954 463.301 205.053C461.955 204.272 460.87 203.017 460.49 201.527C460.083 199.928 460.62 198.074 462.021 197.063C462.259 196.876 462.021 196.465 461.765 196.647C461.456 196.866 461.19 197.11 460.962 197.392C460.924 197.329 460.859 197.267 460.756 197.267C459.28 197.246 458.428 195.683 457.435 194.84C456.306 193.876 454.868 193.329 453.402 193.011C451.839 192.683 450.222 192.595 448.621 192.537C446.608 192.449 444.583 192.428 442.559 192.428C442.369 192.428 442.179 192.428 442 192.438C443.183 192.313 444.355 192.194 445.538 192.074C447.025 191.912 448.529 191.767 449.956 191.277C451.242 190.84 452.371 190.121 453.44 189.313C454.52 188.496 455.551 187.605 456.713 186.886C457.88 186.157 459.193 185.605 460.544 185.267C461.901 184.923 463.301 184.787 464.701 184.876C466.037 184.959 467.757 185.142 468.582 186.303C469.461 187.532 468.457 188.975 467.095 189.293C465.63 189.631 464.191 188.621 463.366 187.558C463.176 187.313 462.742 187.548 462.932 187.803C463.725 188.829 464.853 189.683 466.205 189.813C467.426 189.938 468.712 189.293 469.206 188.194C469.765 186.985 469.043 185.741 467.909 185.131C467.551 184.933 467.16 184.787 466.753 184.678C468.202 183.36 470.085 182.485 472.082 182.251C474.248 182.006 476.446 182.522 478.28 183.652C478.497 183.787 478.698 183.532 478.622 183.35C478.66 183.334 478.698 183.298 478.725 183.251C479.669 181.251 480.901 179.324 482.681 177.907C484.413 176.543 486.757 175.735 489.009 176.079C491.197 176.418 492.966 177.933 493.688 179.933C494.442 181.98 493.943 184.267 492.624 185.996C491.028 188.069 488.331 189.131 485.688 189.084C485.368 189.069 485.368 189.548 485.688 189.558C488.179 189.605 490.724 188.715 492.428 186.949C493.156 186.194 493.715 185.303 494.084 184.35C494.149 184.376 494.214 184.376 494.29 184.34C498.078 182.631 502.675 183.449 505.589 186.34C506.338 187.095 506.962 187.949 507.418 188.886C507.559 189.168 507.982 188.923 507.852 188.642C507.651 188.23 507.407 187.824 507.141 187.449C507.19 187.459 507.244 187.459 507.293 187.423C509.301 186.397 511.478 185.694 513.73 185.34C514.853 185.152 515.982 185.069 517.116 185.069C518.137 185.069 519.189 185.105 520.199 185.35C521.051 185.543 521.925 185.912 522.462 186.621C523.07 187.423 523.048 188.475 522.679 189.366C521.952 191.121 519.841 192.412 517.881 191.85C516.888 191.574 516.009 190.85 515.781 189.866C515.553 188.949 515.884 187.886 516.698 187.324C516.953 187.157 516.709 186.741 516.454 186.912C515.667 187.449 515.233 188.329 515.222 189.256C515.206 190.23 515.705 191.11 516.492 191.704C518.109 192.892 520.259 192.574 521.735 191.386C521.773 191.412 521.811 191.423 521.865 191.423C524.09 191.267 526.342 191.803 528.236 192.949C530.174 194.11 531.471 196.001 533.457 197.1C535.362 198.147 537.576 198.491 539.731 198.735C542.276 199.011 544.832 199.282 547.361 199.6C549.5 199.808 551.638 200.11 553.765 200.428Z" fill="#D2F3F9"/>
<path d="M504.939 209.391C503.371 209.365 501.938 208.656 501.043 207.474C499.86 208.047 498.563 208.344 497.266 208.344C496.576 208.344 495.892 208.255 495.241 208.099C494.172 207.828 493.157 207.339 492.267 206.672C492.251 206.693 492.229 206.708 492.202 206.719C491.258 207.375 490.053 207.729 488.729 207.729C488.409 207.729 488.088 207.708 487.763 207.672C485.429 207.375 483.47 206.146 481.576 204.948C480.941 204.547 480.279 204.13 479.627 203.766C478.868 203.328 478.092 202.984 477.354 202.729C475.975 204.057 474.271 205.094 472.426 205.755C470.939 206.281 469.332 206.563 467.78 206.563C465.365 206.563 463.265 205.891 461.686 204.63C460.275 203.5 459.406 201.922 459.33 200.339C459.281 199.349 459.536 198.375 460.03 197.547C458.939 197.385 458.201 196.594 457.474 195.823C457.181 195.521 456.904 195.229 456.611 194.969C454.332 193.042 450.962 192.922 447.993 192.823L447.526 192.813C445.893 192.76 444.254 192.724 442.636 192.724C440.243 192.724 437.817 192.786 435.435 192.906C435.18 192.906 435.017 192.76 435.001 192.542C434.99 192.349 435.131 192.115 435.408 192.078C437.405 191.87 439.391 191.667 441.388 191.458C441.936 191.396 442.495 191.349 443.044 191.297C444.395 191.177 445.779 191.042 447.141 190.833C448.845 190.578 450.262 190.078 451.466 189.307C452.259 188.807 452.997 188.224 453.719 187.661C454.115 187.359 454.522 187.026 454.929 186.724C457.398 184.906 460.264 183.917 463.227 183.844C463.379 183.844 463.547 183.844 463.71 183.844C464.497 183.844 465.197 183.891 465.821 184.005C466.548 183.318 467.335 182.745 468.203 182.318C469.625 181.589 471.243 181.208 472.887 181.208C474.64 181.208 476.371 181.646 477.885 182.479C479.248 179.599 480.925 177.583 482.987 176.328C484.403 175.474 486.053 175 487.643 175C488.457 175 489.239 175.12 489.961 175.365C492.126 176.083 493.819 178.01 494.286 180.271C494.481 181.208 494.454 182.208 494.226 183.172C495.241 182.781 496.283 182.536 497.369 182.464C497.635 182.443 497.917 182.427 498.183 182.427C501.504 182.427 504.646 183.953 506.644 186.516C506.654 186.516 506.654 186.505 506.671 186.505C509.292 185.161 512.103 184.37 515.055 184.135C515.68 184.089 516.287 184.063 516.89 184.063C517.563 184.063 518.225 184.099 518.86 184.161C520.146 184.297 521.101 184.589 521.839 185.063C522.767 185.672 523.316 186.615 523.337 187.661C523.354 188.578 522.995 189.552 522.344 190.37H522.36C524.613 190.37 526.849 191.042 528.683 192.25C529.486 192.786 530.197 193.432 530.886 194.068C531.814 194.922 532.769 195.802 533.936 196.375C535.923 197.323 538.202 197.568 540.405 197.802C545.708 198.349 550.977 199.031 556.095 199.849C556.171 199.865 556.247 199.901 556.296 199.948H556.502C556.741 199.948 556.92 200.13 556.92 200.365C556.92 200.594 556.741 200.766 556.502 200.766C555.178 200.755 553.854 200.755 552.54 200.74L538.913 200.656C538.837 200.74 538.734 200.776 538.62 200.792L536.954 200.849C532.504 200.995 528.037 201.156 523.581 201.302C523.033 201.328 522.474 201.339 521.926 201.349C520.439 201.385 518.909 201.422 517.422 201.573C515.321 201.792 513.758 202.422 512.662 203.51C512.038 204.12 511.528 204.828 511.034 205.521C510.6 206.12 510.155 206.745 509.634 207.302C508.386 208.646 506.785 209.391 505.091 209.391H504.939ZM504.033 201.865C503.821 201.865 503.604 201.885 503.398 201.948C502.025 202.302 500.994 203.594 501.005 204.948C501.021 206.354 502.052 207.755 503.463 208.281C503.946 208.464 504.478 208.547 505.026 208.547C506.112 208.547 507.23 208.172 508.082 207.51C508.972 206.828 509.634 205.901 510.285 205.01C510.513 204.693 510.741 204.375 510.985 204.073C512.076 202.646 513.259 201.755 514.697 201.266C516.342 200.703 518.095 200.646 519.788 200.583L538.191 199.958C538.267 199.865 538.381 199.813 538.522 199.813L550.912 199.885C549.626 199.703 548.307 199.531 546.983 199.365C545.225 199.141 543.434 198.948 541.702 198.75C540.91 198.667 540.134 198.583 539.347 198.495C537.323 198.266 534.995 197.938 533.008 196.839C531.955 196.25 531.087 195.448 530.246 194.667C529.486 193.958 528.71 193.24 527.793 192.688C526.138 191.688 524.244 191.167 522.284 191.167C522.04 191.167 521.785 191.177 521.53 191.188C521.53 191.188 521.53 191.188 521.519 191.188C521.481 191.188 521.454 191.187 521.416 191.177C520.553 191.849 519.495 192.214 518.442 192.214C517.547 192.214 516.722 191.943 516.022 191.432C515.159 190.797 514.659 189.849 514.676 188.844C514.686 187.833 515.159 186.917 515.984 186.359C516.06 186.307 516.135 186.286 516.228 186.286C516.401 186.286 516.559 186.406 516.618 186.578C516.684 186.76 516.618 186.943 516.456 187.052C515.745 187.542 515.397 188.516 515.614 189.406C515.832 190.276 516.581 190.979 517.601 191.276C517.894 191.359 518.198 191.396 518.502 191.396C520.032 191.396 521.584 190.333 522.181 188.88C522.577 187.917 522.512 186.979 521.991 186.307C521.568 185.75 520.846 185.344 519.826 185.115C518.822 184.88 517.78 184.844 516.798 184.844H516.732C515.642 184.844 514.534 184.932 513.438 185.115C511.213 185.469 509.075 186.161 507.099 187.161C507.333 187.516 507.523 187.844 507.686 188.177C507.751 188.307 507.751 188.458 507.664 188.578C507.572 188.698 507.43 188.786 507.278 188.786C507.127 188.786 507.002 188.698 506.926 188.568C506.464 187.641 505.867 186.797 505.119 186.052C503.311 184.26 500.75 183.224 498.118 183.224C496.69 183.224 495.317 183.516 494.031 184.089C493.982 184.115 493.933 184.125 493.868 184.125C493.499 185.052 492.924 185.932 492.229 186.651C490.585 188.344 488.143 189.323 485.521 189.323C485.456 189.323 485.391 189.323 485.342 189.323C485.098 189.323 484.924 189.141 484.924 188.896C484.924 188.661 485.098 188.495 485.342 188.495C485.407 188.495 485.521 188.495 485.521 188.495C488.208 188.495 490.688 187.37 492.126 185.479C493.472 183.708 493.868 181.5 493.168 179.589C492.441 177.609 490.71 176.182 488.626 175.854C488.284 175.807 487.936 175.766 487.584 175.766C485.825 175.766 483.953 176.453 482.455 177.635C480.925 178.854 479.644 180.573 478.548 182.917C478.537 182.953 478.51 182.99 478.482 183.016C478.482 183.099 478.461 183.198 478.406 183.281C478.33 183.406 478.206 183.464 478.064 183.464C477.989 183.464 477.913 183.443 477.837 183.391C476.322 182.453 474.591 181.964 472.806 181.964C472.464 181.964 472.111 181.99 471.764 182.026C469.946 182.234 468.176 183 466.776 184.198C467.107 184.307 467.4 184.432 467.666 184.578C468.828 185.198 469.663 186.526 469.039 187.859C468.556 188.896 467.4 189.604 466.168 189.604C466.065 189.604 465.951 189.604 465.848 189.589C464.589 189.469 463.379 188.724 462.451 187.505C462.359 187.38 462.337 187.234 462.413 187.115C462.489 186.979 462.652 186.88 462.82 186.88C462.961 186.88 463.086 186.943 463.178 187.052C463.824 187.896 464.942 188.786 466.168 188.786C466.342 188.786 466.537 188.76 466.711 188.724C467.427 188.552 468.035 188.052 468.279 187.443C468.421 187.104 468.497 186.563 468.09 186.005C467.351 184.969 465.783 184.745 464.345 184.661C464.079 184.651 463.813 184.635 463.558 184.635C462.44 184.635 461.333 184.771 460.237 185.052C458.874 185.396 457.604 185.943 456.459 186.651C455.667 187.151 454.918 187.734 454.191 188.297C453.86 188.552 453.529 188.823 453.198 189.068C452.308 189.734 451.097 190.568 449.659 191.052C448.237 191.542 446.707 191.703 445.231 191.849L444.916 191.885C446.061 191.896 447.179 191.932 448.275 191.979C450.006 192.052 451.559 192.141 453.1 192.469C454.788 192.833 456.166 193.458 457.208 194.339C457.501 194.578 457.767 194.875 458.049 195.188C458.733 195.932 459.433 196.703 460.416 196.729C460.475 196.729 460.54 196.74 460.606 196.776C460.823 196.542 461.051 196.323 461.317 196.141C461.392 196.094 461.468 196.057 461.561 196.057C461.724 196.057 461.876 196.167 461.941 196.349C462.006 196.531 461.941 196.714 461.789 196.839C460.513 197.766 459.916 199.521 460.34 201.12C460.692 202.484 461.686 203.729 463.075 204.536C464.372 205.302 466.027 205.708 467.845 205.708C467.948 205.708 468.052 205.708 468.165 205.708C471.194 205.635 474.195 204.448 476.436 202.438C476.04 202.339 475.66 202.266 475.291 202.229C474.895 202.182 474.499 202.167 474.092 202.167C472.947 202.167 471.829 202.349 470.749 202.703C470.695 202.719 470.646 202.729 470.608 202.729C470.401 202.729 470.249 202.583 470.212 202.385C470.174 202.182 470.304 201.984 470.505 201.922C471.65 201.547 472.849 201.349 474.07 201.349C474.591 201.349 475.112 201.385 475.622 201.458C477.033 201.656 478.434 202.13 479.91 202.938C480.659 203.339 481.386 203.802 482.086 204.255C482.672 204.62 483.269 205 483.866 205.354C485.114 206.057 486.997 206.911 488.843 206.911C489.885 206.911 490.829 206.646 491.627 206.12C491.285 205.802 490.992 205.474 490.726 205.146C490.634 205.021 490.612 204.891 490.688 204.755C490.764 204.62 490.927 204.521 491.095 204.521C491.236 204.521 491.361 204.583 491.448 204.693C492.457 205.974 493.879 206.901 495.485 207.302C496.072 207.453 496.679 207.526 497.293 207.526C498.449 207.526 499.594 207.266 500.625 206.766C499.925 205.375 500.066 203.792 501.005 202.609C501.77 201.646 502.964 201.047 504.125 201.047C504.505 201.047 504.874 201.109 505.232 201.229C506.823 201.792 507.881 203.339 507.675 204.828C507.637 205.073 507.42 205.208 507.219 205.208C507.089 205.208 506.975 205.156 506.909 205.083C506.833 205.01 506.812 204.901 506.823 204.792C506.871 204.438 506.85 204.12 506.757 203.813C506.361 202.682 505.243 201.865 504.033 201.865Z" fill="white"/>
<path d="M556.299 199.93H556.006C555.979 199.878 555.93 199.842 555.854 199.831C550.66 199.003 545.445 198.321 540.202 197.784C537.988 197.55 535.67 197.321 533.646 196.342C531.573 195.342 530.249 193.462 528.366 192.206C526.434 190.925 524.078 190.279 521.734 190.363C521.75 190.352 521.761 190.342 521.772 190.326C522.488 189.545 522.971 188.524 522.955 187.472C522.944 186.462 522.412 185.581 521.533 185.019C520.681 184.472 519.633 184.253 518.629 184.144C517.381 184.008 516.111 184.019 514.863 184.118C511.965 184.352 509.127 185.154 506.543 186.472C506.478 186.508 506.44 186.56 506.429 186.618C504.351 183.826 500.818 182.18 497.176 182.462C495.993 182.555 494.837 182.837 493.752 183.3C494.061 182.274 494.121 181.191 493.904 180.128C493.459 177.982 491.868 176.092 489.692 175.357C487.44 174.602 484.857 175.102 482.876 176.31C480.504 177.748 478.914 180.081 477.785 182.482C477.769 182.519 477.769 182.545 477.769 182.571C474.833 180.873 471.115 180.753 468.076 182.31C467.208 182.753 466.421 183.316 465.732 183.972C465.721 183.998 465.71 184.008 465.694 184.034C464.814 183.863 463.886 183.837 463.034 183.863C460.044 183.935 457.222 184.962 454.856 186.706C453.694 187.56 452.614 188.524 451.377 189.29C450.031 190.133 448.566 190.597 446.976 190.842C445.065 191.133 443.144 191.269 441.223 191.477C439.242 191.68 437.239 191.889 435.242 192.097C434.927 192.133 434.911 192.587 435.242 192.571C439.28 192.378 443.312 192.342 447.345 192.477C450.427 192.587 454.09 192.597 456.56 194.67C457.651 195.597 458.546 197.17 460.174 197.232C459.572 198.087 459.295 199.123 459.344 200.175C459.436 201.795 460.348 203.31 461.634 204.331C464.51 206.639 468.836 206.613 472.195 205.42C474.057 204.758 475.75 203.722 477.134 202.357C477.975 202.639 478.789 203.003 479.565 203.441C482.149 204.894 484.553 206.946 487.619 207.321C489.111 207.503 490.685 207.264 491.923 206.409C491.999 206.357 492.02 206.284 492.02 206.212C492.927 206.93 493.969 207.456 495.114 207.748C497.051 208.238 499.135 207.982 500.905 207.092C500.915 207.076 500.915 207.076 500.932 207.066C501.784 208.284 503.233 209.019 504.774 209.029C506.527 209.055 508.106 208.248 509.251 207.003C510.358 205.81 511.124 204.357 512.28 203.212C513.577 201.93 515.335 201.404 517.153 201.222C519.188 201.003 521.278 201.029 523.324 200.956C527.779 200.805 532.246 200.649 536.702 200.503C537.261 200.477 537.82 200.467 538.368 200.441C538.471 200.441 538.547 200.378 538.568 200.305C543.138 200.331 547.719 200.368 552.288 200.394C553.612 200.404 554.92 200.404 556.244 200.415C556.614 200.404 556.614 199.93 556.299 199.93ZM542.324 199.842C541 199.831 539.692 199.831 538.368 199.821C538.254 199.821 538.178 199.878 538.151 199.967C534.064 200.102 529.983 200.248 525.896 200.378C523.812 200.456 521.734 200.529 519.65 200.587C517.956 200.649 516.225 200.712 514.624 201.258C513.083 201.784 511.949 202.758 510.993 204.003C510.065 205.201 509.289 206.54 508.068 207.482C506.744 208.493 504.877 208.857 503.271 208.264C501.811 207.712 500.715 206.274 500.704 204.758C500.687 203.321 501.784 201.956 503.233 201.587C504.736 201.196 506.337 202.159 506.771 203.576C506.874 203.92 506.896 204.258 506.847 204.628C506.809 204.93 507.303 204.93 507.341 204.628C507.547 203.139 506.451 201.712 505.029 201.212C503.553 200.696 501.936 201.368 501.008 202.529C500.052 203.748 499.987 205.331 500.725 206.665C500.715 206.675 500.704 206.665 500.687 206.675C499.032 207.503 497.089 207.748 495.282 207.284C493.638 206.873 492.151 205.92 491.147 204.613C490.951 204.368 490.522 204.602 490.712 204.847C491.033 205.248 491.385 205.628 491.771 205.956C491.744 205.967 491.733 205.967 491.706 205.993C489.209 207.738 486.002 206.685 483.614 205.321C482.262 204.555 481.003 203.665 479.652 202.92C478.344 202.196 476.944 201.659 475.43 201.456C473.737 201.222 472.005 201.383 470.388 201.92C470.084 202.014 470.214 202.477 470.518 202.383C472.005 201.894 473.585 201.722 475.137 201.894C475.647 201.956 476.141 202.05 476.624 202.185C474.334 204.347 471.202 205.639 468 205.712C466.204 205.758 464.359 205.43 462.817 204.529C461.471 203.748 460.386 202.493 460.006 201.003C459.599 199.404 460.136 197.55 461.536 196.54C461.775 196.352 461.536 195.941 461.281 196.123C460.972 196.342 460.706 196.587 460.478 196.868C460.44 196.805 460.375 196.743 460.272 196.743C458.796 196.722 457.944 195.159 456.951 194.316C455.822 193.352 454.384 192.805 452.918 192.488C451.355 192.159 449.738 192.071 448.137 192.014C446.124 191.925 444.099 191.904 442.075 191.904C441.885 191.904 441.695 191.904 441.516 191.915C442.699 191.79 443.871 191.67 445.054 191.55C446.541 191.389 448.045 191.243 449.472 190.753C450.758 190.316 451.887 189.597 452.956 188.79C454.036 187.972 455.067 187.081 456.229 186.363C457.396 185.633 458.709 185.081 460.06 184.743C461.417 184.399 462.817 184.264 464.217 184.352C465.552 184.435 467.273 184.618 468.098 185.779C468.977 187.008 467.973 188.451 466.611 188.769C465.145 189.107 463.707 188.097 462.882 187.034C462.692 186.79 462.258 187.024 462.448 187.279C463.241 188.305 464.369 189.159 465.721 189.29C466.942 189.415 468.228 188.769 468.722 187.67C469.281 186.462 468.559 185.217 467.425 184.607C467.067 184.409 466.676 184.264 466.269 184.154C467.718 182.837 469.601 181.962 471.598 181.727C473.764 181.482 475.962 181.998 477.796 183.128C478.013 183.264 478.214 183.008 478.138 182.826C478.176 182.81 478.214 182.774 478.241 182.727C479.185 180.727 480.417 178.8 482.197 177.383C483.929 176.019 486.273 175.212 488.525 175.555C490.712 175.894 492.482 177.409 493.203 179.409C493.958 181.456 493.459 183.743 492.14 185.472C490.544 187.545 487.847 188.607 485.204 188.56C484.884 188.545 484.884 189.024 485.204 189.034C487.695 189.081 490.24 188.191 491.944 186.425C492.672 185.67 493.231 184.779 493.6 183.826C493.665 183.852 493.73 183.852 493.806 183.816C497.594 182.107 502.191 182.925 505.105 185.816C505.854 186.571 506.478 187.425 506.934 188.363C507.075 188.644 507.498 188.399 507.368 188.118C507.167 187.706 506.923 187.3 506.657 186.925C506.706 186.935 506.76 186.935 506.809 186.899C508.817 185.873 510.993 185.17 513.246 184.816C514.369 184.633 515.498 184.545 516.632 184.545C517.652 184.545 518.705 184.581 519.715 184.826C520.567 185.019 521.441 185.389 521.978 186.097C522.586 186.899 522.564 187.951 522.195 188.842C521.468 190.597 519.357 191.889 517.397 191.326C516.404 191.05 515.525 190.326 515.297 189.342C515.069 188.425 515.4 187.363 516.214 186.8C516.469 186.633 516.225 186.217 515.97 186.389C515.183 186.925 514.749 187.805 514.738 188.732C514.722 189.706 515.221 190.587 516.008 191.18C517.625 192.368 519.774 192.05 521.251 190.863C521.289 190.889 521.327 190.899 521.381 190.899C523.606 190.743 525.858 191.279 527.752 192.425C529.69 193.587 530.987 195.477 532.973 196.576C534.878 197.623 537.092 197.967 539.247 198.212C541.792 198.488 544.348 198.758 546.877 199.076C549.016 199.342 551.154 199.649 553.292 199.967C549.629 199.894 545.987 199.868 542.324 199.842Z" fill="white"/>
<path d="M1117.77 103.428C1114.11 103.402 1110.46 103.381 1106.81 103.366C1105.48 103.355 1104.18 103.355 1102.85 103.345C1102.74 103.345 1102.66 103.402 1102.63 103.491C1098.55 103.626 1094.47 103.772 1090.38 103.902C1088.3 103.975 1086.22 104.053 1084.13 104.11C1082.44 104.173 1080.71 104.235 1079.11 104.782C1077.57 105.308 1076.43 106.282 1075.48 107.527C1074.55 108.725 1073.77 110.063 1072.55 111.006C1071.23 112.017 1069.36 112.381 1067.75 111.787C1066.29 111.235 1065.2 109.798 1065.19 108.282C1065.17 106.845 1066.27 105.48 1067.72 105.11C1069.22 104.72 1070.82 105.683 1071.26 107.1C1071.36 107.444 1071.38 107.782 1071.33 108.152C1071.29 108.454 1071.79 108.454 1071.83 108.152C1072.03 106.662 1070.94 105.235 1069.51 104.735C1068.04 104.22 1066.42 104.892 1065.49 106.053C1064.54 107.272 1064.47 108.855 1065.21 110.188C1065.2 110.199 1065.19 110.188 1065.17 110.199C1063.52 111.027 1061.57 111.272 1059.77 110.808C1058.12 110.397 1056.63 109.444 1055.63 108.136C1055.44 107.892 1055.01 108.126 1055.2 108.371C1055.52 108.772 1055.87 109.152 1056.25 109.48C1056.23 109.491 1056.22 109.491 1056.19 109.517C1053.69 111.261 1050.49 110.209 1048.1 108.845C1046.75 108.079 1045.49 107.188 1044.14 106.444C1042.83 105.72 1041.43 105.183 1039.91 104.98C1038.22 104.746 1036.49 104.907 1034.87 105.444C1034.57 105.537 1034.7 106.001 1035 105.907C1036.49 105.418 1038.07 105.246 1039.62 105.418C1040.13 105.48 1040.62 105.574 1041.11 105.709C1038.82 107.871 1035.69 109.162 1032.48 109.235C1030.69 109.282 1028.84 108.954 1027.3 108.053C1025.96 107.272 1024.87 106.017 1024.49 104.527C1024.08 102.928 1024.62 101.074 1026.02 100.063C1026.26 99.876 1026.02 99.4645 1025.77 99.6468C1025.46 99.8656 1025.19 100.11 1024.96 100.392C1024.92 100.329 1024.86 100.267 1024.76 100.267C1023.28 100.246 1022.43 98.6833 1021.43 97.8395C1020.31 96.876 1018.87 96.3291 1017.4 96.0114C1015.84 95.6833 1014.22 95.5947 1012.62 95.5374C1010.61 95.4489 1008.58 95.4281 1006.56 95.4281C1006.37 95.4281 1006.18 95.4281 1006 95.4385C1007.18 95.3135 1008.36 95.1937 1009.54 95.0739C1011.03 94.9124 1012.53 94.7666 1013.96 94.277C1015.24 93.8395 1016.37 93.1208 1017.44 92.3135C1018.52 91.4958 1019.55 90.6051 1020.71 89.8864C1021.88 89.1572 1023.19 88.6051 1024.54 88.2666C1025.9 87.9228 1027.3 87.7874 1028.7 87.876C1030.04 87.9593 1031.76 88.1416 1032.58 89.3031C1033.46 90.5322 1032.46 91.9749 1031.09 92.2926C1029.63 92.6312 1028.19 91.6208 1027.37 90.5583C1027.18 90.3135 1026.74 90.5478 1026.93 90.8031C1027.72 91.8291 1028.85 92.6833 1030.2 92.8135C1031.43 92.9385 1032.71 92.2926 1033.21 91.1937C1033.76 89.9853 1033.04 88.7406 1031.91 88.1312C1031.55 87.9333 1031.16 87.7874 1030.75 87.6781C1032.2 86.3603 1034.09 85.4853 1036.08 85.251C1038.25 85.0062 1040.45 85.5218 1042.28 86.652C1042.5 86.7874 1042.7 86.5322 1042.62 86.3499C1042.66 86.3343 1042.7 86.2978 1042.73 86.251C1043.67 84.251 1044.9 82.3239 1046.68 80.9072C1048.41 79.5426 1050.76 78.7353 1053.01 79.0791C1055.2 79.4176 1056.97 80.9333 1057.69 82.9333C1058.44 84.9801 1057.94 87.2666 1056.62 88.9958C1055.03 91.0687 1052.33 92.1312 1049.69 92.0843C1049.37 92.0687 1049.37 92.5478 1049.69 92.5583C1052.18 92.6051 1054.72 91.7145 1056.43 89.9489C1057.16 89.1937 1057.71 88.3031 1058.08 87.3499C1058.15 87.376 1058.21 87.376 1058.29 87.3395C1062.08 85.6312 1066.67 86.4489 1069.59 89.3395C1070.34 90.0947 1070.96 90.9489 1071.42 91.8864C1071.56 92.1676 1071.98 91.9228 1071.85 91.6416C1071.65 91.2301 1071.41 90.8239 1071.14 90.4489C1071.19 90.4593 1071.24 90.4593 1071.29 90.4228C1073.3 89.3968 1075.48 88.6937 1077.73 88.3395C1078.85 88.152 1079.98 88.0687 1081.12 88.0687C1082.14 88.0687 1083.19 88.1051 1084.2 88.3499C1085.05 88.5426 1085.92 88.9124 1086.46 89.6208C1087.07 90.4228 1087.05 91.4749 1086.68 92.3656C1085.95 94.1208 1083.84 95.4124 1081.88 94.8499C1080.89 94.5739 1080.01 93.8499 1079.78 92.8656C1079.55 91.9489 1079.88 90.8864 1080.7 90.3239C1080.95 90.1572 1080.71 89.7406 1080.45 89.9124C1079.67 90.4489 1079.23 91.3291 1079.22 92.2562C1079.21 93.2301 1079.71 94.1103 1080.49 94.7041C1082.11 95.8916 1084.26 95.5739 1085.73 94.3864C1085.77 94.4124 1085.81 94.4228 1085.86 94.4228C1088.09 94.2666 1090.34 94.8031 1092.24 95.9489C1094.17 97.1103 1095.47 99.001 1097.46 100.1C1099.36 101.147 1101.58 101.491 1103.73 101.735C1106.28 102.011 1108.83 102.282 1111.36 102.6C1113.5 102.808 1115.64 103.11 1117.77 103.428Z" fill="#D2F3F9"/>
<path d="M1068.94 112.391C1067.37 112.365 1065.94 111.656 1065.04 110.474C1063.86 111.047 1062.56 111.344 1061.27 111.344C1060.58 111.344 1059.89 111.255 1059.24 111.099C1058.17 110.828 1057.16 110.339 1056.27 109.672C1056.25 109.693 1056.23 109.708 1056.2 109.719C1055.26 110.375 1054.05 110.729 1052.73 110.729C1052.41 110.729 1052.09 110.708 1051.76 110.672C1049.43 110.375 1047.47 109.146 1045.58 107.948C1044.94 107.547 1044.28 107.13 1043.63 106.766C1042.87 106.328 1042.09 105.984 1041.35 105.729C1039.98 107.057 1038.27 108.094 1036.43 108.755C1034.94 109.281 1033.33 109.563 1031.78 109.563C1029.37 109.563 1027.26 108.891 1025.69 107.63C1024.27 106.5 1023.41 104.922 1023.33 103.339C1023.28 102.349 1023.54 101.375 1024.03 100.547C1022.94 100.385 1022.2 99.5938 1021.47 98.8229C1021.18 98.5208 1020.9 98.2292 1020.61 97.9688C1018.33 96.0417 1014.96 95.9219 1011.99 95.8229L1011.53 95.8125C1009.89 95.7604 1008.25 95.724 1006.64 95.724C1004.24 95.724 1001.82 95.7865 999.435 95.9063C999.18 95.9063 999.017 95.7604 999.001 95.5417C998.99 95.349 999.131 95.1146 999.408 95.0781C1001.4 94.8698 1003.39 94.6667 1005.39 94.4583C1005.94 94.3958 1006.5 94.349 1007.04 94.2969C1008.39 94.1771 1009.78 94.0417 1011.14 93.8333C1012.85 93.5781 1014.26 93.0781 1015.47 92.3073C1016.26 91.8073 1017 91.224 1017.72 90.6615C1018.11 90.3594 1018.52 90.026 1018.93 89.724C1021.4 87.9063 1024.26 86.9167 1027.23 86.8438C1027.38 86.8438 1027.55 86.8438 1027.71 86.8438C1028.5 86.8438 1029.2 86.8906 1029.82 87.0052C1030.55 86.3177 1031.34 85.7448 1032.2 85.3177C1033.63 84.5885 1035.24 84.2083 1036.89 84.2083C1038.64 84.2083 1040.37 84.6458 1041.89 85.4792C1043.25 82.599 1044.92 80.5833 1046.99 79.3281C1048.4 78.474 1050.05 78 1051.64 78C1052.46 78 1053.24 78.1198 1053.96 78.3646C1056.13 79.0833 1057.82 81.0104 1058.29 83.2708C1058.48 84.2083 1058.45 85.2083 1058.23 86.1719C1059.24 85.7813 1060.28 85.5365 1061.37 85.4635C1061.63 85.4427 1061.92 85.4271 1062.18 85.4271C1065.5 85.4271 1068.65 86.9531 1070.64 89.5156C1070.65 89.5156 1070.65 89.5052 1070.67 89.5052C1073.29 88.1615 1076.1 87.3698 1079.06 87.1354C1079.68 87.0885 1080.29 87.0625 1080.89 87.0625C1081.56 87.0625 1082.22 87.099 1082.86 87.1615C1084.15 87.2969 1085.1 87.5885 1085.84 88.0625C1086.77 88.6719 1087.32 89.6146 1087.34 90.6615C1087.35 91.5781 1087 92.5521 1086.34 93.3698H1086.36C1088.61 93.3698 1090.85 94.0417 1092.68 95.25C1093.49 95.7865 1094.2 96.4323 1094.89 97.0677C1095.81 97.9219 1096.77 98.8021 1097.94 99.375C1099.92 100.323 1102.2 100.568 1104.41 100.802C1109.71 101.349 1114.98 102.031 1120.1 102.849C1120.17 102.865 1120.25 102.901 1120.3 102.948H1120.5C1120.74 102.948 1120.92 103.13 1120.92 103.365C1120.92 103.594 1120.74 103.766 1120.5 103.766C1119.18 103.755 1117.85 103.755 1116.54 103.74L1102.91 103.656C1102.84 103.74 1102.73 103.776 1102.62 103.792L1100.95 103.849C1096.5 103.995 1092.04 104.156 1087.58 104.302C1087.03 104.328 1086.47 104.339 1085.93 104.349C1084.44 104.385 1082.91 104.422 1081.42 104.573C1079.32 104.792 1077.76 105.422 1076.66 106.51C1076.04 107.12 1075.53 107.828 1075.03 108.521C1074.6 109.12 1074.15 109.745 1073.63 110.302C1072.39 111.646 1070.78 112.391 1069.09 112.391H1068.94ZM1068.03 104.865C1067.82 104.865 1067.6 104.885 1067.4 104.948C1066.03 105.302 1064.99 106.594 1065 107.948C1065.02 109.354 1066.05 110.755 1067.46 111.281C1067.95 111.464 1068.48 111.547 1069.03 111.547C1070.11 111.547 1071.23 111.172 1072.08 110.51C1072.97 109.828 1073.63 108.901 1074.29 108.01C1074.51 107.693 1074.74 107.375 1074.99 107.073C1076.08 105.646 1077.26 104.755 1078.7 104.266C1080.34 103.703 1082.09 103.646 1083.79 103.583L1102.19 102.958C1102.27 102.865 1102.38 102.813 1102.52 102.813L1114.91 102.885C1113.63 102.703 1112.31 102.531 1110.98 102.365C1109.22 102.141 1107.43 101.948 1105.7 101.75C1104.91 101.667 1104.13 101.583 1103.35 101.495C1101.32 101.266 1098.99 100.938 1097.01 99.8385C1095.96 99.25 1095.09 98.4479 1094.25 97.6667C1093.49 96.9583 1092.71 96.2396 1091.79 95.6875C1090.14 94.6875 1088.24 94.1667 1086.28 94.1667C1086.04 94.1667 1085.79 94.1771 1085.53 94.1875C1085.53 94.1875 1085.53 94.1875 1085.52 94.1875C1085.48 94.1875 1085.45 94.1875 1085.42 94.1771C1084.55 94.849 1083.49 95.2135 1082.44 95.2135C1081.55 95.2135 1080.72 94.9427 1080.02 94.4323C1079.16 93.7969 1078.66 92.849 1078.68 91.8438C1078.69 90.8333 1079.16 89.9167 1079.98 89.3594C1080.06 89.3073 1080.14 89.2865 1080.23 89.2865C1080.4 89.2865 1080.56 89.4063 1080.62 89.5781C1080.68 89.7604 1080.62 89.9427 1080.46 90.0521C1079.74 90.5417 1079.4 91.5156 1079.61 92.4063C1079.83 93.276 1080.58 93.9792 1081.6 94.276C1081.89 94.3594 1082.2 94.3958 1082.5 94.3958C1084.03 94.3958 1085.58 93.3333 1086.18 91.8802C1086.58 90.9167 1086.51 89.9792 1085.99 89.3073C1085.57 88.75 1084.85 88.3438 1083.83 88.1146C1082.82 87.8802 1081.78 87.8438 1080.8 87.8438H1080.73C1079.64 87.8438 1078.53 87.9323 1077.44 88.1146C1075.21 88.4688 1073.07 89.1615 1071.1 90.1615C1071.33 90.5156 1071.52 90.8438 1071.69 91.1771C1071.75 91.3073 1071.75 91.4583 1071.66 91.5781C1071.57 91.6979 1071.43 91.7865 1071.28 91.7865C1071.13 91.7865 1071 91.6979 1070.93 91.5677C1070.46 90.6406 1069.87 89.7969 1069.12 89.0521C1067.31 87.2604 1064.75 86.224 1062.12 86.224C1060.69 86.224 1059.32 86.5156 1058.03 87.0885C1057.98 87.1146 1057.93 87.125 1057.87 87.125C1057.5 88.0521 1056.92 88.9323 1056.23 89.651C1054.58 91.3438 1052.14 92.3229 1049.52 92.3229C1049.46 92.3229 1049.39 92.3229 1049.34 92.3229C1049.1 92.3229 1048.92 92.1406 1048.92 91.8958C1048.92 91.6615 1049.1 91.4948 1049.34 91.4948C1049.41 91.4948 1049.52 91.4948 1049.52 91.4948C1052.21 91.4948 1054.69 90.3698 1056.13 88.4792C1057.47 86.7083 1057.87 84.5 1057.17 82.5885C1056.44 80.6094 1054.71 79.1823 1052.63 78.8542C1052.28 78.8073 1051.94 78.7656 1051.58 78.7656C1049.83 78.7656 1047.95 79.4531 1046.46 80.6354C1044.92 81.8542 1043.64 83.5729 1042.55 85.9167C1042.54 85.9531 1042.51 85.9896 1042.48 86.0156C1042.48 86.099 1042.46 86.1979 1042.41 86.2813C1042.33 86.4063 1042.21 86.4635 1042.06 86.4635C1041.99 86.4635 1041.91 86.4427 1041.84 86.3906C1040.32 85.4531 1038.59 84.9635 1036.81 84.9635C1036.46 84.9635 1036.11 84.9896 1035.76 85.026C1033.95 85.2344 1032.18 86 1030.78 87.1979C1031.11 87.3073 1031.4 87.4323 1031.67 87.5781C1032.83 88.1979 1033.66 89.526 1033.04 90.8594C1032.56 91.8958 1031.4 92.6042 1030.17 92.6042C1030.07 92.6042 1029.95 92.6042 1029.85 92.5885C1028.59 92.4688 1027.38 91.724 1026.45 90.5052C1026.36 90.3802 1026.34 90.2344 1026.41 90.1146C1026.49 89.9792 1026.65 89.8802 1026.82 89.8802C1026.96 89.8802 1027.09 89.9427 1027.18 90.0521C1027.82 90.8958 1028.94 91.7865 1030.17 91.7865C1030.34 91.7865 1030.54 91.7604 1030.71 91.724C1031.43 91.5521 1032.04 91.0521 1032.28 90.4427C1032.42 90.1042 1032.5 89.5625 1032.09 89.0052C1031.35 87.9688 1029.78 87.7448 1028.34 87.6615C1028.08 87.651 1027.81 87.6354 1027.56 87.6354C1026.44 87.6354 1025.33 87.7708 1024.24 88.0521C1022.87 88.3958 1021.6 88.9427 1020.46 89.651C1019.67 90.151 1018.92 90.7344 1018.19 91.2969C1017.86 91.5521 1017.53 91.8229 1017.2 92.0677C1016.31 92.7344 1015.1 93.5677 1013.66 94.0521C1012.24 94.5417 1010.71 94.7031 1009.23 94.849L1008.92 94.8854C1010.06 94.8958 1011.18 94.9323 1012.28 94.9792C1014.01 95.0521 1015.56 95.1406 1017.1 95.4688C1018.79 95.8333 1020.17 96.4583 1021.21 97.3385C1021.5 97.5781 1021.77 97.875 1022.05 98.1875C1022.73 98.9323 1023.43 99.7031 1024.42 99.7292C1024.48 99.7292 1024.54 99.7396 1024.61 99.776C1024.82 99.5417 1025.05 99.3229 1025.32 99.1406C1025.39 99.0938 1025.47 99.0573 1025.56 99.0573C1025.72 99.0573 1025.88 99.1667 1025.94 99.349C1026.01 99.5313 1025.94 99.7135 1025.79 99.8385C1024.51 100.766 1023.92 102.521 1024.34 104.12C1024.69 105.484 1025.69 106.729 1027.07 107.536C1028.37 108.302 1030.03 108.708 1031.85 108.708C1031.95 108.708 1032.05 108.708 1032.17 108.708C1035.19 108.635 1038.19 107.448 1040.44 105.438C1040.04 105.339 1039.66 105.266 1039.29 105.229C1038.9 105.182 1038.5 105.167 1038.09 105.167C1036.95 105.167 1035.83 105.349 1034.75 105.703C1034.69 105.719 1034.65 105.729 1034.61 105.729C1034.4 105.729 1034.25 105.583 1034.21 105.385C1034.17 105.182 1034.3 104.984 1034.5 104.922C1035.65 104.547 1036.85 104.349 1038.07 104.349C1038.59 104.349 1039.11 104.385 1039.62 104.458C1041.03 104.656 1042.43 105.13 1043.91 105.938C1044.66 106.339 1045.39 106.802 1046.09 107.255C1046.67 107.62 1047.27 108 1047.87 108.354C1049.11 109.057 1051 109.911 1052.84 109.911C1053.88 109.911 1054.83 109.646 1055.63 109.12C1055.28 108.802 1054.99 108.474 1054.73 108.146C1054.63 108.021 1054.61 107.891 1054.69 107.755C1054.76 107.62 1054.93 107.521 1055.09 107.521C1055.24 107.521 1055.36 107.583 1055.45 107.693C1056.46 108.974 1057.88 109.901 1059.49 110.302C1060.07 110.453 1060.68 110.526 1061.29 110.526C1062.45 110.526 1063.59 110.266 1064.62 109.766C1063.92 108.375 1064.07 106.792 1065 105.609C1065.77 104.646 1066.96 104.047 1068.13 104.047C1068.51 104.047 1068.87 104.109 1069.23 104.229C1070.82 104.792 1071.88 106.339 1071.67 107.828C1071.64 108.073 1071.42 108.208 1071.22 108.208C1071.09 108.208 1070.97 108.156 1070.91 108.083C1070.83 108.01 1070.81 107.901 1070.82 107.792C1070.87 107.438 1070.85 107.12 1070.76 106.813C1070.36 105.682 1069.24 104.865 1068.03 104.865Z" fill="white"/>
<path d="M1120.3 102.93H1120.01C1119.98 102.878 1119.93 102.842 1119.85 102.831C1114.66 102.003 1109.44 101.321 1104.2 100.784C1101.99 100.55 1099.67 100.321 1097.65 99.3417C1095.57 98.3417 1094.25 96.4615 1092.37 95.2063C1090.43 93.9251 1088.08 93.2792 1085.73 93.3626C1085.75 93.3522 1085.76 93.3417 1085.77 93.3261C1086.49 92.5449 1086.97 91.524 1086.95 90.4719C1086.94 89.4615 1086.41 88.5813 1085.53 88.0188C1084.68 87.4719 1083.63 87.2532 1082.63 87.1438C1081.38 87.0084 1080.11 87.0188 1078.86 87.1178C1075.96 87.3522 1073.13 88.1542 1070.54 89.4719C1070.48 89.5084 1070.44 89.5605 1070.43 89.6178C1068.35 86.8261 1064.82 85.1803 1061.18 85.4615C1059.99 85.5553 1058.84 85.8365 1057.75 86.3001C1058.06 85.274 1058.12 84.1907 1057.9 83.1282C1057.46 80.9824 1055.87 79.0917 1053.69 78.3574C1051.44 77.6022 1048.86 78.1022 1046.88 79.3105C1044.5 80.748 1042.91 83.0813 1041.79 85.4824C1041.77 85.5188 1041.77 85.5449 1041.77 85.5709C1038.83 83.873 1035.12 83.7532 1032.08 85.3105C1031.21 85.7532 1030.42 86.3157 1029.73 86.9719C1029.72 86.998 1029.71 87.0084 1029.69 87.0344C1028.81 86.8626 1027.89 86.8365 1027.03 86.8626C1024.04 86.9355 1021.22 87.9615 1018.86 89.7063C1017.69 90.5605 1016.61 91.524 1015.38 92.2897C1014.03 93.1334 1012.57 93.5969 1010.98 93.8417C1009.07 94.1334 1007.14 94.2688 1005.22 94.4772C1003.24 94.6803 1001.24 94.8886 999.242 95.0969C998.927 95.1334 998.911 95.5865 999.242 95.5709C1003.28 95.3782 1007.31 95.3417 1011.34 95.4772C1014.43 95.5865 1018.09 95.5969 1020.56 97.6699C1021.65 98.5969 1022.55 100.17 1024.17 100.232C1023.57 101.087 1023.3 102.123 1023.34 103.175C1023.44 104.795 1024.35 106.31 1025.63 107.331C1028.51 109.639 1032.84 109.613 1036.2 108.42C1038.06 107.758 1039.75 106.722 1041.13 105.357C1041.98 105.639 1042.79 106.003 1043.57 106.441C1046.15 107.894 1048.55 109.946 1051.62 110.321C1053.11 110.503 1054.69 110.264 1055.92 109.409C1056 109.357 1056.02 109.284 1056.02 109.212C1056.93 109.93 1057.97 110.456 1059.11 110.748C1061.05 111.238 1063.14 110.982 1064.9 110.092C1064.92 110.076 1064.92 110.076 1064.93 110.066C1065.78 111.284 1067.23 112.019 1068.77 112.029C1070.53 112.055 1072.11 111.248 1073.25 110.003C1074.36 108.81 1075.12 107.357 1076.28 106.212C1077.58 104.93 1079.34 104.404 1081.15 104.222C1083.19 104.003 1085.28 104.029 1087.32 103.956C1091.78 103.805 1096.25 103.649 1100.7 103.503C1101.26 103.477 1101.82 103.467 1102.37 103.441C1102.47 103.441 1102.55 103.378 1102.57 103.305C1107.14 103.331 1111.72 103.368 1116.29 103.394C1117.61 103.404 1118.92 103.404 1120.24 103.415C1120.61 103.404 1120.61 102.93 1120.3 102.93ZM1106.32 102.842C1105 102.831 1103.69 102.831 1102.37 102.821C1102.25 102.821 1102.18 102.878 1102.15 102.967C1098.06 103.102 1093.98 103.248 1089.9 103.378C1087.81 103.456 1085.73 103.529 1083.65 103.587C1081.96 103.649 1080.23 103.712 1078.62 104.258C1077.08 104.784 1075.95 105.758 1074.99 107.003C1074.07 108.201 1073.29 109.54 1072.07 110.482C1070.74 111.493 1068.88 111.857 1067.27 111.264C1065.81 110.712 1064.71 109.274 1064.7 107.758C1064.69 106.321 1065.78 104.956 1067.23 104.587C1068.74 104.196 1070.34 105.159 1070.77 106.576C1070.87 106.92 1070.9 107.258 1070.85 107.628C1070.81 107.93 1071.3 107.93 1071.34 107.628C1071.55 106.139 1070.45 104.712 1069.03 104.212C1067.55 103.696 1065.94 104.368 1065.01 105.529C1064.05 106.748 1063.99 108.331 1064.73 109.665C1064.71 109.675 1064.7 109.665 1064.69 109.675C1063.03 110.503 1061.09 110.748 1059.28 110.284C1057.64 109.873 1056.15 108.92 1055.15 107.613C1054.95 107.368 1054.52 107.602 1054.71 107.847C1055.03 108.248 1055.39 108.628 1055.77 108.956C1055.74 108.967 1055.73 108.967 1055.71 108.993C1053.21 110.738 1050 109.685 1047.61 108.321C1046.26 107.555 1045 106.665 1043.65 105.92C1042.34 105.196 1040.94 104.659 1039.43 104.456C1037.74 104.222 1036.01 104.383 1034.39 104.92C1034.08 105.014 1034.21 105.477 1034.52 105.383C1036.01 104.894 1037.58 104.722 1039.14 104.894C1039.65 104.956 1040.14 105.05 1040.62 105.185C1038.33 107.347 1035.2 108.639 1032 108.712C1030.2 108.758 1028.36 108.43 1026.82 107.529C1025.47 106.748 1024.39 105.493 1024.01 104.003C1023.6 102.404 1024.14 100.55 1025.54 99.5397C1025.78 99.3522 1025.54 98.9407 1025.28 99.123C1024.97 99.3417 1024.71 99.5865 1024.48 99.8678C1024.44 99.8053 1024.38 99.7428 1024.27 99.7428C1022.8 99.7219 1021.94 98.1594 1020.95 97.3157C1019.82 96.3522 1018.38 95.8053 1016.92 95.4876C1015.36 95.1594 1013.74 95.0709 1012.14 95.0136C1010.12 94.9251 1008.1 94.9042 1006.07 94.9042C1005.88 94.9042 1005.7 94.9042 1005.52 94.9147C1006.7 94.7897 1007.87 94.6699 1009.05 94.5501C1010.54 94.3886 1012.04 94.2428 1013.47 93.7532C1014.76 93.3157 1015.89 92.5969 1016.96 91.7897C1018.04 90.9719 1019.07 90.0813 1020.23 89.3626C1021.4 88.6334 1022.71 88.0813 1024.06 87.7428C1025.42 87.399 1026.82 87.2636 1028.22 87.3522C1029.55 87.4355 1031.27 87.6178 1032.1 88.7792C1032.98 90.0084 1031.97 91.4511 1030.61 91.7688C1029.15 92.1074 1027.71 91.0969 1026.88 90.0344C1026.69 89.7897 1026.26 90.024 1026.45 90.2792C1027.24 91.3053 1028.37 92.1594 1029.72 92.2897C1030.94 92.4147 1032.23 91.7688 1032.72 90.6699C1033.28 89.4615 1032.56 88.2167 1031.42 87.6074C1031.07 87.4094 1030.68 87.2636 1030.27 87.1542C1031.72 85.8365 1033.6 84.9615 1035.6 84.7272C1037.76 84.4824 1039.96 84.998 1041.8 86.1282C1042.01 86.2636 1042.21 86.0084 1042.14 85.8261C1042.18 85.8105 1042.21 85.774 1042.24 85.7272C1043.19 83.7272 1044.42 81.8001 1046.2 80.3834C1047.93 79.0188 1050.27 78.2115 1052.53 78.5553C1054.71 78.8938 1056.48 80.4094 1057.2 82.4094C1057.96 84.4563 1057.46 86.7428 1056.14 88.4719C1054.54 90.5449 1051.85 91.6074 1049.2 91.5605C1048.88 91.5449 1048.88 92.024 1049.2 92.0344C1051.69 92.0813 1054.24 91.1907 1055.94 89.4251C1056.67 88.6699 1057.23 87.7792 1057.6 86.8261C1057.66 86.8522 1057.73 86.8522 1057.81 86.8157C1061.59 85.1074 1066.19 85.9251 1069.11 88.8157C1069.85 89.5709 1070.48 90.4251 1070.93 91.3626C1071.08 91.6438 1071.5 91.399 1071.37 91.1178C1071.17 90.7063 1070.92 90.3001 1070.66 89.9251C1070.71 89.9355 1070.76 89.9355 1070.81 89.899C1072.82 88.873 1074.99 88.1699 1077.25 87.8157C1078.37 87.6334 1079.5 87.5449 1080.63 87.5449C1081.65 87.5449 1082.71 87.5813 1083.71 87.8261C1084.57 88.0188 1085.44 88.3886 1085.98 89.0969C1086.59 89.899 1086.56 90.9511 1086.19 91.8417C1085.47 93.5969 1083.36 94.8886 1081.4 94.3261C1080.4 94.0501 1079.53 93.3261 1079.3 92.3417C1079.07 91.4251 1079.4 90.3626 1080.21 89.8001C1080.47 89.6334 1080.23 89.2167 1079.97 89.3886C1079.18 89.9251 1078.75 90.8053 1078.74 91.7324C1078.72 92.7063 1079.22 93.5865 1080.01 94.1803C1081.63 95.3678 1083.77 95.0501 1085.25 93.8626C1085.29 93.8886 1085.33 93.899 1085.38 93.899C1087.61 93.7428 1089.86 94.2792 1091.75 95.4251C1093.69 96.5865 1094.99 98.4772 1096.97 99.5761C1098.88 100.623 1101.09 100.967 1103.25 101.212C1105.79 101.488 1108.35 101.758 1110.88 102.076C1113.02 102.342 1115.15 102.649 1117.29 102.967C1113.63 102.894 1109.99 102.868 1106.32 102.842Z" fill="white"/>
<path d="M1063.77 316.428C1060.11 316.402 1056.46 316.381 1052.81 316.366C1051.48 316.355 1050.18 316.355 1048.85 316.345C1048.74 316.345 1048.66 316.402 1048.63 316.491C1044.55 316.626 1040.47 316.772 1036.38 316.902C1034.3 316.975 1032.22 317.053 1030.13 317.11C1028.44 317.173 1026.71 317.235 1025.11 317.782C1023.57 318.308 1022.43 319.282 1021.48 320.527C1020.55 321.725 1019.77 323.063 1018.55 324.006C1017.23 325.017 1015.36 325.381 1013.75 324.787C1012.29 324.235 1011.2 322.798 1011.19 321.282C1011.17 319.845 1012.27 318.48 1013.72 318.11C1015.22 317.72 1016.82 318.683 1017.26 320.1C1017.36 320.444 1017.38 320.782 1017.33 321.152C1017.29 321.454 1017.79 321.454 1017.83 321.152C1018.03 319.662 1016.94 318.235 1015.51 317.735C1014.04 317.22 1012.42 317.892 1011.49 319.053C1010.54 320.272 1010.47 321.855 1011.21 323.188C1011.2 323.199 1011.19 323.188 1011.17 323.199C1009.52 324.027 1007.57 324.272 1005.77 323.808C1004.12 323.397 1002.63 322.444 1001.63 321.136C1001.44 320.892 1001.01 321.126 1001.2 321.371C1001.52 321.772 1001.87 322.152 1002.25 322.48C1002.23 322.491 1002.22 322.491 1002.19 322.517C999.693 324.261 996.486 323.209 994.098 321.845C992.747 321.079 991.487 320.188 990.136 319.444C988.828 318.72 987.428 318.183 985.914 317.98C984.221 317.746 982.489 317.907 980.872 318.444C980.568 318.537 980.698 319.001 981.002 318.907C982.489 318.418 984.069 318.246 985.621 318.418C986.131 318.48 986.625 318.574 987.108 318.709C984.818 320.871 981.692 322.162 978.484 322.235C976.688 322.282 974.843 321.954 973.301 321.053C971.955 320.272 970.87 319.017 970.49 317.527C970.083 315.928 970.62 314.074 972.021 313.063C972.259 312.876 972.021 312.465 971.765 312.647C971.456 312.866 971.19 313.11 970.962 313.392C970.924 313.329 970.859 313.267 970.756 313.267C969.28 313.246 968.428 311.683 967.435 310.84C966.306 309.876 964.868 309.329 963.402 309.011C961.839 308.683 960.222 308.595 958.621 308.537C956.608 308.449 954.583 308.428 952.559 308.428C952.369 308.428 952.179 308.428 952 308.438C953.183 308.313 954.355 308.194 955.538 308.074C957.025 307.912 958.529 307.767 959.956 307.277C961.242 306.84 962.371 306.121 963.44 305.313C964.52 304.496 965.551 303.605 966.713 302.886C967.88 302.157 969.193 301.605 970.544 301.267C971.901 300.923 973.301 300.787 974.701 300.876C976.037 300.959 977.757 301.142 978.582 302.303C979.461 303.532 978.457 304.975 977.095 305.293C975.63 305.631 974.191 304.621 973.366 303.558C973.176 303.313 972.742 303.548 972.932 303.803C973.725 304.829 974.853 305.683 976.205 305.813C977.426 305.938 978.712 305.293 979.206 304.194C979.765 302.985 979.043 301.741 977.909 301.131C977.551 300.933 977.16 300.787 976.753 300.678C978.202 299.36 980.085 298.485 982.082 298.251C984.248 298.006 986.446 298.522 988.28 299.652C988.497 299.787 988.698 299.532 988.622 299.35C988.66 299.334 988.698 299.298 988.725 299.251C989.669 297.251 990.901 295.324 992.681 293.907C994.413 292.543 996.757 291.735 999.009 292.079C1001.2 292.418 1002.97 293.933 1003.69 295.933C1004.44 297.98 1003.94 300.267 1002.62 301.996C1001.03 304.069 998.331 305.131 995.688 305.084C995.368 305.069 995.368 305.548 995.688 305.558C998.179 305.605 1000.72 304.715 1002.43 302.949C1003.16 302.194 1003.71 301.303 1004.08 300.35C1004.15 300.376 1004.21 300.376 1004.29 300.34C1008.08 298.631 1012.67 299.449 1015.59 302.34C1016.34 303.095 1016.96 303.949 1017.42 304.886C1017.56 305.168 1017.98 304.923 1017.85 304.642C1017.65 304.23 1017.41 303.824 1017.14 303.449C1017.19 303.459 1017.24 303.459 1017.29 303.423C1019.3 302.397 1021.48 301.694 1023.73 301.34C1024.85 301.152 1025.98 301.069 1027.12 301.069C1028.14 301.069 1029.19 301.105 1030.2 301.35C1031.05 301.543 1031.92 301.912 1032.46 302.621C1033.07 303.423 1033.05 304.475 1032.68 305.366C1031.95 307.121 1029.84 308.412 1027.88 307.85C1026.89 307.574 1026.01 306.85 1025.78 305.866C1025.55 304.949 1025.88 303.886 1026.7 303.324C1026.95 303.157 1026.71 302.741 1026.45 302.912C1025.67 303.449 1025.23 304.329 1025.22 305.256C1025.21 306.23 1025.71 307.11 1026.49 307.704C1028.11 308.892 1030.26 308.574 1031.73 307.386C1031.77 307.412 1031.81 307.423 1031.86 307.423C1034.09 307.267 1036.34 307.803 1038.24 308.949C1040.17 310.11 1041.47 312.001 1043.46 313.1C1045.36 314.147 1047.58 314.491 1049.73 314.735C1052.28 315.011 1054.83 315.282 1057.36 315.6C1059.5 315.808 1061.64 316.11 1063.77 316.428Z" fill="#D2F3F9"/>
<path d="M1014.94 325.391C1013.37 325.365 1011.94 324.656 1011.04 323.474C1009.86 324.047 1008.56 324.344 1007.27 324.344C1006.58 324.344 1005.89 324.255 1005.24 324.099C1004.17 323.828 1003.16 323.339 1002.27 322.672C1002.25 322.693 1002.23 322.708 1002.2 322.719C1001.26 323.375 1000.05 323.729 998.729 323.729C998.409 323.729 998.088 323.708 997.763 323.672C995.429 323.375 993.47 322.146 991.576 320.948C990.941 320.547 990.279 320.13 989.627 319.766C988.868 319.328 988.092 318.984 987.354 318.729C985.975 320.057 984.271 321.094 982.426 321.755C980.939 322.281 979.332 322.563 977.78 322.563C975.365 322.563 973.265 321.891 971.686 320.63C970.275 319.5 969.406 317.922 969.33 316.339C969.281 315.349 969.536 314.375 970.03 313.547C968.939 313.385 968.201 312.594 967.474 311.823C967.181 311.521 966.904 311.229 966.611 310.969C964.332 309.042 960.962 308.922 957.993 308.823L957.526 308.813C955.893 308.76 954.254 308.724 952.636 308.724C950.243 308.724 947.817 308.786 945.435 308.906C945.18 308.906 945.017 308.76 945.001 308.542C944.99 308.349 945.131 308.115 945.408 308.078C947.405 307.87 949.391 307.667 951.388 307.458C951.936 307.396 952.495 307.349 953.044 307.297C954.395 307.177 955.779 307.042 957.141 306.833C958.845 306.578 960.262 306.078 961.466 305.307C962.259 304.807 962.997 304.224 963.719 303.661C964.115 303.359 964.522 303.026 964.929 302.724C967.398 300.906 970.264 299.917 973.227 299.844C973.379 299.844 973.547 299.844 973.71 299.844C974.497 299.844 975.197 299.891 975.821 300.005C976.548 299.318 977.335 298.745 978.203 298.318C979.625 297.589 981.243 297.208 982.887 297.208C984.64 297.208 986.371 297.646 987.885 298.479C989.248 295.599 990.925 293.583 992.987 292.328C994.403 291.474 996.053 291 997.643 291C998.457 291 999.239 291.12 999.961 291.365C1002.13 292.083 1003.82 294.01 1004.29 296.271C1004.48 297.208 1004.45 298.208 1004.23 299.172C1005.24 298.781 1006.28 298.536 1007.37 298.464C1007.63 298.443 1007.92 298.427 1008.18 298.427C1011.5 298.427 1014.65 299.953 1016.64 302.516C1016.65 302.516 1016.65 302.505 1016.67 302.505C1019.29 301.161 1022.1 300.37 1025.06 300.135C1025.68 300.089 1026.29 300.063 1026.89 300.063C1027.56 300.063 1028.22 300.099 1028.86 300.161C1030.15 300.297 1031.1 300.589 1031.84 301.063C1032.77 301.672 1033.32 302.615 1033.34 303.661C1033.35 304.578 1033 305.552 1032.34 306.37H1032.36C1034.61 306.37 1036.85 307.042 1038.68 308.25C1039.49 308.786 1040.2 309.432 1040.89 310.068C1041.81 310.922 1042.77 311.802 1043.94 312.375C1045.92 313.323 1048.2 313.568 1050.41 313.802C1055.71 314.349 1060.98 315.031 1066.1 315.849C1066.17 315.865 1066.25 315.901 1066.3 315.948H1066.5C1066.74 315.948 1066.92 316.13 1066.92 316.365C1066.92 316.594 1066.74 316.766 1066.5 316.766C1065.18 316.755 1063.85 316.755 1062.54 316.74L1048.91 316.656C1048.84 316.74 1048.73 316.776 1048.62 316.792L1046.95 316.849C1042.5 316.995 1038.04 317.156 1033.58 317.302C1033.03 317.328 1032.47 317.339 1031.93 317.349C1030.44 317.385 1028.91 317.422 1027.42 317.573C1025.32 317.792 1023.76 318.422 1022.66 319.51C1022.04 320.12 1021.53 320.828 1021.03 321.521C1020.6 322.12 1020.15 322.745 1019.63 323.302C1018.39 324.646 1016.78 325.391 1015.09 325.391H1014.94ZM1014.03 317.865C1013.82 317.865 1013.6 317.885 1013.4 317.948C1012.03 318.302 1010.99 319.594 1011 320.948C1011.02 322.354 1012.05 323.755 1013.46 324.281C1013.95 324.464 1014.48 324.547 1015.03 324.547C1016.11 324.547 1017.23 324.172 1018.08 323.51C1018.97 322.828 1019.63 321.901 1020.29 321.01C1020.51 320.693 1020.74 320.375 1020.99 320.073C1022.08 318.646 1023.26 317.755 1024.7 317.266C1026.34 316.703 1028.09 316.646 1029.79 316.583L1048.19 315.958C1048.27 315.865 1048.38 315.813 1048.52 315.813L1060.91 315.885C1059.63 315.703 1058.31 315.531 1056.98 315.365C1055.22 315.141 1053.43 314.948 1051.7 314.75C1050.91 314.667 1050.13 314.583 1049.35 314.495C1047.32 314.266 1044.99 313.938 1043.01 312.839C1041.96 312.25 1041.09 311.448 1040.25 310.667C1039.49 309.958 1038.71 309.24 1037.79 308.688C1036.14 307.688 1034.24 307.167 1032.28 307.167C1032.04 307.167 1031.79 307.177 1031.53 307.188C1031.53 307.188 1031.53 307.188 1031.52 307.188C1031.48 307.188 1031.45 307.187 1031.42 307.177C1030.55 307.849 1029.49 308.214 1028.44 308.214C1027.55 308.214 1026.72 307.943 1026.02 307.432C1025.16 306.797 1024.66 305.849 1024.68 304.844C1024.69 303.833 1025.16 302.917 1025.98 302.359C1026.06 302.307 1026.14 302.286 1026.23 302.286C1026.4 302.286 1026.56 302.406 1026.62 302.578C1026.68 302.76 1026.62 302.943 1026.46 303.052C1025.74 303.542 1025.4 304.516 1025.61 305.406C1025.83 306.276 1026.58 306.979 1027.6 307.276C1027.89 307.359 1028.2 307.396 1028.5 307.396C1030.03 307.396 1031.58 306.333 1032.18 304.88C1032.58 303.917 1032.51 302.979 1031.99 302.307C1031.57 301.75 1030.85 301.344 1029.83 301.115C1028.82 300.88 1027.78 300.844 1026.8 300.844H1026.73C1025.64 300.844 1024.53 300.932 1023.44 301.115C1021.21 301.469 1019.07 302.161 1017.1 303.161C1017.33 303.516 1017.52 303.844 1017.69 304.177C1017.75 304.307 1017.75 304.458 1017.66 304.578C1017.57 304.698 1017.43 304.786 1017.28 304.786C1017.13 304.786 1017 304.698 1016.93 304.568C1016.46 303.641 1015.87 302.797 1015.12 302.052C1013.31 300.26 1010.75 299.224 1008.12 299.224C1006.69 299.224 1005.32 299.516 1004.03 300.089C1003.98 300.115 1003.93 300.125 1003.87 300.125C1003.5 301.052 1002.92 301.932 1002.23 302.651C1000.58 304.344 998.143 305.323 995.521 305.323C995.456 305.323 995.391 305.323 995.342 305.323C995.098 305.323 994.924 305.141 994.924 304.896C994.924 304.661 995.098 304.495 995.342 304.495C995.407 304.495 995.521 304.495 995.521 304.495C998.208 304.495 1000.69 303.37 1002.13 301.479C1003.47 299.708 1003.87 297.5 1003.17 295.589C1002.44 293.609 1000.71 292.182 998.626 291.854C998.284 291.807 997.936 291.766 997.584 291.766C995.825 291.766 993.953 292.453 992.455 293.635C990.925 294.854 989.644 296.573 988.548 298.917C988.537 298.953 988.51 298.99 988.482 299.016C988.482 299.099 988.461 299.198 988.406 299.281C988.33 299.406 988.206 299.464 988.064 299.464C987.989 299.464 987.913 299.443 987.837 299.391C986.322 298.453 984.591 297.964 982.806 297.964C982.464 297.964 982.111 297.99 981.764 298.026C979.946 298.234 978.176 299 976.776 300.198C977.107 300.307 977.4 300.432 977.666 300.578C978.828 301.198 979.663 302.526 979.039 303.859C978.556 304.896 977.4 305.604 976.168 305.604C976.065 305.604 975.951 305.604 975.848 305.589C974.589 305.469 973.379 304.724 972.451 303.505C972.359 303.38 972.337 303.234 972.413 303.115C972.489 302.979 972.652 302.88 972.82 302.88C972.961 302.88 973.086 302.943 973.178 303.052C973.824 303.896 974.942 304.786 976.168 304.786C976.342 304.786 976.537 304.76 976.711 304.724C977.427 304.552 978.035 304.052 978.279 303.443C978.421 303.104 978.497 302.563 978.09 302.005C977.351 300.969 975.783 300.745 974.345 300.661C974.079 300.651 973.813 300.635 973.558 300.635C972.44 300.635 971.333 300.771 970.237 301.052C968.874 301.396 967.604 301.943 966.459 302.651C965.667 303.151 964.918 303.734 964.191 304.297C963.86 304.552 963.529 304.823 963.198 305.068C962.308 305.734 961.097 306.568 959.659 307.052C958.237 307.542 956.707 307.703 955.231 307.849L954.916 307.885C956.061 307.896 957.179 307.932 958.275 307.979C960.006 308.052 961.559 308.141 963.1 308.469C964.788 308.833 966.166 309.458 967.208 310.339C967.501 310.578 967.767 310.875 968.049 311.188C968.733 311.932 969.433 312.703 970.416 312.729C970.475 312.729 970.54 312.74 970.606 312.776C970.823 312.542 971.051 312.323 971.317 312.141C971.392 312.094 971.468 312.057 971.561 312.057C971.724 312.057 971.876 312.167 971.941 312.349C972.006 312.531 971.941 312.714 971.789 312.839C970.513 313.766 969.916 315.521 970.34 317.12C970.692 318.484 971.686 319.729 973.075 320.536C974.372 321.302 976.027 321.708 977.845 321.708C977.948 321.708 978.052 321.708 978.165 321.708C981.194 321.635 984.195 320.448 986.436 318.438C986.04 318.339 985.66 318.266 985.291 318.229C984.895 318.182 984.499 318.167 984.092 318.167C982.947 318.167 981.829 318.349 980.749 318.703C980.695 318.719 980.646 318.729 980.608 318.729C980.401 318.729 980.249 318.583 980.212 318.385C980.174 318.182 980.304 317.984 980.505 317.922C981.65 317.547 982.849 317.349 984.07 317.349C984.591 317.349 985.112 317.385 985.622 317.458C987.033 317.656 988.434 318.13 989.91 318.938C990.659 319.339 991.386 319.802 992.086 320.255C992.672 320.62 993.269 321 993.866 321.354C995.114 322.057 996.997 322.911 998.843 322.911C999.885 322.911 1000.83 322.646 1001.63 322.12C1001.28 321.802 1000.99 321.474 1000.73 321.146C1000.63 321.021 1000.61 320.891 1000.69 320.755C1000.76 320.62 1000.93 320.521 1001.09 320.521C1001.24 320.521 1001.36 320.583 1001.45 320.693C1002.46 321.974 1003.88 322.901 1005.49 323.302C1006.07 323.453 1006.68 323.526 1007.29 323.526C1008.45 323.526 1009.59 323.266 1010.62 322.766C1009.92 321.375 1010.07 319.792 1011 318.609C1011.77 317.646 1012.96 317.047 1014.13 317.047C1014.51 317.047 1014.87 317.109 1015.23 317.229C1016.82 317.792 1017.88 319.339 1017.67 320.828C1017.64 321.073 1017.42 321.208 1017.22 321.208C1017.09 321.208 1016.97 321.156 1016.91 321.083C1016.83 321.01 1016.81 320.901 1016.82 320.792C1016.87 320.438 1016.85 320.12 1016.76 319.813C1016.36 318.682 1015.24 317.865 1014.03 317.865Z" fill="white"/>
<path d="M1066.3 315.93H1066.01C1065.98 315.878 1065.93 315.842 1065.85 315.831C1060.66 315.003 1055.44 314.321 1050.2 313.784C1047.99 313.55 1045.67 313.321 1043.65 312.342C1041.57 311.342 1040.25 309.462 1038.37 308.206C1036.43 306.925 1034.08 306.279 1031.73 306.363C1031.75 306.352 1031.76 306.342 1031.77 306.326C1032.49 305.545 1032.97 304.524 1032.95 303.472C1032.94 302.462 1032.41 301.581 1031.53 301.019C1030.68 300.472 1029.63 300.253 1028.63 300.144C1027.38 300.008 1026.11 300.019 1024.86 300.118C1021.96 300.352 1019.13 301.154 1016.54 302.472C1016.48 302.508 1016.44 302.56 1016.43 302.618C1014.35 299.826 1010.82 298.18 1007.18 298.462C1005.99 298.555 1004.84 298.837 1003.75 299.3C1004.06 298.274 1004.12 297.191 1003.9 296.128C1003.46 293.982 1001.87 292.092 999.692 291.357C997.44 290.602 994.857 291.102 992.876 292.31C990.504 293.748 988.914 296.081 987.785 298.482C987.769 298.519 987.769 298.545 987.769 298.571C984.833 296.873 981.115 296.753 978.076 298.31C977.208 298.753 976.421 299.316 975.732 299.972C975.721 299.998 975.71 300.008 975.694 300.034C974.814 299.863 973.886 299.837 973.034 299.863C970.044 299.935 967.222 300.962 964.856 302.706C963.694 303.56 962.614 304.524 961.377 305.29C960.031 306.133 958.566 306.597 956.976 306.842C955.065 307.133 953.144 307.269 951.223 307.477C949.242 307.68 947.239 307.889 945.242 308.097C944.927 308.133 944.911 308.587 945.242 308.571C949.28 308.378 953.312 308.342 957.345 308.477C960.427 308.587 964.09 308.597 966.56 310.67C967.651 311.597 968.546 313.17 970.174 313.232C969.572 314.087 969.295 315.123 969.344 316.175C969.436 317.795 970.348 319.31 971.634 320.331C974.51 322.639 978.836 322.613 982.195 321.42C984.057 320.758 985.75 319.722 987.134 318.357C987.975 318.639 988.789 319.003 989.565 319.441C992.149 320.894 994.553 322.946 997.619 323.321C999.111 323.503 1000.69 323.264 1001.92 322.409C1002 322.357 1002.02 322.284 1002.02 322.212C1002.93 322.93 1003.97 323.456 1005.11 323.748C1007.05 324.238 1009.14 323.982 1010.9 323.092C1010.92 323.076 1010.92 323.076 1010.93 323.066C1011.78 324.284 1013.23 325.019 1014.77 325.029C1016.53 325.055 1018.11 324.248 1019.25 323.003C1020.36 321.81 1021.12 320.357 1022.28 319.212C1023.58 317.93 1025.34 317.404 1027.15 317.222C1029.19 317.003 1031.28 317.029 1033.32 316.956C1037.78 316.805 1042.25 316.649 1046.7 316.503C1047.26 316.477 1047.82 316.467 1048.37 316.441C1048.47 316.441 1048.55 316.378 1048.57 316.305C1053.14 316.331 1057.72 316.368 1062.29 316.394C1063.61 316.404 1064.92 316.404 1066.24 316.415C1066.61 316.404 1066.61 315.93 1066.3 315.93ZM1052.32 315.842C1051 315.831 1049.69 315.831 1048.37 315.821C1048.25 315.821 1048.18 315.878 1048.15 315.967C1044.06 316.102 1039.98 316.248 1035.9 316.378C1033.81 316.456 1031.73 316.529 1029.65 316.587C1027.96 316.649 1026.23 316.712 1024.62 317.258C1023.08 317.784 1021.95 318.758 1020.99 320.003C1020.07 321.201 1019.29 322.54 1018.07 323.482C1016.74 324.493 1014.88 324.857 1013.27 324.264C1011.81 323.712 1010.71 322.274 1010.7 320.758C1010.69 319.321 1011.78 317.956 1013.23 317.587C1014.74 317.196 1016.34 318.159 1016.77 319.576C1016.87 319.92 1016.9 320.258 1016.85 320.628C1016.81 320.93 1017.3 320.93 1017.34 320.628C1017.55 319.139 1016.45 317.712 1015.03 317.212C1013.55 316.696 1011.94 317.368 1011.01 318.529C1010.05 319.748 1009.99 321.331 1010.73 322.665C1010.71 322.675 1010.7 322.665 1010.69 322.675C1009.03 323.503 1007.09 323.748 1005.28 323.284C1003.64 322.873 1002.15 321.92 1001.15 320.613C1000.95 320.368 1000.52 320.602 1000.71 320.847C1001.03 321.248 1001.39 321.628 1001.77 321.956C1001.74 321.967 1001.73 321.967 1001.71 321.993C999.209 323.738 996.002 322.685 993.614 321.321C992.262 320.555 991.003 319.665 989.652 318.92C988.344 318.196 986.944 317.659 985.43 317.456C983.737 317.222 982.005 317.383 980.388 317.92C980.084 318.014 980.214 318.477 980.518 318.383C982.005 317.894 983.585 317.722 985.137 317.894C985.647 317.956 986.141 318.05 986.624 318.185C984.334 320.347 981.202 321.639 978 321.712C976.204 321.758 974.359 321.43 972.817 320.529C971.471 319.748 970.386 318.493 970.006 317.003C969.599 315.404 970.136 313.55 971.536 312.54C971.775 312.352 971.536 311.941 971.281 312.123C970.972 312.342 970.706 312.587 970.478 312.868C970.44 312.805 970.375 312.743 970.272 312.743C968.796 312.722 967.944 311.159 966.951 310.316C965.822 309.352 964.384 308.805 962.918 308.488C961.355 308.159 959.738 308.071 958.137 308.014C956.124 307.925 954.099 307.904 952.075 307.904C951.885 307.904 951.695 307.904 951.516 307.915C952.699 307.79 953.871 307.67 955.054 307.55C956.541 307.389 958.045 307.243 959.472 306.753C960.758 306.316 961.887 305.597 962.956 304.79C964.036 303.972 965.067 303.081 966.229 302.363C967.396 301.633 968.709 301.081 970.06 300.743C971.417 300.399 972.817 300.264 974.217 300.352C975.552 300.435 977.273 300.618 978.098 301.779C978.977 303.008 977.973 304.451 976.611 304.769C975.145 305.107 973.707 304.097 972.882 303.034C972.692 302.79 972.258 303.024 972.448 303.279C973.241 304.305 974.369 305.159 975.721 305.29C976.942 305.415 978.228 304.769 978.722 303.67C979.281 302.462 978.559 301.217 977.425 300.607C977.067 300.409 976.676 300.264 976.269 300.154C977.718 298.837 979.601 297.962 981.598 297.727C983.764 297.482 985.962 297.998 987.796 299.128C988.013 299.264 988.214 299.008 988.138 298.826C988.176 298.81 988.214 298.774 988.241 298.727C989.185 296.727 990.417 294.8 992.197 293.383C993.929 292.019 996.273 291.212 998.525 291.555C1000.71 291.894 1002.48 293.409 1003.2 295.409C1003.96 297.456 1003.46 299.743 1002.14 301.472C1000.54 303.545 997.847 304.607 995.204 304.56C994.884 304.545 994.884 305.024 995.204 305.034C997.695 305.081 1000.24 304.191 1001.94 302.425C1002.67 301.67 1003.23 300.779 1003.6 299.826C1003.66 299.852 1003.73 299.852 1003.81 299.816C1007.59 298.107 1012.19 298.925 1015.11 301.816C1015.85 302.571 1016.48 303.425 1016.93 304.363C1017.08 304.644 1017.5 304.399 1017.37 304.118C1017.17 303.706 1016.92 303.3 1016.66 302.925C1016.71 302.935 1016.76 302.935 1016.81 302.899C1018.82 301.873 1020.99 301.17 1023.25 300.816C1024.37 300.633 1025.5 300.545 1026.63 300.545C1027.65 300.545 1028.71 300.581 1029.71 300.826C1030.57 301.019 1031.44 301.389 1031.98 302.097C1032.59 302.899 1032.56 303.951 1032.19 304.842C1031.47 306.597 1029.36 307.889 1027.4 307.326C1026.4 307.05 1025.53 306.326 1025.3 305.342C1025.07 304.425 1025.4 303.363 1026.21 302.8C1026.47 302.633 1026.23 302.217 1025.97 302.389C1025.18 302.925 1024.75 303.805 1024.74 304.732C1024.72 305.706 1025.22 306.587 1026.01 307.18C1027.63 308.368 1029.77 308.05 1031.25 306.863C1031.29 306.889 1031.33 306.899 1031.38 306.899C1033.61 306.743 1035.86 307.279 1037.75 308.425C1039.69 309.587 1040.99 311.477 1042.97 312.576C1044.88 313.623 1047.09 313.967 1049.25 314.212C1051.79 314.488 1054.35 314.758 1056.88 315.076C1059.02 315.342 1061.15 315.649 1063.29 315.967C1059.63 315.894 1055.99 315.868 1052.32 315.842Z" fill="white"/>
<path d="M237.765 86.4281C234.113 86.402 230.461 86.3812 226.808 86.3656C225.484 86.3551 224.176 86.3551 222.852 86.3447C222.738 86.3447 222.662 86.402 222.635 86.4906C218.548 86.626 214.467 86.7718 210.38 86.902C208.296 86.9749 206.218 87.0531 204.134 87.1103C202.44 87.1728 200.709 87.2353 199.108 87.7822C197.567 88.3083 196.433 89.2822 195.478 90.527C194.549 91.7249 193.773 93.0635 192.552 94.0062C191.228 95.0166 189.361 95.3812 187.755 94.7874C186.295 94.2353 185.199 92.7978 185.188 91.2822C185.171 89.8447 186.268 88.4801 187.717 88.1103C189.22 87.7197 190.821 88.6833 191.255 90.0999C191.358 90.4437 191.38 90.7822 191.331 91.152C191.293 91.4541 191.787 91.4541 191.825 91.152C192.031 89.6624 190.935 88.2353 189.513 87.7353C188.037 87.2197 186.42 87.8916 185.492 89.0531C184.537 90.2718 184.471 91.8551 185.209 93.1885C185.199 93.1989 185.188 93.1885 185.171 93.1989C183.516 94.027 181.573 94.2718 179.766 93.8083C178.122 93.3968 176.635 92.4437 175.631 91.1364C175.435 90.8916 175.007 91.126 175.197 91.3708C175.517 91.7718 175.869 92.152 176.255 92.4801C176.228 92.4906 176.217 92.4906 176.19 92.5166C173.693 94.2614 170.486 93.2093 168.098 91.8447C166.747 91.0791 165.487 90.1885 164.136 89.4437C162.828 88.7197 161.428 88.1833 159.914 87.9801C158.221 87.7458 156.489 87.9072 154.872 88.4437C154.568 88.5374 154.698 89.001 155.002 88.9072C156.489 88.4176 158.069 88.2458 159.621 88.4176C160.131 88.4801 160.625 88.5739 161.108 88.7093C158.818 90.8708 155.692 92.1624 152.484 92.2353C150.688 92.2822 148.843 91.9541 147.301 91.0531C145.955 90.2718 144.87 89.0166 144.49 87.527C144.083 85.9281 144.62 84.0739 146.021 83.0635C146.259 82.876 146.021 82.4645 145.765 82.6468C145.456 82.8656 145.19 83.1103 144.962 83.3916C144.924 83.3291 144.859 83.2666 144.756 83.2666C143.28 83.2458 142.428 81.6833 141.435 80.8395C140.306 79.876 138.868 79.3291 137.402 79.0114C135.839 78.6833 134.222 78.5947 132.621 78.5374C130.608 78.4489 128.583 78.4281 126.559 78.4281C126.369 78.4281 126.179 78.4281 126 78.4385C127.183 78.3135 128.355 78.1937 129.538 78.0739C131.025 77.9124 132.529 77.7666 133.956 77.277C135.242 76.8395 136.371 76.1208 137.44 75.3135C138.52 74.4958 139.551 73.6051 140.713 72.8864C141.88 72.1572 143.193 71.6051 144.544 71.2666C145.901 70.9228 147.301 70.7874 148.701 70.876C150.037 70.9593 151.757 71.1416 152.582 72.3031C153.461 73.5322 152.457 74.9749 151.095 75.2926C149.63 75.6312 148.191 74.6208 147.366 73.5583C147.176 73.3135 146.742 73.5478 146.932 73.8031C147.725 74.8291 148.853 75.6833 150.205 75.8135C151.426 75.9385 152.712 75.2926 153.206 74.1937C153.765 72.9853 153.043 71.7406 151.909 71.1312C151.551 70.9333 151.16 70.7874 150.753 70.6781C152.202 69.3603 154.085 68.4853 156.082 68.251C158.248 68.0062 160.446 68.5218 162.28 69.652C162.497 69.7874 162.698 69.5322 162.622 69.3499C162.66 69.3343 162.698 69.2978 162.725 69.251C163.669 67.251 164.901 65.3239 166.681 63.9072C168.413 62.5426 170.757 61.7353 173.009 62.0791C175.197 62.4176 176.966 63.9333 177.688 65.9333C178.442 67.9801 177.943 70.2666 176.624 71.9958C175.028 74.0687 172.331 75.1312 169.688 75.0843C169.368 75.0687 169.368 75.5478 169.688 75.5583C172.179 75.6051 174.724 74.7145 176.428 72.9489C177.156 72.1937 177.715 71.3031 178.084 70.3499C178.149 70.376 178.214 70.376 178.29 70.3395C182.078 68.6312 186.675 69.4489 189.589 72.3395C190.338 73.0947 190.962 73.9489 191.418 74.8864C191.559 75.1676 191.982 74.9228 191.852 74.6416C191.651 74.2301 191.407 73.8239 191.141 73.4489C191.19 73.4593 191.244 73.4593 191.293 73.4228C193.301 72.3968 195.478 71.6937 197.73 71.3395C198.853 71.152 199.982 71.0687 201.116 71.0687C202.137 71.0687 203.189 71.1051 204.199 71.3499C205.051 71.5426 205.925 71.9124 206.462 72.6208C207.07 73.4228 207.048 74.4749 206.679 75.3656C205.952 77.1208 203.841 78.4124 201.881 77.8499C200.888 77.5739 200.009 76.8499 199.781 75.8656C199.553 74.9489 199.884 73.8864 200.698 73.3239C200.953 73.1572 200.709 72.7406 200.454 72.9124C199.667 73.4489 199.233 74.3291 199.222 75.2562C199.206 76.2301 199.705 77.1103 200.492 77.7041C202.109 78.8916 204.259 78.5739 205.735 77.3864C205.773 77.4124 205.811 77.4228 205.865 77.4228C208.09 77.2666 210.342 77.8031 212.236 78.9489C214.174 80.1103 215.471 82.001 217.457 83.0999C219.362 84.1468 221.576 84.4906 223.731 84.7353C226.276 85.0114 228.832 85.2822 231.361 85.5999C233.5 85.8083 235.638 86.1103 237.765 86.4281Z" fill="#D2F3F9"/>
<path d="M188.939 95.3906C187.371 95.3646 185.938 94.6563 185.043 93.474C183.86 94.0469 182.563 94.3438 181.266 94.3438C180.576 94.3438 179.892 94.2552 179.241 94.099C178.172 93.8281 177.157 93.3385 176.267 92.6719C176.251 92.6927 176.229 92.7083 176.202 92.7188C175.258 93.375 174.053 93.7292 172.729 93.7292C172.409 93.7292 172.088 93.7083 171.763 93.6719C169.429 93.375 167.47 92.1458 165.576 90.9479C164.941 90.5469 164.279 90.1302 163.627 89.7656C162.868 89.3281 162.092 88.9844 161.354 88.7292C159.975 90.0573 158.271 91.0938 156.426 91.7552C154.939 92.2813 153.332 92.5625 151.78 92.5625C149.365 92.5625 147.265 91.8906 145.686 90.6302C144.275 89.5 143.406 87.9219 143.33 86.3385C143.281 85.349 143.536 84.375 144.03 83.5469C142.939 83.3854 142.201 82.5938 141.474 81.8229C141.181 81.5208 140.904 81.2292 140.611 80.9688C138.332 79.0417 134.962 78.9219 131.993 78.8229L131.526 78.8125C129.893 78.7604 128.254 78.724 126.636 78.724C124.243 78.724 121.817 78.7865 119.435 78.9063C119.18 78.9063 119.017 78.7604 119.001 78.5417C118.99 78.349 119.131 78.1146 119.408 78.0781C121.405 77.8698 123.391 77.6667 125.388 77.4583C125.936 77.3958 126.495 77.349 127.044 77.2969C128.395 77.1771 129.779 77.0417 131.141 76.8333C132.845 76.5781 134.262 76.0781 135.466 75.3073C136.259 74.8073 136.997 74.224 137.719 73.6615C138.115 73.3594 138.522 73.026 138.929 72.724C141.398 70.9063 144.264 69.9167 147.227 69.8438C147.379 69.8438 147.547 69.8438 147.71 69.8438C148.497 69.8438 149.197 69.8906 149.821 70.0052C150.548 69.3177 151.335 68.7448 152.203 68.3177C153.625 67.5885 155.243 67.2083 156.887 67.2083C158.64 67.2083 160.371 67.6458 161.885 68.4792C163.248 65.599 164.925 63.5833 166.987 62.3281C168.403 61.474 170.053 61 171.643 61C172.457 61 173.239 61.1198 173.961 61.3646C176.126 62.0833 177.819 64.0104 178.286 66.2708C178.481 67.2083 178.454 68.2083 178.226 69.1719C179.241 68.7813 180.283 68.5365 181.369 68.4635C181.635 68.4427 181.917 68.4271 182.183 68.4271C185.504 68.4271 188.646 69.9531 190.644 72.5156C190.654 72.5156 190.654 72.5052 190.671 72.5052C193.292 71.1615 196.103 70.3698 199.055 70.1354C199.68 70.0885 200.287 70.0625 200.89 70.0625C201.563 70.0625 202.225 70.099 202.86 70.1615C204.146 70.2969 205.101 70.5885 205.839 71.0625C206.767 71.6719 207.316 72.6146 207.337 73.6615C207.354 74.5781 206.995 75.5521 206.344 76.3698H206.36C208.613 76.3698 210.849 77.0417 212.683 78.25C213.486 78.7865 214.197 79.4323 214.886 80.0677C215.814 80.9219 216.769 81.8021 217.936 82.375C219.923 83.3229 222.202 83.5677 224.405 83.8021C229.708 84.349 234.977 85.0313 240.095 85.849C240.171 85.8646 240.247 85.901 240.296 85.9479H240.502C240.741 85.9479 240.92 86.1302 240.92 86.3646C240.92 86.5938 240.741 86.7656 240.502 86.7656C239.178 86.7552 237.854 86.7552 236.54 86.7396L222.913 86.6563C222.837 86.7396 222.734 86.776 222.62 86.7917L220.954 86.849C216.504 86.9948 212.037 87.1563 207.581 87.3021C207.033 87.3281 206.474 87.3385 205.926 87.349C204.439 87.3854 202.909 87.4219 201.422 87.5729C199.321 87.7917 197.758 88.4219 196.662 89.5104C196.038 90.1198 195.528 90.8281 195.034 91.5208C194.6 92.1198 194.155 92.7448 193.634 93.3021C192.386 94.6458 190.785 95.3906 189.091 95.3906H188.939ZM188.033 87.8646C187.821 87.8646 187.604 87.8854 187.398 87.9479C186.025 88.3021 184.994 89.5938 185.005 90.9479C185.021 92.3542 186.052 93.7552 187.463 94.2813C187.946 94.4635 188.478 94.5469 189.026 94.5469C190.112 94.5469 191.23 94.1719 192.082 93.5104C192.972 92.8281 193.634 91.901 194.285 91.0104C194.513 90.6927 194.741 90.375 194.985 90.0729C196.076 88.6458 197.259 87.7552 198.697 87.2656C200.342 86.7031 202.095 86.6458 203.788 86.5833L222.191 85.9583C222.267 85.8646 222.381 85.8125 222.522 85.8125L234.912 85.8854C233.626 85.7031 232.307 85.5313 230.983 85.3646C229.225 85.1406 227.434 84.9479 225.702 84.75C224.91 84.6667 224.134 84.5833 223.347 84.4948C221.323 84.2656 218.995 83.9375 217.008 82.8385C215.955 82.25 215.087 81.4479 214.246 80.6667C213.486 79.9583 212.71 79.2396 211.793 78.6875C210.138 77.6875 208.244 77.1667 206.284 77.1667C206.04 77.1667 205.785 77.1771 205.53 77.1875C205.53 77.1875 205.53 77.1875 205.519 77.1875C205.481 77.1875 205.454 77.1875 205.416 77.1771C204.553 77.849 203.495 78.2135 202.442 78.2135C201.547 78.2135 200.722 77.9427 200.022 77.4323C199.159 76.7969 198.659 75.849 198.676 74.8438C198.686 73.8333 199.159 72.9167 199.984 72.3594C200.06 72.3073 200.135 72.2865 200.228 72.2865C200.401 72.2865 200.559 72.4063 200.618 72.5781C200.684 72.7604 200.618 72.9427 200.456 73.0521C199.745 73.5417 199.397 74.5156 199.614 75.4063C199.832 76.276 200.581 76.9792 201.601 77.276C201.894 77.3594 202.198 77.3958 202.502 77.3958C204.032 77.3958 205.584 76.3333 206.181 74.8802C206.577 73.9167 206.512 72.9792 205.991 72.3073C205.568 71.75 204.846 71.3438 203.826 71.1146C202.822 70.8802 201.78 70.8438 200.798 70.8438H200.732C199.642 70.8438 198.534 70.9323 197.438 71.1146C195.213 71.4688 193.075 72.1615 191.099 73.1615C191.333 73.5156 191.523 73.8438 191.686 74.1771C191.751 74.3073 191.751 74.4583 191.664 74.5781C191.572 74.6979 191.43 74.7865 191.278 74.7865C191.127 74.7865 191.002 74.6979 190.926 74.5677C190.464 73.6406 189.867 72.7969 189.119 72.0521C187.311 70.2604 184.75 69.224 182.118 69.224C180.69 69.224 179.317 69.5156 178.031 70.0885C177.982 70.1146 177.933 70.125 177.868 70.125C177.499 71.0521 176.924 71.9323 176.229 72.651C174.585 74.3438 172.143 75.3229 169.521 75.3229C169.456 75.3229 169.391 75.3229 169.342 75.3229C169.098 75.3229 168.924 75.1406 168.924 74.8958C168.924 74.6615 169.098 74.4948 169.342 74.4948C169.407 74.4948 169.521 74.4948 169.521 74.4948C172.208 74.4948 174.688 73.3698 176.126 71.4792C177.472 69.7083 177.868 67.5 177.168 65.5885C176.441 63.6094 174.71 62.1823 172.626 61.8542C172.284 61.8073 171.936 61.7656 171.584 61.7656C169.825 61.7656 167.953 62.4531 166.455 63.6354C164.925 64.8542 163.644 66.5729 162.548 68.9167C162.537 68.9531 162.51 68.9896 162.482 69.0156C162.482 69.099 162.461 69.1979 162.406 69.2813C162.33 69.4063 162.206 69.4635 162.064 69.4635C161.989 69.4635 161.913 69.4427 161.837 69.3906C160.322 68.4531 158.591 67.9635 156.806 67.9635C156.464 67.9635 156.111 67.9896 155.764 68.026C153.946 68.2344 152.176 69 150.776 70.1979C151.107 70.3073 151.4 70.4323 151.666 70.5781C152.828 71.1979 153.663 72.526 153.039 73.8594C152.556 74.8958 151.4 75.6042 150.168 75.6042C150.065 75.6042 149.951 75.6042 149.848 75.5885C148.589 75.4688 147.379 74.724 146.451 73.5052C146.359 73.3802 146.337 73.2344 146.413 73.1146C146.489 72.9792 146.652 72.8802 146.82 72.8802C146.961 72.8802 147.086 72.9427 147.178 73.0521C147.824 73.8958 148.942 74.7865 150.168 74.7865C150.342 74.7865 150.537 74.7604 150.711 74.724C151.427 74.5521 152.035 74.0521 152.279 73.4427C152.421 73.1042 152.497 72.5625 152.09 72.0052C151.351 70.9688 149.783 70.7448 148.345 70.6615C148.079 70.651 147.813 70.6354 147.558 70.6354C146.44 70.6354 145.333 70.7708 144.237 71.0521C142.874 71.3958 141.604 71.9427 140.459 72.651C139.667 73.151 138.918 73.7344 138.191 74.2969C137.86 74.5521 137.529 74.8229 137.198 75.0677C136.308 75.7344 135.097 76.5677 133.659 77.0521C132.237 77.5417 130.707 77.7031 129.231 77.849L128.916 77.8854C130.061 77.8958 131.179 77.9323 132.275 77.9792C134.006 78.0521 135.559 78.1406 137.1 78.4688C138.788 78.8333 140.166 79.4583 141.208 80.3385C141.501 80.5781 141.767 80.875 142.049 81.1875C142.733 81.9323 143.433 82.7031 144.416 82.7292C144.475 82.7292 144.54 82.7396 144.606 82.776C144.823 82.5417 145.051 82.3229 145.317 82.1406C145.392 82.0938 145.468 82.0573 145.561 82.0573C145.724 82.0573 145.876 82.1667 145.941 82.349C146.006 82.5313 145.941 82.7135 145.789 82.8385C144.513 83.7656 143.916 85.5208 144.34 87.1198C144.692 88.4844 145.686 89.7292 147.075 90.5365C148.372 91.3021 150.027 91.7083 151.845 91.7083C151.948 91.7083 152.052 91.7083 152.165 91.7083C155.194 91.6354 158.195 90.4479 160.436 88.4375C160.04 88.3385 159.66 88.2656 159.291 88.2292C158.895 88.1823 158.499 88.1667 158.092 88.1667C156.947 88.1667 155.829 88.349 154.749 88.7031C154.695 88.7188 154.646 88.7292 154.608 88.7292C154.401 88.7292 154.249 88.5833 154.212 88.3854C154.174 88.1823 154.304 87.9844 154.505 87.9219C155.65 87.5469 156.849 87.349 158.07 87.349C158.591 87.349 159.112 87.3854 159.622 87.4583C161.033 87.6563 162.434 88.1302 163.91 88.9375C164.659 89.3385 165.386 89.8021 166.086 90.2552C166.672 90.6198 167.269 91 167.866 91.3542C169.114 92.0573 170.997 92.9115 172.843 92.9115C173.885 92.9115 174.829 92.6458 175.627 92.1198C175.285 91.8021 174.992 91.474 174.726 91.1458C174.634 91.0208 174.612 90.8906 174.688 90.7552C174.764 90.6198 174.927 90.5208 175.095 90.5208C175.236 90.5208 175.361 90.5833 175.448 90.6927C176.457 91.974 177.879 92.901 179.485 93.3021C180.072 93.4531 180.679 93.526 181.293 93.526C182.449 93.526 183.594 93.2656 184.625 92.7656C183.925 91.375 184.066 89.7917 185.005 88.6094C185.77 87.6458 186.964 87.0469 188.125 87.0469C188.505 87.0469 188.874 87.1094 189.232 87.2292C190.823 87.7917 191.881 89.3385 191.675 90.8281C191.637 91.0729 191.42 91.2083 191.219 91.2083C191.089 91.2083 190.975 91.1563 190.909 91.0833C190.833 91.0104 190.812 90.901 190.823 90.7917C190.871 90.4375 190.85 90.1198 190.757 89.8125C190.361 88.6823 189.243 87.8646 188.033 87.8646Z" fill="white"/>
<path d="M240.299 85.9303H240.006C239.979 85.8782 239.93 85.8417 239.854 85.8313C234.66 85.0032 229.445 84.3209 224.202 83.7844C221.988 83.5501 219.67 83.3209 217.646 82.3417C215.573 81.3417 214.249 79.4615 212.366 78.2063C210.434 76.9251 208.078 76.2792 205.734 76.3626C205.75 76.3522 205.761 76.3417 205.772 76.3261C206.488 75.5449 206.971 74.524 206.955 73.4719C206.944 72.4615 206.412 71.5813 205.533 71.0188C204.681 70.4719 203.633 70.2532 202.629 70.1438C201.381 70.0084 200.111 70.0188 198.863 70.1178C195.965 70.3522 193.127 71.1542 190.543 72.4719C190.478 72.5084 190.44 72.5605 190.429 72.6178C188.351 69.8261 184.818 68.1803 181.176 68.4615C179.993 68.5553 178.837 68.8365 177.752 69.3001C178.061 68.274 178.121 67.1907 177.904 66.1282C177.459 63.9824 175.868 62.0917 173.692 61.3574C171.44 60.6022 168.857 61.1022 166.876 62.3105C164.504 63.748 162.914 66.0813 161.785 68.4824C161.769 68.5188 161.769 68.5449 161.769 68.5709C158.833 66.873 155.115 66.7532 152.076 68.3105C151.208 68.7532 150.421 69.3157 149.732 69.9719C149.721 69.998 149.71 70.0084 149.694 70.0344C148.814 69.8626 147.886 69.8365 147.034 69.8626C144.044 69.9355 141.222 70.9615 138.856 72.7063C137.694 73.5605 136.614 74.524 135.377 75.2897C134.031 76.1334 132.566 76.5969 130.976 76.8417C129.065 77.1334 127.144 77.2688 125.223 77.4772C123.242 77.6803 121.239 77.8886 119.242 78.0969C118.927 78.1334 118.911 78.5865 119.242 78.5709C123.28 78.3782 127.312 78.3417 131.345 78.4772C134.427 78.5865 138.09 78.5969 140.56 80.6699C141.651 81.5969 142.546 83.1699 144.174 83.2324C143.572 84.0865 143.295 85.123 143.344 86.1751C143.436 87.7949 144.348 89.3105 145.634 90.3313C148.51 92.6386 152.836 92.6126 156.195 91.4199C158.057 90.7584 159.75 89.7219 161.134 88.3574C161.975 88.6386 162.789 89.0032 163.565 89.4407C166.149 90.8938 168.553 92.9459 171.619 93.3209C173.111 93.5032 174.685 93.2636 175.923 92.4094C175.999 92.3574 176.02 92.2844 176.02 92.2115C176.927 92.9303 177.969 93.4563 179.114 93.748C181.051 94.2376 183.135 93.9824 184.905 93.0917C184.915 93.0761 184.915 93.0761 184.932 93.0657C185.784 94.2844 187.233 95.0188 188.774 95.0292C190.527 95.0553 192.106 94.248 193.251 93.0032C194.358 91.8105 195.124 90.3574 196.28 89.2115C197.577 87.9303 199.335 87.4042 201.153 87.2219C203.188 87.0032 205.278 87.0292 207.324 86.9563C211.779 86.8053 216.246 86.649 220.702 86.5032C221.261 86.4772 221.82 86.4667 222.368 86.4407C222.471 86.4407 222.547 86.3782 222.568 86.3053C227.138 86.3313 231.719 86.3678 236.288 86.3938C237.612 86.4042 238.92 86.4042 240.244 86.4147C240.614 86.4042 240.614 85.9303 240.299 85.9303ZM226.324 85.8417C225 85.8313 223.692 85.8313 222.368 85.8209C222.254 85.8209 222.178 85.8782 222.151 85.9667C218.064 86.1022 213.983 86.248 209.896 86.3782C207.812 86.4563 205.734 86.5292 203.65 86.5865C201.956 86.649 200.225 86.7115 198.624 87.2584C197.083 87.7844 195.949 88.7584 194.993 90.0032C194.065 91.2011 193.289 92.5397 192.068 93.4824C190.744 94.4928 188.877 94.8574 187.271 94.2636C185.811 93.7115 184.715 92.274 184.704 90.7584C184.687 89.3209 185.784 87.9563 187.233 87.5865C188.736 87.1959 190.337 88.1594 190.771 89.5761C190.874 89.9199 190.896 90.2584 190.847 90.6282C190.809 90.9303 191.303 90.9303 191.341 90.6282C191.547 89.1386 190.451 87.7115 189.029 87.2115C187.553 86.6959 185.936 87.3678 185.008 88.5292C184.052 89.748 183.987 91.3313 184.725 92.6647C184.715 92.6751 184.704 92.6647 184.687 92.6751C183.032 93.5032 181.089 93.748 179.282 93.2844C177.638 92.873 176.151 91.9199 175.147 90.6126C174.951 90.3678 174.522 90.6022 174.712 90.8469C175.033 91.248 175.385 91.6282 175.771 91.9563C175.744 91.9667 175.733 91.9667 175.706 91.9928C173.209 93.7376 170.002 92.6855 167.614 91.3209C166.262 90.5553 165.003 89.6647 163.652 88.9199C162.344 88.1959 160.944 87.6594 159.43 87.4563C157.737 87.2219 156.005 87.3834 154.388 87.9199C154.084 88.0136 154.214 88.4772 154.518 88.3834C156.005 87.8938 157.585 87.7219 159.137 87.8938C159.647 87.9563 160.141 88.0501 160.624 88.1855C158.334 90.3469 155.202 91.6386 152 91.7115C150.204 91.7584 148.359 91.4303 146.817 90.5292C145.471 89.748 144.386 88.4928 144.006 87.0032C143.599 85.4042 144.136 83.5501 145.536 82.5397C145.775 82.3522 145.536 81.9407 145.281 82.123C144.972 82.3417 144.706 82.5865 144.478 82.8678C144.44 82.8053 144.375 82.7428 144.272 82.7428C142.796 82.7219 141.944 81.1594 140.951 80.3157C139.822 79.3522 138.384 78.8053 136.918 78.4876C135.355 78.1594 133.738 78.0709 132.137 78.0136C130.124 77.9251 128.099 77.9042 126.075 77.9042C125.885 77.9042 125.695 77.9042 125.516 77.9147C126.699 77.7897 127.871 77.6699 129.054 77.5501C130.541 77.3886 132.045 77.2428 133.472 76.7532C134.758 76.3157 135.887 75.5969 136.956 74.7897C138.036 73.9719 139.067 73.0813 140.229 72.3626C141.396 71.6334 142.709 71.0813 144.06 70.7428C145.417 70.399 146.817 70.2636 148.217 70.3522C149.552 70.4355 151.273 70.6178 152.098 71.7792C152.977 73.0084 151.973 74.4511 150.611 74.7688C149.145 75.1074 147.707 74.0969 146.882 73.0344C146.692 72.7897 146.258 73.024 146.448 73.2792C147.241 74.3053 148.369 75.1594 149.721 75.2897C150.942 75.4147 152.228 74.7688 152.722 73.6699C153.281 72.4615 152.559 71.2167 151.425 70.6074C151.067 70.4094 150.676 70.2636 150.269 70.1542C151.718 68.8365 153.601 67.9615 155.598 67.7272C157.764 67.4824 159.962 67.998 161.796 69.1282C162.013 69.2636 162.214 69.0084 162.138 68.8261C162.176 68.8105 162.214 68.774 162.241 68.7272C163.185 66.7272 164.417 64.8001 166.197 63.3834C167.929 62.0188 170.273 61.2115 172.525 61.5553C174.712 61.8938 176.482 63.4094 177.203 65.4094C177.958 67.4563 177.459 69.7428 176.14 71.4719C174.544 73.5449 171.847 74.6074 169.204 74.5605C168.884 74.5449 168.884 75.024 169.204 75.0344C171.695 75.0813 174.24 74.1907 175.944 72.4251C176.672 71.6699 177.231 70.7792 177.6 69.8261C177.665 69.8522 177.73 69.8522 177.806 69.8157C181.594 68.1074 186.191 68.9251 189.105 71.8157C189.854 72.5709 190.478 73.4251 190.934 74.3626C191.075 74.6438 191.498 74.399 191.368 74.1178C191.167 73.7063 190.923 73.3001 190.657 72.9251C190.706 72.9355 190.76 72.9355 190.809 72.899C192.817 71.873 194.993 71.1699 197.246 70.8157C198.369 70.6334 199.498 70.5449 200.632 70.5449C201.652 70.5449 202.705 70.5813 203.715 70.8261C204.567 71.0188 205.441 71.3886 205.978 72.0969C206.586 72.899 206.564 73.9511 206.195 74.8417C205.468 76.5969 203.357 77.8886 201.397 77.3261C200.404 77.0501 199.525 76.3261 199.297 75.3417C199.069 74.4251 199.4 73.3626 200.214 72.8001C200.469 72.6334 200.225 72.2167 199.97 72.3886C199.183 72.9251 198.749 73.8053 198.738 74.7324C198.722 75.7063 199.221 76.5865 200.008 77.1803C201.625 78.3678 203.774 78.0501 205.251 76.8626C205.289 76.8886 205.327 76.899 205.381 76.899C207.606 76.7428 209.858 77.2792 211.752 78.4251C213.69 79.5865 214.987 81.4772 216.973 82.5761C218.878 83.623 221.092 83.9667 223.247 84.2115C225.792 84.4876 228.348 84.7584 230.877 85.0761C233.016 85.3417 235.154 85.649 237.292 85.9667C233.629 85.8938 229.987 85.8678 226.324 85.8417Z" fill="white"/>
</g>
<defs>
<linearGradient id="paint0_linear_18_3160" x1="630.562" y1="2.12447e-05" x2="660.319" y2="544.589" gradientUnits="userSpaceOnUse">
<stop stop-color="#96D9F5"/>
<stop offset="1" stop-color="#FFEBC2"/>
</linearGradient>
<linearGradient id="paint1_linear_18_3160" x1="-805637" y1="8549.17" x2="-818251" y2="405350" gradientUnits="userSpaceOnUse">
<stop stop-color="white"/>
<stop offset="1" stop-color="white" stop-opacity="0"/>
</linearGradient>
<clipPath id="clip0_18_3160">
<rect width="1440" height="546" fill="white"/>
</clipPath>
</defs>
</svg>
