<svg width="1440" height="546" viewBox="0 0 1440 546" fill="none" xmlns="http://www.w3.org/2000/svg">
<g clip-path="url(#clip0_180_4372)">
<rect width="1470" height="546" transform="translate(-13)" fill="url(#paint0_linear_180_4372)"/>
<path opacity="0.6" d="M1675.64 319.703C1663.89 309.89 1647.02 329.872 1639.07 329.567C1631.21 329.265 1632.21 314.307 1618.86 302.607C1605.43 290.904 1576.15 312.155 1557.77 311.45C1539.31 310.741 1550.04 297.982 1535.52 299.646C1520.89 301.306 1538.77 336.984 1503.68 331.828C1470.93 327.08 1469.71 326.795 1469.71 326.795C1469.71 326.795 1468.94 327.004 1453.18 331.794C1436.56 336.789 1429.39 362.777 1417.86 379.235C1406.43 395.697 1392.8 374.544 1373.61 379.441C1354.43 384.338 1359.89 397.64 1341.25 395.099C1322.71 392.483 1331.95 377.842 1312.54 377.097C1293.12 376.351 1292.86 393.242 1281.05 390.884C1269.22 388.605 1264.37 380.881 1245.28 385.782C1226.29 390.686 1222.11 411.156 1224.62 412.046C1227.04 412.852 1207.76 425.601 1189.11 424.885C1170.55 424.173 1173.47 435.552 1167.05 442.843C1160.63 450.134 1146.12 442.04 1132.27 443.412C1118.43 444.706 1111.6 455.711 1096.43 466.396C1081.17 477.077 1073.08 461.77 1059.5 455.615C1045.92 449.46 1032.74 460.221 1023.57 467.407C1014.41 474.514 1006.87 479.858 981.301 469.514C955.728 459.17 935.936 497.765 935.936 497.765C922.314 495.417 923.336 487.919 901.785 492.725C880.234 497.531 885.865 512.743 877.338 503.053C868.81 493.363 864.758 491.303 854.002 496.524C843.341 501.748 836.169 518.374 826.671 518.485C817.167 518.676 808.019 500.392 792.11 499.782C776.201 499.171 775.657 516.051 760.666 515.951C745.765 515.935 741.361 526.001 742.643 501.612C743.919 477.302 723.449 487.784 708.203 487.198C693.051 486.617 688.127 476.986 686.109 460.087C684.096 443.109 669.876 444.388 651.769 445.597C633.567 446.803 634.644 433.673 633.517 414.587C632.49 395.426 620.619 404.967 610.696 402.682C600.673 400.472 584.031 416.734 581.126 384.647C578.216 352.638 534.962 361.61 534.962 361.61C528.623 331.374 487.585 339.796 473.814 333.634C459.944 327.548 446.784 320.695 427.981 331.875C409.177 343.055 403.065 351.548 389.939 353.583C376.817 355.539 379.708 340.654 353.04 342.17C326.377 343.606 330.324 366.291 301.065 377.705C271.812 389.039 300.399 365.143 280.114 356.826C259.919 348.593 234.379 367.607 218.74 384.542C203.007 401.473 181.362 403.102 170.539 382.692C159.81 362.285 111.634 367.894 96.6716 367.32C81.7094 366.745 73.4094 356.429 63.1964 346.357C52.9786 336.364 35.7867 334.99 16.3984 341.704C-3.08941 348.494 -6.51839 340.825 -18.7622 320.36C-23.5026 312.402 -29.9206 307.078 -37.4001 303.617C-48.9564 318.963 -60.7498 335.093 -72.5011 352.098C-170.396 492.748 -153.851 1171.52 -120.851 1223.97L185.88 1243.52C185.88 1243.52 1319.32 1249.1 1673.41 1245.24C1674.77 1230.53 1671.72 1216.61 1661 1205.48C1616.42 1159.26 1566.12 588.446 1679.02 466.701C1716.49 426.086 1718.05 382.824 1700.29 340.645C1696.11 342.151 1692.04 343.581 1688.28 344.548C1669.57 349.463 1687.38 329.517 1675.64 319.703Z" fill="url(#paint1_linear_180_4372)" fill-opacity="0.5"/>
<path opacity="0.6" d="M1657.64 603.703C1645.89 593.89 1629.02 613.872 1621.07 613.567C1613.21 613.265 1614.21 598.307 1600.86 586.607C1587.43 574.904 1558.15 596.155 1539.77 595.45C1521.31 594.741 1532.04 581.982 1517.52 583.646C1502.89 585.306 1520.77 620.984 1485.68 615.828C1452.93 611.08 1451.71 610.795 1451.71 610.795C1451.71 610.795 1450.94 611.004 1435.18 615.794C1418.56 620.789 1411.39 646.777 1399.86 663.235C1388.43 679.697 1374.8 658.544 1355.61 663.441C1336.43 668.338 1341.89 681.64 1323.25 679.099C1304.71 676.483 1313.95 661.842 1294.53 661.097C1275.12 660.351 1274.86 677.242 1263.05 674.884C1251.22 672.605 1246.37 664.881 1227.28 669.782C1208.29 674.686 1204.11 695.156 1206.62 696.046C1209.04 696.852 1189.76 709.601 1171.11 708.885C1152.55 708.173 1155.47 719.552 1149.05 726.843C1142.63 734.134 1128.12 726.04 1114.27 727.412C1100.43 728.706 1093.6 739.711 1078.43 750.396C1063.17 761.077 1055.08 745.77 1041.5 739.615C1027.91 733.46 1014.74 744.221 1005.57 751.407C996.41 758.514 988.874 763.858 963.301 753.514C937.728 743.17 917.935 781.765 917.935 781.765C904.314 779.417 905.336 771.919 883.785 776.725C862.233 781.531 867.865 796.743 859.338 787.053C850.81 777.363 846.758 775.303 836.002 780.524C825.341 785.748 818.169 802.374 808.67 802.485C799.167 802.676 790.019 784.392 774.11 783.782C758.201 783.171 757.657 800.051 742.666 799.951C727.765 799.935 723.361 810.001 724.643 785.612C725.919 761.302 705.449 771.784 690.203 771.198C675.051 770.617 670.127 760.986 668.109 744.087C666.096 727.109 651.876 728.388 633.769 729.597C615.567 730.803 616.644 717.673 615.517 698.587C614.49 679.426 602.619 688.967 592.696 686.682C582.673 684.472 566.031 700.734 563.126 668.647C560.216 636.638 516.962 645.61 516.962 645.61C510.623 615.374 469.585 623.797 455.814 617.634C441.944 611.548 428.784 604.695 409.981 615.875C391.177 627.055 385.065 635.548 371.939 637.583C358.817 639.539 361.708 624.654 335.04 626.17C308.377 627.606 312.324 650.291 283.065 661.705C253.812 673.039 282.399 649.143 262.114 640.826C241.919 632.593 216.378 651.607 200.74 668.542C185.006 685.473 163.362 687.102 152.539 666.692C141.81 646.285 93.6338 651.894 78.6716 651.32C63.7094 650.745 55.4094 640.429 45.1964 630.357C34.9786 620.364 17.7867 618.99 -1.60162 625.704C-21.0894 632.494 -24.5184 624.825 -36.7622 604.36C-41.5026 596.402 -47.9206 591.078 -55.4001 587.617C-66.9564 602.963 -78.7498 619.093 -90.5011 636.098C-188.396 776.748 -171.851 1455.52 -138.851 1507.97L167.88 1527.52C167.88 1527.52 1301.32 1533.1 1655.41 1529.24C1656.77 1514.53 1653.72 1500.61 1643 1489.48C1598.42 1443.26 1548.12 872.446 1661.01 750.701C1698.49 710.086 1700.05 666.824 1682.29 624.645C1678.11 626.151 1674.04 627.581 1670.28 628.548C1651.57 633.463 1669.38 613.517 1657.64 603.703Z" fill="url(#paint2_linear_180_4372)" fill-opacity="0.5"/>
<path d="M1309 151H1464.25C1464.25 151 1471.51 137.907 1440.9 140.055C1440.9 140.055 1441.42 121.95 1424.19 131.258C1424.19 131.258 1416.93 120.416 1411.32 128.599C1411.32 128.599 1385.17 100.163 1366.8 125.53C1366.8 125.53 1350.2 121.541 1349.06 132.997C1349.06 132.997 1329.03 129.11 1330.17 142.817C1330.17 142.817 1311.18 140.567 1309 151Z" fill="#FEFEFE"/>
<path d="M744.9 213.055C746.7 199.655 737.1 179.155 712.4 191.155C676.7 208.555 708 214.555 713.6 202.255C720.9 186.255 677 147.555 629 184.455" stroke="white" stroke-width="9.3" stroke-linecap="round" stroke-linejoin="round"/>
</g>
<defs>
<linearGradient id="paint0_linear_180_4372" x1="643.562" y1="2.18014e-05" x2="673.319" y2="544.589" gradientUnits="userSpaceOnUse">
<stop stop-color="#96D9F5"/>
<stop offset="1" stop-color="#FFEBC2"/>
</linearGradient>
<linearGradient id="paint1_linear_180_4372" x1="-805637" y1="8549.17" x2="-818251" y2="405350" gradientUnits="userSpaceOnUse">
<stop stop-color="white"/>
<stop offset="1" stop-color="white" stop-opacity="0"/>
</linearGradient>
<linearGradient id="paint2_linear_180_4372" x1="-805655" y1="8833.17" x2="-818269" y2="405634" gradientUnits="userSpaceOnUse">
<stop stop-color="white"/>
<stop offset="1" stop-color="white" stop-opacity="0"/>
</linearGradient>
<clipPath id="clip0_180_4372">
<rect width="1470" height="546" fill="white" transform="translate(-13)"/>
</clipPath>
</defs>
</svg>
